<?xml version="1.0" standalone="no"?>
<!DOCTYPE svg PUBLIC "-//W3C//DTD SVG 20010904//EN"
 "http://www.w3.org/TR/2001/REC-SVG-20010904/DTD/svg10.dtd">
<svg version="1.0" xmlns="http://www.w3.org/2000/svg"
 width="900.000000pt" height="579.000000pt" viewBox="0 0 900.000000 579.000000"
 preserveAspectRatio="xMidYMid meet">
<metadata>
Created by potrace 1.10, written by Peter Selinger 2001-2011
</metadata>
<g transform="translate(0.000000,579.000000) scale(0.100000,-0.100000)"
fill="#000000" stroke="none">
<path d="M390 5641 c-92 -25 -164 -66 -220 -128 -53 -58 -71 -89 -101 -173
-19 -53 -19 -107 -19 -2476 0 -2397 0 -2421 20 -2479 28 -81 60 -133 117 -189
52 -50 78 -66 156 -97 47 -19 129 -19 4167 -19 3812 0 4122 1 4157 16 82 36
106 51 153 96 59 56 93 108 120 184 20 58 20 70 20 2489 0 2270 -1 2433 -17
2480 -15 44 -60 122 -96 165 -23 29 -102 86 -142 103 -119 50 145 47 -4205 46
-3836 0 -4048 -1 -4110 -18z m4310 -1202 c115 -13 263 -48 365 -86 70 -27 229
-105 273 -134 24 -16 45 -29 48 -29 3 0 42 -28 87 -62 671 -510 828 -1443 361
-2145 -77 -116 -169 -220 -281 -319 -126 -110 -207 -159 -456 -280 -16 -8 -35
-14 -42 -14 -8 0 -29 -6 -47 -14 -39 -17 -123 -39 -231 -60 -107 -22 -437 -22
-544 0 -181 36 -280 69 -439 146 -44 21 -104 54 -133 73 -29 19 -55 35 -58 35
-13 0 -138 105 -219 185 -260 256 -421 585 -463 941 -57 481 111 965 454 1310
87 87 199 174 310 241 38 23 200 101 250 121 141 56 276 83 515 106 42 4 122
-1 250 -15z"/>
<path d="M4308 3833 c-15 -4 -18 -17 -18 -89 0 -89 -10 -124 -36 -124 -32 0
-138 -66 -188 -115 -97 -97 -137 -228 -118 -384 24 -195 135 -301 467 -445
158 -69 216 -114 235 -182 11 -38 10 -50 -4 -87 -25 -64 -56 -82 -146 -82 -56
1 -84 6 -110 20 -50 28 -140 97 -174 134 -33 34 -43 37 -60 18 -6 -7 -62 -55
-123 -107 -62 -51 -113 -97 -113 -103 0 -19 70 -95 132 -144 60 -47 154 -98
208 -113 24 -6 25 -10 28 -100 2 -60 7 -97 15 -102 14 -9 348 -11 371 -2 13 5
16 24 16 100 l0 95 84 39 c204 96 292 257 264 485 -25 211 -141 335 -433 460
-121 52 -226 111 -245 138 -27 36 -36 103 -18 137 15 29 90 70 129 70 65 0
132 -33 203 -102 39 -37 75 -68 81 -68 5 0 37 23 70 51 33 28 90 75 128 105
37 30 67 60 67 67 0 22 -149 153 -210 185 -33 18 -67 32 -74 32 -34 0 -46 30
-46 115 0 73 -3 86 -19 95 -19 10 -327 13 -363 3z"/>
</g>
</svg>
