<?xml version="1.0" standalone="no"?>
<!DOCTYPE svg PUBLIC "-//W3C//DTD SVG 20010904//EN"
 "http://www.w3.org/TR/2001/REC-SVG-20010904/DTD/svg10.dtd">
<svg version="1.0" xmlns="http://www.w3.org/2000/svg"
 width="900.000000pt" height="495.000000pt" viewBox="0 0 900.000000 495.000000"
 preserveAspectRatio="xMidYMid meet">
<metadata>
Created by potrace 1.10, written by Peter Selinger 2001-2011
</metadata>
<g transform="translate(0.000000,495.000000) scale(0.100000,-0.100000)"
fill="#000000" stroke="none">
<path d="M1 4813 c1 -109 3 -131 11 -103 14 50 98 132 156 153 44 16 327 17
4332 15 4099 -3 4286 -4 4317 -21 42 -24 131 -122 141 -155 9 -35 9 -4439 0
-4474 -10 -33 -99 -131 -141 -155 -31 -17 -218 -18 -4317 -21 -4005 -2 -4288
-1 -4332 15 -58 21 -142 103 -156 153 -8 28 -10 9 -11 -92 l-1 -128 4500 0
4500 0 0 2475 0 2475 -4500 0 -4500 0 1 -137z"/>
<path d="M285 4578 c-3 -13 -4 -293 -3 -623 l3 -600 114 2 c63 2 119 7 125 13
5 5 28 10 51 10 23 0 45 4 51 8 5 5 29 14 54 21 25 7 65 24 89 37 24 13 52 24
62 24 10 0 21 5 24 10 4 6 25 20 48 31 23 12 46 28 50 35 4 8 15 14 24 14 21
0 23 2 191 167 78 78 142 146 142 153 0 6 11 26 24 43 14 18 29 43 35 57 6 14
15 32 21 40 38 59 110 250 110 293 0 13 4 27 9 33 8 8 13 43 25 169 2 22 -1
50 -5 63 l-9 22 -615 0 -615 0 -5 -22z"/>
<path d="M4416 4586 c-58 -26 -70 -71 -76 -271 l-5 -180 -95 -8 c-52 -4 -99
-12 -104 -17 -6 -6 -22 -10 -37 -10 -15 0 -30 -4 -33 -9 -4 -5 -25 -12 -49
-16 -47 -8 -151 -55 -214 -97 -23 -15 -46 -28 -51 -28 -6 0 -12 -7 -16 -15 -3
-8 -12 -15 -20 -15 -15 0 -126 -103 -126 -118 0 -4 -12 -21 -27 -38 -33 -36
-119 -206 -126 -249 -3 -16 -10 -48 -16 -70 -16 -62 -13 -411 4 -460 8 -22 15
-47 15 -56 0 -10 14 -44 30 -77 17 -34 30 -64 30 -67 0 -3 17 -29 39 -58 57
-76 178 -189 243 -226 32 -18 60 -36 63 -42 4 -5 13 -9 21 -9 8 0 42 -13 76
-30 33 -16 67 -30 77 -30 9 0 25 -7 35 -15 11 -8 28 -15 37 -15 10 0 30 -6 46
-14 34 -16 83 -34 138 -48 22 -6 46 -15 53 -21 9 -7 12 -118 10 -516 l-3 -506
-32 2 c-37 3 -116 44 -155 80 -15 14 -37 31 -49 37 -41 21 -149 193 -149 239
0 8 -7 20 -15 27 -8 7 -15 22 -15 34 0 12 -7 31 -15 42 -8 10 -15 29 -15 41 0
12 -4 24 -9 28 -5 3 -13 20 -17 37 -7 36 -42 95 -70 120 -63 56 -233 77 -309
38 -53 -27 -121 -95 -147 -147 -19 -38 -20 -53 -15 -165 3 -68 11 -139 18
-158 21 -60 103 -225 117 -233 6 -4 12 -14 12 -22 0 -19 226 -245 245 -245 9
0 18 -7 21 -15 4 -8 10 -15 15 -15 5 0 28 -12 52 -27 60 -39 109 -63 127 -63
8 0 23 -7 33 -15 11 -7 36 -17 58 -20 21 -4 41 -11 45 -16 3 -5 18 -9 33 -9
15 0 31 -4 37 -10 5 -5 52 -13 104 -17 l95 -8 5 -180 c5 -157 8 -185 26 -219
50 -93 185 -88 233 9 22 44 23 57 22 209 -2 124 1 165 11 173 7 6 38 13 68 17
126 14 203 27 215 36 6 4 28 13 50 19 64 20 266 123 299 153 17 16 34 28 38
28 14 0 148 139 148 154 0 8 6 19 13 23 36 22 147 251 147 302 0 11 5 23 10
26 6 3 10 25 10 49 0 23 5 47 11 53 6 6 9 59 6 149 -6 196 -27 286 -97 419
-51 95 -83 138 -170 222 -60 58 -199 163 -217 163 -4 0 -57 20 -118 44 -60 24
-126 47 -145 51 -19 4 -41 11 -50 15 -31 15 -118 40 -138 40 -12 0 -37 9 -57
21 l-35 21 2 442 3 441 30 3 c44 5 148 -53 204 -114 57 -62 119 -185 139 -274
12 -55 77 -132 137 -162 94 -48 157 -48 255 -4 35 16 130 115 130 137 0 10 5
21 10 24 12 8 13 182 1 189 -4 3 -11 20 -14 38 -6 36 -37 106 -67 153 -11 17
-23 37 -27 45 -22 48 -196 240 -217 240 -5 0 -17 6 -25 14 -29 26 -188 104
-225 111 -20 4 -39 11 -42 16 -3 5 -17 9 -32 9 -15 0 -49 7 -76 15 -27 8 -75
15 -106 15 -38 0 -62 5 -69 14 -9 10 -12 64 -10 174 1 149 0 163 -22 207 -34
69 -109 93 -183 61z m-87 -890 c8 -9 10 -127 9 -417 -3 -362 -5 -404 -19 -407
-20 -4 -169 66 -169 79 0 5 -6 9 -13 9 -7 0 -27 14 -45 30 -18 17 -36 30 -40
30 -8 0 -40 46 -73 105 -20 36 -22 54 -22 165 1 117 2 128 28 175 29 52 129
155 152 155 7 0 13 4 13 9 0 11 79 51 101 51 8 0 23 7 33 15 24 18 31 19 45 1z
m430 -1548 c36 -16 73 -34 81 -39 8 -4 32 -17 53 -29 59 -32 132 -110 166
-180 30 -60 31 -67 31 -190 0 -71 -4 -131 -9 -135 -5 -3 -12 -18 -16 -34 -3
-15 -14 -39 -23 -51 -40 -55 -149 -164 -177 -177 -16 -7 -50 -25 -74 -38 -24
-14 -56 -25 -70 -25 -15 0 -36 -6 -47 -14 -48 -34 -49 -31 -52 465 -2 349 0
465 9 476 15 18 39 12 128 -29z"/>
<path d="M7433 4584 c-5 -13 -1 -77 12 -194 6 -53 21 -121 36 -160 39 -109 54
-146 61 -154 4 -6 8 -16 8 -23 0 -7 14 -32 30 -55 17 -22 30 -47 30 -55 0 -7
7 -16 15 -19 8 -4 15 -10 15 -15 0 -21 68 -104 167 -202 104 -103 128 -123
181 -146 12 -6 22 -15 22 -21 0 -5 6 -10 13 -10 8 0 33 -13 55 -30 23 -16 49
-30 57 -30 8 0 41 -13 72 -28 101 -50 107 -52 296 -82 37 -6 94 -10 125 -8
l57 3 3 600 c1 330 0 610 -3 623 l-5 22 -621 0 c-552 0 -620 -2 -626 -16z"/>
<path d="M287 1573 c-9 -8 -9 -1206 -1 -1227 6 -14 69 -16 619 -16 408 0 616
3 620 10 11 17 14 120 4 126 -5 3 -9 32 -9 64 0 32 -4 62 -10 65 -5 3 -10 15
-10 25 0 40 -74 234 -110 290 -6 8 -15 26 -21 40 -6 14 -21 39 -35 57 -13 17
-24 36 -24 40 0 15 -131 157 -210 227 -41 37 -82 73 -91 81 -9 8 -23 15 -32
15 -9 0 -20 6 -24 14 -4 7 -28 24 -52 37 -24 13 -58 32 -75 41 -17 9 -65 29
-106 43 -41 15 -84 31 -95 35 -62 26 -321 51 -338 33z"/>
<path d="M8475 1568 c-22 -5 -62 -13 -90 -17 -49 -8 -102 -25 -138 -43 -9 -4
-43 -18 -75 -30 -31 -11 -76 -34 -100 -49 -24 -16 -47 -29 -53 -29 -5 0 -9 -5
-9 -10 0 -6 -10 -15 -22 -21 -53 -23 -77 -43 -181 -146 -101 -100 -167 -181
-167 -204 0 -5 -5 -9 -11 -9 -5 0 -15 -13 -20 -30 -6 -16 -14 -30 -18 -30 -9
0 -42 -68 -79 -165 -40 -104 -45 -122 -54 -190 -5 -38 -13 -79 -19 -90 -5 -11
-9 -54 -7 -95 l3 -75 622 -3 623 -2 5 22 c3 13 4 293 3 623 l-3 600 -85 2
c-47 0 -103 -3 -125 -9z"/>
</g>
</svg>
