<?xml version="1.0" standalone="no"?>
<!DOCTYPE svg PUBLIC "-//W3C//DTD SVG 20010904//EN"
 "http://www.w3.org/TR/2001/REC-SVG-20010904/DTD/svg10.dtd">
<svg version="1.0" xmlns="http://www.w3.org/2000/svg"
 width="131.000000pt" height="105.000000pt" viewBox="0 0 131.000000 105.000000"
 preserveAspectRatio="xMidYMid meet">
<metadata>
Created by potrace 1.10, written by Peter Selinger 2001-2011
</metadata>
<g transform="translate(0.000000,105.000000) scale(0.100000,-0.100000)"
fill="#000000" stroke="none">
<path d="M20 1027 c0 -2 7 -24 16 -50 l16 -47 73 0 c41 0 76 -4 80 -10 6 -10
68 -221 109 -375 15 -55 39 -137 52 -182 l25 -83 358 0 357 0 92 313 c51 172
92 318 92 325 0 9 -93 12 -411 12 l-411 0 6 -22 c4 -13 9 -35 12 -50 l7 -28
328 0 c296 0 329 -2 329 -16 0 -20 -109 -392 -121 -417 -9 -16 -31 -17 -286
-15 l-276 3 -35 120 c-18 66 -44 158 -58 205 -13 47 -38 138 -56 203 l-31 117
-134 0 c-73 0 -133 -1 -133 -3z"/>
<path d="M513 185 c-49 -34 -44 -112 8 -149 30 -20 54 -20 90 1 40 24 55 64
39 103 -23 57 -89 78 -137 45z"/>
<path d="M872 184 c-51 -36 -46 -121 8 -149 43 -22 68 -18 101 14 78 79 -19
198 -109 135z"/>
</g>
</svg>
