<?xml version="1.0" standalone="no"?>
<!DOCTYPE svg PUBLIC "-//W3C//DTD SVG 20010904//EN"
 "http://www.w3.org/TR/2001/REC-SVG-20010904/DTD/svg10.dtd">
<svg version="1.0" xmlns="http://www.w3.org/2000/svg"
 width="106.000000pt" height="106.000000pt" viewBox="0 0 106.000000 106.000000"
 preserveAspectRatio="xMidYMid meet">
<metadata>
Created by potrace 1.10, written by Peter Selinger 2001-2011
</metadata>
<g transform="translate(0.000000,106.000000) scale(0.100000,-0.100000)"
fill="#000000" stroke="none">
<path d="M293 1041 c-17 -11 -42 -34 -54 -50 l-23 -31 -108 0 -108 0 0 -55 0
-55 109 0 109 0 20 -34 c56 -94 218 -91 267 5 l16 29 269 0 270 0 0 55 0 55
-268 0 -268 0 -23 31 c-33 45 -79 69 -131 69 -27 0 -58 -8 -77 -19z m105 -97
c37 -26 20 -94 -24 -94 -53 0 -75 64 -32 94 12 9 25 16 28 16 3 0 16 -7 28
-16z"/>
<path d="M625 676 c-31 -13 -85 -69 -85 -87 0 -5 -112 -9 -270 -9 l-270 0 0
-50 0 -50 268 0 267 -1 28 -40 c63 -92 191 -92 254 0 l28 40 108 1 107 0 0 50
0 50 -107 0 -108 1 -28 40 c-44 63 -122 86 -192 55z m103 -108 c7 -7 12 -24
12 -38 0 -33 -17 -50 -50 -50 -33 0 -50 17 -50 50 0 33 17 50 50 50 14 0 31
-5 38 -12z"/>
<path d="M250 298 c-25 -13 -54 -37 -65 -55 -20 -32 -21 -32 -102 -33 l-83 0
0 -55 0 -55 83 0 c82 0 82 0 104 -34 58 -89 209 -87 261 4 l17 30 298 0 297 0
0 55 0 55 -300 0 c-240 0 -300 3 -300 13 0 21 -64 77 -101 87 -48 14 -59 13
-109 -12z m102 -105 c26 -23 23 -59 -7 -79 -51 -33 -104 21 -71 71 19 29 51
32 78 8z"/>
</g>
</svg>
