<svg id="svg" version="1.1" width="931" height="500" xmlns="http://www.w3.org/2000/svg" xmlns:xlink="http://www.w3.org/1999/xlink" style="display: block;"><g id="svgg"><path id="path0" d="M160.258 5.156 C 160.258 5.392,159.678 5.585,158.969 5.585 C 158.260 5.585,157.680 5.779,157.680 6.015 C 157.680 6.251,157.220 6.445,156.658 6.445 C 156.097 6.445,155.396 6.735,155.102 7.089 C 154.808 7.444,154.331 7.734,154.042 7.734 C 153.753 7.734,153.167 8.120,152.739 8.593 C 152.311 9.066,151.744 9.452,151.478 9.452 C 151.213 9.452,150.717 9.839,150.376 10.311 C 150.035 10.784,149.483 11.171,149.149 11.171 C 148.815 11.171,148.093 11.654,147.546 12.245 C 146.998 12.836,146.297 13.319,145.989 13.319 C 145.680 13.319,145.185 13.706,144.890 14.178 C 144.595 14.651,144.095 15.038,143.779 15.038 C 143.464 15.038,142.855 15.424,142.427 15.897 C 142.000 16.369,141.424 16.756,141.147 16.756 C 140.870 16.756,140.190 17.240,139.635 17.830 C 139.080 18.421,138.399 18.904,138.123 18.904 C 137.846 18.904,137.270 19.291,136.842 19.764 C 136.414 20.236,135.804 20.623,135.487 20.623 C 135.169 20.623,134.909 20.813,134.909 21.044 C 134.909 21.276,134.432 21.586,133.849 21.732 C 133.266 21.878,132.347 22.557,131.808 23.240 C 131.268 23.923,130.535 24.484,130.179 24.486 C 129.822 24.488,129.289 24.876,128.993 25.349 C 128.698 25.822,128.202 26.208,127.891 26.208 C 127.580 26.208,126.871 26.692,126.316 27.282 C 125.761 27.873,125.080 28.357,124.804 28.357 C 124.527 28.357,123.951 28.743,123.523 29.216 C 123.095 29.689,122.519 30.075,122.242 30.075 C 121.966 30.075,121.285 30.559,120.730 31.149 C 120.175 31.740,119.495 32.223,119.218 32.223 C 118.942 32.223,118.365 32.610,117.938 33.083 C 117.510 33.555,116.978 33.942,116.755 33.942 C 116.532 33.942,115.836 34.486,115.210 35.150 C 114.583 35.814,113.781 36.499,113.426 36.671 C 111.928 37.397,110.752 38.179,109.774 39.098 C 108.740 40.070,107.555 40.840,105.908 41.612 C 105.435 41.833,104.580 42.518,104.007 43.134 C 103.434 43.750,102.797 44.253,102.591 44.253 C 102.385 44.253,101.733 44.737,101.142 45.328 C 100.552 45.918,99.834 46.402,99.547 46.402 C 99.260 46.402,98.784 46.788,98.489 47.261 C 98.193 47.734,97.651 48.120,97.283 48.120 C 96.916 48.120,96.127 48.700,95.530 49.409 C 94.934 50.118,94.207 50.698,93.914 50.698 C 93.622 50.698,92.929 51.182,92.374 51.772 C 91.819 52.363,91.145 52.846,90.876 52.846 C 90.606 52.846,89.831 53.426,89.151 54.135 C 88.472 54.844,87.696 55.424,87.427 55.424 C 87.158 55.424,86.484 55.908,85.929 56.498 C 85.374 57.089,84.741 57.573,84.523 57.573 C 84.304 57.573,83.584 58.153,82.922 58.861 C 82.259 59.570,81.533 60.150,81.308 60.150 C 81.083 60.150,80.377 60.634,79.740 61.224 C 79.102 61.815,78.434 62.299,78.254 62.299 C 78.074 62.299,77.371 62.879,76.692 63.588 C 76.013 64.296,75.241 64.876,74.977 64.876 C 74.713 64.876,73.841 65.553,73.040 66.380 C 71.571 67.895,69.156 68.470,68.528 67.454 C 68.382 67.218,67.839 67.019,67.322 67.011 C 66.804 67.004,66.005 66.714,65.546 66.367 C 65.088 66.020,64.277 65.736,63.746 65.736 C 63.214 65.736,62.659 65.542,62.513 65.306 C 62.367 65.070,61.787 64.876,61.224 64.876 C 60.662 64.876,60.082 64.683,59.936 64.447 C 59.790 64.211,59.198 64.017,58.621 64.017 C 58.044 64.017,57.573 63.824,57.573 63.588 C 57.573 63.351,56.907 63.158,56.094 63.158 C 55.281 63.158,54.496 62.965,54.350 62.728 C 54.204 62.492,53.419 62.299,52.606 62.299 C 51.793 62.299,51.128 62.125,51.128 61.913 C 51.128 61.700,49.774 61.391,48.120 61.224 C 46.466 61.058,45.113 60.749,45.113 60.536 C 45.113 60.324,44.049 60.150,42.750 60.150 C 41.450 60.150,40.387 59.957,40.387 59.721 C 40.387 59.478,39.169 59.291,37.594 59.291 C 36.019 59.291,34.801 59.104,34.801 58.861 C 34.801 58.607,33.234 58.432,30.960 58.432 C 28.847 58.432,26.999 58.238,26.853 58.002 C 26.497 57.426,13.030 57.426,12.675 58.002 C 12.528 58.238,11.776 58.432,11.003 58.432 C 6.942 58.432,0.859 63.882,0.859 67.520 C 0.859 68.193,0.666 68.743,0.430 68.743 C -0.131 68.743,-0.131 72.479,0.430 72.825 C 0.666 72.971,0.859 73.562,0.859 74.139 C 0.859 74.716,1.017 75.188,1.209 75.188 C 1.401 75.188,1.821 75.858,2.143 76.677 C 2.842 78.460,5.266 80.859,7.197 81.679 C 7.965 82.005,8.593 82.418,8.593 82.597 C 8.593 82.775,12.448 82.922,17.160 82.922 C 22.409 82.922,25.831 83.088,25.994 83.351 C 26.140 83.588,27.783 83.781,29.646 83.781 C 31.508 83.781,33.151 83.974,33.298 84.211 C 33.444 84.447,34.507 84.640,35.661 84.640 C 36.814 84.640,37.867 84.816,38.000 85.031 C 38.133 85.247,39.887 85.560,41.898 85.727 C 43.910 85.895,45.660 86.202,45.789 86.410 C 45.918 86.618,46.495 86.788,47.072 86.788 C 47.648 86.788,48.120 86.982,48.120 87.218 C 48.120 87.454,48.786 87.648,49.599 87.648 C 50.412 87.648,51.197 87.841,51.343 88.077 C 51.489 88.314,52.080 88.507,52.657 88.507 C 53.234 88.507,53.706 88.700,53.706 88.937 C 53.706 89.173,54.086 89.366,54.552 89.366 C 55.017 89.366,56.032 89.722,56.808 90.158 C 57.583 90.593,58.942 91.085,59.828 91.251 C 60.714 91.417,61.439 91.738,61.439 91.964 C 61.439 92.189,61.826 92.374,62.299 92.374 C 62.771 92.374,63.158 92.567,63.158 92.803 C 63.158 93.040,63.495 93.233,63.906 93.233 C 64.907 93.233,70.892 96.210,70.892 96.707 C 70.892 96.923,71.278 97.100,71.751 97.100 C 72.223 97.100,72.610 97.246,72.610 97.425 C 72.610 97.603,73.238 98.018,74.006 98.347 C 74.774 98.675,75.742 99.237,76.158 99.595 C 76.961 100.288,78.295 101.104,79.699 101.762 C 80.172 101.983,81.027 102.668,81.600 103.284 C 82.173 103.900,82.851 104.404,83.107 104.404 C 83.363 104.404,84.193 105.081,84.952 105.908 C 85.711 106.735,86.628 107.411,86.990 107.411 C 87.482 107.411,87.648 107.893,87.648 109.319 C 87.648 110.369,87.841 111.347,88.077 111.493 C 88.314 111.639,88.507 112.136,88.507 112.598 C 88.507 113.362,88.831 114.176,89.864 116.004 C 90.064 116.359,90.400 117.043,90.611 117.526 C 90.823 118.008,91.305 118.660,91.685 118.975 C 92.064 119.289,92.374 119.779,92.374 120.064 C 92.374 120.674,94.173 122.449,94.792 122.449 C 95.028 122.449,95.767 123.020,96.435 123.717 C 97.104 124.414,98.203 125.107,98.879 125.255 C 99.555 125.403,100.107 125.703,100.107 125.920 C 100.107 126.138,100.579 126.316,101.156 126.316 C 101.733 126.316,102.324 126.509,102.470 126.745 C 102.617 126.982,103.595 127.175,104.644 127.175 C 105.693 127.175,106.552 127.368,106.552 127.605 C 106.552 127.841,107.217 128.034,108.030 128.034 C 108.844 128.034,109.628 127.841,109.774 127.605 C 109.920 127.368,110.984 127.175,112.137 127.175 C 113.291 127.175,114.354 126.982,114.501 126.745 C 114.647 126.509,115.080 126.316,115.464 126.316 C 116.571 126.316,119.633 124.691,120.734 123.519 C 121.287 122.931,121.962 122.449,122.234 122.449 C 122.834 122.449,124.597 120.635,124.597 120.017 C 124.597 119.774,124.984 119.225,125.456 118.797 C 125.929 118.369,126.316 117.848,126.316 117.638 C 126.316 117.429,126.695 116.850,127.158 116.353 C 127.622 115.856,128.127 114.605,128.282 113.573 C 128.437 112.541,128.734 111.592,128.943 111.462 C 129.447 111.151,129.436 101.946,128.931 101.634 C 128.715 101.501,128.407 100.613,128.246 99.661 C 127.910 97.673,127.013 95.709,126.092 94.944 C 125.742 94.654,125.456 94.239,125.456 94.021 C 125.456 93.411,122.378 90.226,121.788 90.226 C 121.501 90.226,121.032 89.944,120.746 89.600 C 120.461 89.256,118.745 88.241,116.934 87.345 L 113.641 85.714 108.212 85.728 C 104.265 85.739,102.590 85.903,102.074 86.331 C 101.459 86.842,101.208 86.769,100.176 85.780 C 99.522 85.153,98.833 84.640,98.645 84.640 C 98.457 84.640,97.762 84.060,97.100 83.351 C 96.438 82.642,95.707 82.062,95.476 82.062 C 95.246 82.062,94.799 81.752,94.485 81.373 C 94.170 80.994,93.518 80.508,93.036 80.293 C 90.094 78.980,88.041 76.477,89.906 76.477 C 90.236 76.477,90.960 75.994,91.515 75.403 C 92.069 74.812,92.744 74.329,93.013 74.329 C 93.282 74.329,94.058 73.749,94.737 73.040 C 95.416 72.331,96.192 71.751,96.461 71.751 C 96.730 71.751,97.404 71.267,97.959 70.677 C 98.514 70.086,99.207 69.603,99.500 69.603 C 99.792 69.603,100.519 69.023,101.116 68.314 C 101.712 67.605,102.419 67.025,102.686 67.025 C 103.236 67.025,105.979 65.061,107.032 63.915 C 107.414 63.498,107.912 63.158,108.139 63.158 C 108.365 63.158,109.005 62.675,109.560 62.084 C 110.115 61.493,110.795 61.010,111.072 61.010 C 111.348 61.010,111.925 60.623,112.352 60.150 C 112.780 59.678,113.354 59.291,113.627 59.291 C 113.901 59.291,114.681 58.711,115.360 58.002 C 116.039 57.293,116.815 56.713,117.084 56.713 C 117.353 56.713,118.027 56.230,118.582 55.639 C 119.137 55.048,119.805 54.565,120.066 54.565 C 120.327 54.565,120.819 54.178,121.160 53.706 C 121.501 53.233,121.993 52.846,122.254 52.846 C 122.515 52.846,123.183 52.363,123.738 51.772 C 124.293 51.182,124.973 50.698,125.250 50.698 C 125.527 50.698,126.103 50.311,126.531 49.839 C 126.958 49.366,127.535 48.980,127.811 48.980 C 128.088 48.980,128.768 48.496,129.323 47.905 C 129.878 47.315,130.559 46.831,130.835 46.831 C 131.112 46.831,131.688 46.445,132.116 45.972 C 132.544 45.499,133.132 45.113,133.423 45.113 C 133.714 45.113,134.409 44.535,134.968 43.828 C 135.526 43.121,136.327 42.541,136.748 42.539 C 137.169 42.537,137.625 42.245,137.761 41.890 C 137.897 41.536,138.241 41.246,138.526 41.246 C 138.810 41.246,139.458 40.859,139.965 40.387 C 140.473 39.914,141.056 39.527,141.261 39.527 C 141.466 39.527,142.087 39.044,142.642 38.453 C 143.197 37.863,143.878 37.379,144.154 37.379 C 144.431 37.379,145.007 36.992,145.435 36.520 C 145.863 36.047,146.439 35.661,146.716 35.661 C 146.992 35.661,147.687 35.157,148.260 34.541 C 148.833 33.925,149.689 33.249,150.161 33.038 C 151.482 32.449,152.657 31.654,153.428 30.827 C 153.813 30.414,154.368 30.075,154.661 30.075 C 154.954 30.075,155.585 29.577,156.063 28.969 C 156.542 28.361,157.343 27.676,157.844 27.447 C 159.160 26.845,160.570 26.007,161.436 25.311 C 162.782 24.230,164.091 23.631,165.107 23.631 C 165.654 23.631,166.295 23.437,166.531 23.200 C 166.817 22.914,202.902 22.806,273.921 22.878 L 380.881 22.986 380.989 108.163 L 381.098 193.340 272.664 193.340 C 176.802 193.340,164.168 193.266,163.695 192.696 C 163.401 192.342,162.930 192.052,162.649 192.052 C 162.367 192.052,161.581 191.472,160.902 190.763 C 160.223 190.054,159.447 189.474,159.178 189.474 C 158.909 189.474,158.235 188.990,157.680 188.400 C 157.125 187.809,156.492 187.325,156.274 187.325 C 156.055 187.325,155.335 186.745,154.672 186.037 C 154.010 185.328,153.290 184.748,153.071 184.748 C 152.853 184.748,152.220 184.264,151.665 183.673 C 151.110 183.083,150.436 182.599,150.167 182.599 C 149.898 182.599,149.122 182.019,148.443 181.310 C 147.763 180.602,146.988 180.021,146.718 180.021 C 146.449 180.021,145.775 179.538,145.220 178.947 C 144.665 178.357,143.994 177.873,143.729 177.873 C 143.463 177.873,142.491 177.100,141.568 176.155 C 140.645 175.209,139.673 174.436,139.408 174.436 C 139.142 174.436,138.471 173.953,137.916 173.362 C 137.361 172.771,136.728 172.288,136.510 172.288 C 136.291 172.288,135.571 171.708,134.909 170.999 C 134.246 170.290,133.526 169.710,133.307 169.710 C 133.089 169.710,132.456 169.227,131.901 168.636 C 131.346 168.045,130.672 167.562,130.403 167.562 C 130.134 167.562,129.358 166.982,128.679 166.273 C 128.000 165.564,127.224 164.984,126.955 164.984 C 126.686 164.984,126.011 164.501,125.456 163.910 C 124.902 163.319,124.227 162.836,123.958 162.836 C 123.689 162.836,122.913 162.256,122.234 161.547 C 121.555 160.838,120.779 160.258,120.510 160.258 C 120.241 160.258,119.567 159.774,119.012 159.184 C 118.457 158.593,117.824 158.110,117.606 158.110 C 117.387 158.110,116.667 157.530,116.004 156.821 C 115.342 156.112,114.622 155.532,114.403 155.532 C 114.185 155.532,113.552 155.048,112.997 154.458 C 112.442 153.867,111.768 153.383,111.499 153.383 C 111.229 153.383,110.454 152.803,109.774 152.095 C 109.095 151.386,108.324 150.806,108.060 150.806 C 107.796 150.806,106.924 150.129,106.122 149.302 C 105.321 148.475,104.449 147.798,104.185 147.798 C 103.921 147.798,103.150 147.218,102.470 146.509 C 101.791 145.800,101.015 145.220,100.746 145.220 C 100.477 145.220,99.803 144.737,99.248 144.146 C 98.693 143.555,98.060 143.072,97.842 143.072 C 97.623 143.072,96.903 142.492,96.241 141.783 C 95.578 141.074,94.858 140.494,94.639 140.494 C 94.421 140.494,93.788 140.011,93.233 139.420 C 92.678 138.829,92.004 138.346,91.735 138.346 C 91.466 138.346,90.690 137.766,90.011 137.057 C 89.332 136.348,88.556 135.768,88.287 135.768 C 88.018 135.768,87.343 135.285,86.788 134.694 C 86.233 134.103,85.559 133.620,85.290 133.620 C 85.021 133.620,84.245 133.040,83.566 132.331 C 82.887 131.622,82.111 131.042,81.842 131.042 C 81.573 131.042,80.899 130.559,80.344 129.968 C 79.789 129.377,79.185 128.894,79.003 128.894 C 78.417 128.894,71.751 121.931,71.751 121.319 C 71.751 120.995,71.580 120.730,71.371 120.730 C 71.163 120.730,70.875 120.392,70.732 119.979 C 69.845 117.412,63.800 112.997,61.174 112.997 C 60.862 112.997,59.918 112.610,59.076 112.137 C 58.235 111.665,57.166 111.278,56.700 111.278 C 56.235 111.278,55.854 111.103,55.854 110.889 C 55.854 110.675,54.887 110.367,53.706 110.204 C 52.525 110.042,51.450 109.734,51.318 109.519 C 51.185 109.305,50.605 109.130,50.028 109.130 C 48.907 109.130,48.353 114.707,49.409 115.360 C 49.646 115.506,49.839 116.279,49.839 117.078 C 49.839 117.878,50.010 118.637,50.220 118.767 C 50.429 118.896,50.727 119.729,50.881 120.618 C 51.170 122.291,52.817 125.992,53.383 126.244 C 53.561 126.323,53.706 126.758,53.706 127.211 C 53.706 127.664,53.876 128.034,54.085 128.034 C 54.294 128.034,54.587 128.373,54.737 128.786 C 55.124 129.859,56.029 131.337,56.859 132.254 C 57.251 132.688,57.573 133.224,57.573 133.446 C 57.573 134.004,66.717 143.072,67.279 143.072 C 67.529 143.072,68.188 143.555,68.743 144.146 C 69.298 144.737,69.931 145.220,70.150 145.220 C 70.368 145.220,71.089 145.800,71.751 146.509 C 72.413 147.218,73.134 147.798,73.352 147.798 C 73.571 147.798,74.203 148.281,74.758 148.872 C 75.313 149.463,75.988 149.946,76.257 149.946 C 76.526 149.946,77.301 150.526,77.981 151.235 C 78.660 151.944,79.436 152.524,79.705 152.524 C 79.974 152.524,80.648 153.008,81.203 153.598 C 81.758 154.189,82.432 154.672,82.701 154.672 C 82.970 154.672,83.746 155.252,84.425 155.961 C 85.105 156.670,85.880 157.250,86.149 157.250 C 86.418 157.250,87.093 157.734,87.648 158.324 C 88.203 158.915,88.891 159.398,89.178 159.398 C 89.465 159.398,90.156 159.977,90.714 160.684 C 91.273 161.390,92.022 161.970,92.379 161.972 C 92.737 161.975,93.392 162.460,93.836 163.050 C 94.279 163.641,94.866 164.125,95.139 164.125 C 95.413 164.125,96.392 164.898,97.315 165.843 C 98.238 166.788,99.210 167.562,99.475 167.562 C 99.741 167.562,100.412 168.045,100.967 168.636 C 101.522 169.227,102.196 169.710,102.465 169.710 C 102.734 169.710,103.510 170.290,104.189 170.999 C 104.868 171.708,105.644 172.288,105.913 172.288 C 106.182 172.288,106.856 172.771,107.411 173.362 C 107.966 173.953,108.599 174.436,108.818 174.436 C 109.036 174.436,109.757 175.016,110.419 175.725 C 111.081 176.434,111.802 177.014,112.020 177.014 C 112.239 177.014,112.871 177.497,113.426 178.088 C 113.981 178.679,114.656 179.162,114.925 179.162 C 115.194 179.162,115.970 179.742,116.649 180.451 C 117.328 181.160,118.104 181.740,118.373 181.740 C 118.642 181.740,119.316 182.223,119.871 182.814 C 120.426 183.405,121.100 183.888,121.369 183.888 C 121.638 183.888,122.414 184.468,123.093 185.177 C 123.773 185.886,124.548 186.466,124.818 186.466 C 125.087 186.466,125.761 186.950,126.316 187.540 C 126.871 188.131,127.559 188.614,127.846 188.614 C 128.133 188.614,128.824 189.193,129.382 189.899 C 129.941 190.606,130.660 191.186,130.980 191.188 C 131.301 191.191,131.943 191.676,132.408 192.266 C 132.872 192.857,133.489 193.340,133.779 193.340 C 134.068 193.340,135.060 194.114,135.983 195.059 C 136.906 196.004,137.878 196.778,138.143 196.778 C 138.409 196.778,139.080 197.261,139.635 197.852 C 140.190 198.443,140.864 198.926,141.133 198.926 C 141.402 198.926,142.178 199.506,142.857 200.215 C 143.536 200.924,144.312 201.504,144.581 201.504 C 144.850 201.504,145.524 201.987,146.079 202.578 C 146.634 203.169,147.267 203.652,147.486 203.652 C 147.704 203.652,148.425 204.232,149.087 204.941 C 149.749 205.650,150.474 206.230,150.697 206.230 C 150.920 206.230,151.449 206.613,151.873 207.081 C 152.785 208.089,158.435 210.956,159.510 210.956 C 159.921 210.956,160.258 211.149,160.258 211.386 C 160.258 211.671,197.995 211.815,272.610 211.815 C 347.225 211.815,384.962 211.671,384.962 211.386 C 384.962 211.149,385.504 210.956,386.167 210.956 C 389.274 210.956,395.816 205.638,397.574 201.683 C 397.986 200.758,398.507 199.664,398.732 199.254 C 398.957 198.844,399.141 197.925,399.141 197.213 C 399.141 196.501,399.334 195.918,399.570 195.918 C 400.119 195.918,400.169 20.514,399.620 19.436 C 398.830 17.882,398.323 16.497,398.071 15.205 C 397.927 14.471,397.239 13.323,396.542 12.655 C 395.845 11.986,395.274 11.269,395.274 11.060 C 395.274 10.561,394.155 9.452,393.653 9.452 C 393.436 9.452,392.913 9.070,392.490 8.602 C 391.402 7.401,387.598 5.585,386.167 5.585 C 385.504 5.585,384.962 5.392,384.962 5.156 C 384.962 4.870,347.225 4.726,272.610 4.726 C 197.995 4.726,160.258 4.870,160.258 5.156 M290.594 55.161 C 289.154 55.961,288.238 56.816,287.799 57.770 C 287.185 59.105,286.351 60.492,285.658 61.329 C 285.314 61.744,284.752 62.664,284.410 63.373 C 284.067 64.082,283.495 64.954,283.139 65.312 C 282.357 66.098,281.683 67.172,280.713 69.173 C 280.313 70.000,279.696 71.016,279.343 71.432 C 278.649 72.248,278.041 73.270,276.852 75.618 C 276.434 76.445,275.743 77.434,275.317 77.816 C 274.892 78.198,274.544 78.827,274.544 79.213 C 274.544 79.598,274.373 79.914,274.164 79.914 C 273.955 79.914,273.662 80.252,273.513 80.666 C 273.160 81.640,272.268 83.147,271.479 84.100 C 271.136 84.515,270.581 85.435,270.247 86.144 C 269.913 86.853,269.358 87.773,269.015 88.188 C 268.226 89.141,267.334 90.648,266.981 91.622 C 266.832 92.035,266.539 92.374,266.330 92.374 C 266.121 92.374,265.951 92.640,265.951 92.966 C 265.951 93.291,265.651 93.806,265.285 94.110 C 264.919 94.414,264.230 95.453,263.754 96.418 C 262.487 98.989,261.878 100.007,261.079 100.890 C 260.686 101.324,260.365 101.905,260.365 102.182 C 260.365 102.459,260.172 102.685,259.936 102.685 C 259.699 102.685,259.506 103.025,259.506 103.441 C 259.506 103.857,259.119 104.439,258.647 104.734 C 258.174 105.029,257.787 105.545,257.787 105.881 C 257.787 106.216,257.538 106.746,257.234 107.058 C 256.930 107.371,256.344 108.343,255.934 109.219 C 255.523 110.095,254.998 110.929,254.767 111.071 C 254.537 111.214,253.958 112.140,253.482 113.130 C 252.379 115.424,251.725 116.473,250.891 117.287 C 250.525 117.645,249.882 118.614,249.463 119.441 C 248.275 121.789,247.667 122.811,246.973 123.628 C 246.620 124.043,246.003 125.099,245.603 125.975 C 245.203 126.851,244.681 127.688,244.443 127.835 C 244.206 127.982,243.609 128.957,243.118 130.002 C 242.627 131.046,242.053 131.901,241.843 131.901 C 241.633 131.901,241.461 132.168,241.461 132.493 C 241.461 132.819,241.161 133.334,240.795 133.637 C 240.429 133.941,239.740 134.980,239.264 135.946 C 237.997 138.517,237.389 139.534,236.589 140.418 C 236.197 140.851,235.875 141.433,235.875 141.709 C 235.875 141.986,235.682 142.213,235.446 142.213 C 235.209 142.213,235.016 142.599,235.016 143.072 C 235.016 143.545,234.832 143.931,234.607 143.931 C 234.381 143.931,233.866 144.656,233.460 145.542 C 233.055 146.429,232.445 147.483,232.103 147.885 C 227.587 153.208,229.931 161.976,235.870 161.976 C 236.345 161.976,236.735 162.170,236.735 162.406 C 236.735 162.642,237.411 162.836,238.238 162.836 C 239.066 162.836,239.742 162.642,239.742 162.406 C 239.742 162.170,240.129 161.976,240.602 161.976 C 241.074 161.976,241.461 161.783,241.461 161.547 C 241.461 161.310,241.695 161.117,241.982 161.117 C 242.684 161.117,246.187 157.643,246.187 156.946 C 246.187 156.641,246.380 156.391,246.617 156.391 C 246.853 156.391,247.046 156.165,247.046 155.888 C 247.046 155.611,247.367 155.030,247.760 154.596 C 248.525 153.750,249.124 152.759,250.309 150.376 C 250.721 149.549,251.346 148.533,251.699 148.117 C 252.393 147.301,253.001 146.279,254.189 143.931 C 254.608 143.104,255.261 142.137,255.639 141.783 C 256.018 141.429,256.670 140.462,257.089 139.635 C 258.256 137.328,258.880 136.273,259.563 135.449 C 259.906 135.034,260.469 134.114,260.813 133.405 C 261.158 132.696,261.778 131.741,262.191 131.283 C 262.605 130.825,262.943 130.307,262.943 130.132 C 262.943 129.957,263.185 129.559,263.480 129.247 C 263.776 128.934,264.299 128.099,264.643 127.390 C 264.987 126.681,265.550 125.761,265.894 125.346 C 266.637 124.448,267.298 123.310,268.522 120.816 C 269.021 119.800,269.709 118.861,270.053 118.730 C 270.396 118.598,270.677 118.124,270.677 117.677 C 270.677 117.230,270.870 116.864,271.106 116.864 C 271.343 116.864,271.536 116.498,271.536 116.050 C 271.536 115.603,271.826 115.126,272.180 114.990 C 272.535 114.854,272.825 114.470,272.825 114.137 C 272.825 113.804,273.118 113.288,273.477 112.990 C 273.836 112.692,274.449 111.750,274.838 110.897 C 275.228 110.043,275.836 109.005,276.189 108.590 C 276.979 107.660,277.877 106.156,278.239 105.156 C 278.388 104.742,278.681 104.404,278.890 104.404 C 279.099 104.404,279.270 104.088,279.270 103.702 C 279.270 103.317,279.618 102.688,280.043 102.306 C 280.469 101.924,281.160 100.934,281.579 100.107 C 282.746 97.801,283.370 96.746,284.052 95.921 C 284.396 95.506,284.954 94.586,285.292 93.878 C 285.631 93.169,286.350 92.009,286.891 91.300 C 288.443 89.267,288.473 89.221,289.133 87.863 C 289.477 87.154,290.040 86.234,290.384 85.819 C 291.117 84.933,291.780 83.795,292.970 81.381 C 293.446 80.415,294.135 79.376,294.501 79.072 C 294.867 78.769,295.166 78.320,295.166 78.076 C 295.166 77.832,295.650 76.998,296.241 76.224 C 296.831 75.449,297.315 74.633,297.315 74.410 C 297.315 74.187,297.614 73.756,297.980 73.452 C 298.347 73.148,299.014 72.092,299.463 71.106 C 299.912 70.120,300.567 69.075,300.918 68.784 C 301.269 68.493,301.680 67.690,301.831 67.000 C 301.983 66.310,302.285 65.635,302.504 65.501 C 304.720 64.131,302.125 57.007,298.717 55.102 C 297.511 54.428,291.839 54.469,290.594 55.161 M225.349 55.854 C 225.203 56.090,224.784 56.284,224.418 56.284 C 220.023 56.284,210.526 66.121,210.526 70.674 C 210.526 71.172,210.285 71.821,209.989 72.116 C 209.262 72.843,209.220 93.904,209.944 95.423 C 211.066 97.781,213.653 102.973,214.183 103.933 C 214.829 105.103,218.072 108.271,218.624 108.271 C 218.823 108.271,219.339 108.660,219.770 109.136 C 220.201 109.613,221.298 110.121,222.209 110.267 C 223.119 110.413,223.968 110.700,224.095 110.905 C 224.222 111.110,224.798 111.278,225.374 111.278 C 225.951 111.278,226.423 111.472,226.423 111.708 C 226.423 111.950,227.641 112.137,229.216 112.137 C 230.791 112.137,232.009 112.325,232.009 112.567 C 232.009 112.803,232.674 112.997,233.487 112.997 C 234.300 112.997,235.085 112.803,235.231 112.567 C 235.377 112.331,236.440 112.137,237.594 112.137 C 238.748 112.137,239.811 111.944,239.957 111.708 C 240.103 111.472,240.888 111.278,241.701 111.278 C 242.514 111.278,243.179 111.100,243.179 110.883 C 243.179 110.665,243.739 110.364,244.424 110.214 C 245.108 110.064,246.008 109.565,246.424 109.106 C 246.839 108.646,247.398 108.271,247.666 108.271 C 248.263 108.271,252.071 104.453,252.868 103.056 C 253.187 102.498,253.793 101.316,254.215 100.430 C 254.637 99.544,255.130 98.818,255.311 98.818 C 255.491 98.818,255.639 98.347,255.639 97.770 C 255.639 97.193,255.832 96.601,256.069 96.455 C 256.305 96.309,256.498 95.536,256.498 94.737 C 256.498 93.938,256.692 93.164,256.928 93.018 C 257.192 92.855,257.358 89.362,257.358 83.970 C 257.358 78.402,257.200 75.188,256.928 75.188 C 256.692 75.188,256.498 74.523,256.498 73.710 C 256.498 72.896,256.305 72.112,256.069 71.966 C 255.832 71.820,255.639 71.240,255.639 70.677 C 255.639 70.114,255.446 69.534,255.209 69.388 C 254.973 69.242,254.780 68.650,254.780 68.073 C 254.780 67.497,254.596 67.025,254.370 67.025 C 254.145 67.025,253.632 66.300,253.229 65.414 C 252.508 63.824,248.484 59.291,247.795 59.291 C 247.600 59.291,247.025 58.904,246.518 58.432 C 246.010 57.959,245.342 57.573,245.032 57.573 C 244.722 57.573,244.468 57.397,244.468 57.183 C 244.468 56.969,243.502 56.661,242.321 56.498 C 241.139 56.336,240.065 56.028,239.932 55.814 C 239.597 55.272,225.685 55.310,225.349 55.854 M234.773 71.740 C 235.379 71.971,235.875 72.454,235.875 72.814 C 235.875 73.175,236.069 73.469,236.305 73.469 C 236.541 73.469,236.735 74.521,236.735 75.807 C 236.735 77.093,236.928 78.264,237.164 78.410 C 237.412 78.563,237.594 80.841,237.594 83.781 C 237.594 86.721,237.412 88.999,237.164 89.151 C 236.928 89.297,236.735 90.276,236.735 91.325 C 236.735 92.374,236.541 93.233,236.305 93.233 C 236.069 93.233,235.875 93.693,235.875 94.255 C 235.875 96.839,231.584 97.040,230.140 94.522 C 229.076 92.666,228.744 75.703,229.753 74.694 C 230.048 74.399,230.290 73.706,230.290 73.155 C 230.290 71.619,232.566 70.901,234.773 71.740 M295.166 102.256 C 295.166 102.492,294.308 102.685,293.258 102.685 C 292.209 102.685,291.231 102.879,291.085 103.115 C 290.939 103.351,290.347 103.545,289.771 103.545 C 289.194 103.545,288.722 103.723,288.722 103.940 C 288.722 104.158,288.162 104.459,287.477 104.609 C 286.793 104.759,285.893 105.258,285.477 105.717 C 285.062 106.176,284.500 106.552,284.228 106.552 C 283.619 106.552,280.988 109.218,280.988 109.836 C 280.988 110.083,280.602 110.636,280.129 111.063 C 279.656 111.491,279.270 112.101,279.270 112.419 C 279.270 112.737,279.076 112.997,278.840 112.997 C 278.604 112.997,278.410 113.367,278.410 113.820 C 278.410 114.273,278.198 114.715,277.938 114.801 C 277.679 114.888,277.363 115.875,277.237 116.995 C 277.111 118.115,276.840 119.135,276.635 119.262 C 276.430 119.389,276.262 120.049,276.262 120.730 C 276.262 121.411,276.069 122.088,275.832 122.234 C 275.571 122.396,275.403 125.667,275.403 130.612 C 275.403 135.557,275.571 138.828,275.832 138.990 C 276.069 139.136,276.262 139.910,276.262 140.709 C 276.262 141.508,276.430 142.266,276.635 142.393 C 276.841 142.519,277.127 143.364,277.272 144.269 C 277.575 146.164,278.572 148.330,279.493 149.094 C 279.843 149.385,280.129 149.846,280.129 150.120 C 280.129 151.007,285.009 155.342,287.218 156.419 C 288.400 156.994,289.431 157.610,289.509 157.787 C 289.588 157.965,290.081 158.110,290.605 158.110 C 291.129 158.110,291.799 158.351,292.094 158.647 C 292.480 159.033,294.613 159.184,299.677 159.184 C 304.741 159.184,306.875 159.033,307.261 158.647 C 307.556 158.351,308.128 158.110,308.531 158.110 C 309.503 158.110,312.726 156.421,314.067 155.209 C 314.655 154.678,315.292 154.243,315.482 154.243 C 316.017 154.243,317.938 152.197,317.938 151.627 C 317.938 151.349,318.289 150.809,318.719 150.426 C 319.149 150.044,319.635 149.441,319.798 149.087 C 319.962 148.733,320.466 147.863,320.919 147.154 C 321.371 146.445,321.756 145.441,321.773 144.923 C 321.790 144.406,321.998 143.862,322.234 143.716 C 322.470 143.570,322.664 142.894,322.664 142.213 C 322.664 141.532,322.857 140.855,323.093 140.709 C 323.330 140.563,323.523 139.306,323.523 137.916 C 323.523 136.526,323.716 135.270,323.953 135.124 C 324.189 134.977,324.382 133.237,324.382 131.257 C 324.382 129.276,324.189 127.536,323.953 127.390 C 323.716 127.244,323.523 125.794,323.523 124.168 C 323.523 122.541,323.330 121.091,323.093 120.945 C 322.857 120.799,322.664 120.150,322.664 119.502 C 322.664 118.217,321.783 116.013,321.267 116.008 C 321.090 116.006,320.945 115.800,320.945 115.551 C 320.945 114.586,319.247 111.443,318.189 110.451 C 317.578 109.879,317.078 109.154,317.078 108.840 C 317.078 108.527,316.825 108.271,316.514 108.271 C 316.204 108.271,315.395 107.691,314.715 106.982 C 314.036 106.273,313.250 105.693,312.969 105.693 C 312.688 105.693,312.217 105.403,311.923 105.048 C 311.628 104.694,310.928 104.404,310.366 104.404 C 309.804 104.404,309.343 104.259,309.341 104.082 C 309.335 103.494,307.049 102.685,305.392 102.685 C 304.494 102.685,303.759 102.492,303.759 102.256 C 303.759 101.998,302.041 101.826,299.463 101.826 C 296.885 101.826,295.166 101.998,295.166 102.256 M301.820 119.764 C 302.054 120.295,302.392 120.730,302.572 120.730 C 302.753 120.730,302.900 121.396,302.900 122.209 C 302.900 123.022,303.093 123.807,303.330 123.953 C 303.586 124.111,303.759 126.893,303.759 130.852 C 303.759 134.989,303.598 137.487,303.330 137.487 C 303.093 137.487,302.886 138.115,302.869 138.883 C 302.728 145.158,296.138 144.143,296.057 137.834 C 296.040 136.489,295.832 135.270,295.596 135.124 C 295.354 134.974,295.166 132.908,295.166 130.397 C 295.166 127.887,295.354 125.821,295.596 125.671 C 295.832 125.525,296.026 124.432,296.026 123.242 C 296.026 119.142,300.397 116.519,301.820 119.764 " stroke="none" fill="#000000" fill-rule="evenodd"></path><path id="path1" d="M0.000 34.372 C 0.000 57.000,0.147 68.743,0.430 68.743 C 0.666 68.743,0.859 68.193,0.859 67.520 C 0.859 63.882,6.942 58.432,11.003 58.432 C 11.776 58.432,12.528 58.238,12.675 58.002 C 12.834 57.745,15.678 57.573,19.764 57.573 C 23.849 57.573,26.694 57.745,26.853 58.002 C 26.999 58.238,28.847 58.432,30.960 58.432 C 33.234 58.432,34.801 58.607,34.801 58.861 C 34.801 59.104,36.019 59.291,37.594 59.291 C 39.169 59.291,40.387 59.478,40.387 59.721 C 40.387 59.957,41.450 60.150,42.750 60.150 C 44.049 60.150,45.113 60.324,45.113 60.536 C 45.113 60.749,46.466 61.058,48.120 61.224 C 49.774 61.391,51.128 61.700,51.128 61.913 C 51.128 62.125,51.793 62.299,52.606 62.299 C 53.419 62.299,54.204 62.492,54.350 62.728 C 54.496 62.965,55.281 63.158,56.094 63.158 C 56.907 63.158,57.573 63.351,57.573 63.588 C 57.573 63.824,58.044 64.017,58.621 64.017 C 59.198 64.017,59.790 64.211,59.936 64.447 C 60.082 64.683,60.662 64.876,61.224 64.876 C 61.787 64.876,62.367 65.070,62.513 65.306 C 62.659 65.542,63.214 65.736,63.746 65.736 C 64.277 65.736,65.088 66.020,65.546 66.367 C 66.005 66.714,66.804 67.004,67.322 67.011 C 67.839 67.019,68.382 67.218,68.528 67.454 C 69.156 68.470,71.571 67.895,73.040 66.380 C 73.841 65.553,74.713 64.876,74.977 64.876 C 75.241 64.876,76.013 64.296,76.692 63.588 C 77.371 62.879,78.074 62.299,78.254 62.299 C 78.434 62.299,79.102 61.815,79.740 61.224 C 80.377 60.634,81.083 60.150,81.308 60.150 C 81.533 60.150,82.259 59.570,82.922 58.861 C 83.584 58.153,84.304 57.573,84.523 57.573 C 84.741 57.573,85.374 57.089,85.929 56.498 C 86.484 55.908,87.158 55.424,87.427 55.424 C 87.696 55.424,88.472 54.844,89.151 54.135 C 89.831 53.426,90.606 52.846,90.876 52.846 C 91.145 52.846,91.819 52.363,92.374 51.772 C 92.929 51.182,93.622 50.698,93.914 50.698 C 94.207 50.698,94.934 50.118,95.530 49.409 C 96.127 48.700,96.916 48.120,97.283 48.120 C 97.651 48.120,98.193 47.734,98.489 47.261 C 98.784 46.788,99.260 46.402,99.547 46.402 C 99.834 46.402,100.552 45.918,101.142 45.328 C 101.733 44.737,102.385 44.253,102.591 44.253 C 102.797 44.253,103.434 43.750,104.007 43.134 C 104.580 42.518,105.435 41.833,105.908 41.612 C 107.555 40.840,108.740 40.070,109.774 39.098 C 110.752 38.179,111.928 37.397,113.426 36.671 C 113.781 36.499,114.583 35.814,115.210 35.150 C 115.836 34.486,116.532 33.942,116.755 33.942 C 116.978 33.942,117.510 33.555,117.938 33.083 C 118.365 32.610,118.942 32.223,119.218 32.223 C 119.495 32.223,120.175 31.740,120.730 31.149 C 121.285 30.559,121.966 30.075,122.242 30.075 C 122.519 30.075,123.095 29.689,123.523 29.216 C 123.951 28.743,124.527 28.357,124.804 28.357 C 125.080 28.357,125.761 27.873,126.316 27.282 C 126.871 26.692,127.580 26.208,127.891 26.208 C 128.202 26.208,128.698 25.822,128.993 25.349 C 129.289 24.876,129.822 24.488,130.179 24.486 C 130.535 24.484,131.268 23.923,131.808 23.240 C 132.347 22.557,133.266 21.878,133.849 21.732 C 134.432 21.586,134.909 21.276,134.909 21.044 C 134.909 20.813,135.169 20.623,135.487 20.623 C 135.804 20.623,136.414 20.236,136.842 19.764 C 137.270 19.291,137.846 18.904,138.123 18.904 C 138.399 18.904,139.080 18.421,139.635 17.830 C 140.190 17.240,140.870 16.756,141.147 16.756 C 141.424 16.756,142.000 16.369,142.427 15.897 C 142.855 15.424,143.464 15.038,143.779 15.038 C 144.095 15.038,144.595 14.651,144.890 14.178 C 145.185 13.706,145.680 13.319,145.989 13.319 C 146.297 13.319,146.998 12.836,147.546 12.245 C 148.093 11.654,148.815 11.171,149.149 11.171 C 149.483 11.171,150.035 10.784,150.376 10.311 C 150.717 9.839,151.213 9.452,151.478 9.452 C 151.744 9.452,152.311 9.066,152.739 8.593 C 153.167 8.120,153.753 7.734,154.042 7.734 C 154.331 7.734,154.808 7.444,155.102 7.089 C 155.396 6.735,156.097 6.445,156.658 6.445 C 157.220 6.445,157.680 6.251,157.680 6.015 C 157.680 5.779,158.260 5.585,158.969 5.585 C 159.678 5.585,160.258 5.392,160.258 5.156 C 160.258 4.870,197.995 4.726,272.610 4.726 C 347.225 4.726,384.962 4.870,384.962 5.156 C 384.962 5.392,385.504 5.585,386.167 5.585 C 387.598 5.585,391.402 7.401,392.490 8.602 C 392.913 9.070,393.436 9.452,393.653 9.452 C 394.155 9.452,395.274 10.561,395.274 11.060 C 395.274 11.269,395.858 11.999,396.572 12.683 C 397.386 13.463,397.968 14.538,398.132 15.566 C 398.276 16.467,398.562 17.309,398.767 17.436 C 398.973 17.562,399.141 18.030,399.141 18.475 C 399.141 18.919,399.334 19.403,399.570 19.549 C 399.852 19.723,400.000 16.403,400.000 9.907 L 400.000 0.000 200.000 0.000 L 0.000 0.000 0.000 34.372 M166.488 23.200 C 166.342 23.437,165.748 23.631,165.168 23.631 C 164.097 23.631,162.803 24.213,161.436 25.311 C 160.570 26.007,159.160 26.845,157.844 27.447 C 157.343 27.676,156.542 28.361,156.063 28.969 C 155.585 29.577,154.954 30.075,154.661 30.075 C 154.368 30.075,153.813 30.414,153.428 30.827 C 152.657 31.654,151.482 32.449,150.161 33.038 C 149.689 33.249,148.833 33.925,148.260 34.541 C 147.687 35.157,146.992 35.661,146.716 35.661 C 146.439 35.661,145.863 36.047,145.435 36.520 C 145.007 36.992,144.431 37.379,144.154 37.379 C 143.878 37.379,143.197 37.863,142.642 38.453 C 142.087 39.044,141.466 39.527,141.261 39.527 C 141.056 39.527,140.473 39.914,139.965 40.387 C 139.458 40.859,138.810 41.246,138.526 41.246 C 138.241 41.246,137.897 41.536,137.761 41.890 C 137.625 42.245,137.169 42.537,136.748 42.539 C 136.327 42.541,135.526 43.121,134.968 43.828 C 134.409 44.535,133.714 45.113,133.423 45.113 C 133.132 45.113,132.544 45.499,132.116 45.972 C 131.688 46.445,131.112 46.831,130.835 46.831 C 130.559 46.831,129.878 47.315,129.323 47.905 C 128.768 48.496,128.088 48.980,127.811 48.980 C 127.535 48.980,126.958 49.366,126.531 49.839 C 126.103 50.311,125.527 50.698,125.250 50.698 C 124.973 50.698,124.293 51.182,123.738 51.772 C 123.183 52.363,122.515 52.846,122.254 52.846 C 121.993 52.846,121.501 53.233,121.160 53.706 C 120.819 54.178,120.327 54.565,120.066 54.565 C 119.805 54.565,119.137 55.048,118.582 55.639 C 118.027 56.230,117.353 56.713,117.084 56.713 C 116.815 56.713,116.039 57.293,115.360 58.002 C 114.681 58.711,113.901 59.291,113.627 59.291 C 113.354 59.291,112.780 59.678,112.352 60.150 C 111.925 60.623,111.348 61.010,111.072 61.010 C 110.795 61.010,110.115 61.493,109.560 62.084 C 109.005 62.675,108.365 63.158,108.139 63.158 C 107.912 63.158,107.414 63.498,107.032 63.915 C 105.979 65.061,103.236 67.025,102.686 67.025 C 102.419 67.025,101.712 67.605,101.116 68.314 C 100.519 69.023,99.792 69.603,99.500 69.603 C 99.207 69.603,98.514 70.086,97.959 70.677 C 97.404 71.267,96.730 71.751,96.461 71.751 C 96.192 71.751,95.416 72.331,94.737 73.040 C 94.058 73.749,93.282 74.329,93.013 74.329 C 92.744 74.329,92.069 74.812,91.515 75.403 C 90.960 75.994,90.236 76.477,89.906 76.477 C 88.041 76.477,90.094 78.980,93.036 80.293 C 93.518 80.508,94.170 80.994,94.485 81.373 C 94.799 81.752,95.246 82.062,95.476 82.062 C 95.707 82.062,96.438 82.642,97.100 83.351 C 97.762 84.060,98.457 84.640,98.645 84.640 C 98.833 84.640,99.522 85.153,100.176 85.780 C 101.208 86.769,101.459 86.842,102.074 86.331 C 102.590 85.903,104.265 85.739,108.212 85.728 L 113.641 85.714 116.934 87.345 C 118.745 88.241,120.461 89.256,120.746 89.600 C 121.032 89.944,121.501 90.226,121.788 90.226 C 122.378 90.226,125.456 93.411,125.456 94.021 C 125.456 94.239,125.742 94.654,126.092 94.944 C 127.013 95.709,127.910 97.673,128.246 99.661 C 128.407 100.613,128.715 101.501,128.931 101.634 C 129.436 101.946,129.447 111.151,128.943 111.462 C 128.734 111.592,128.437 112.541,128.282 113.573 C 128.127 114.605,127.622 115.856,127.158 116.353 C 126.695 116.850,126.316 117.429,126.316 117.638 C 126.316 117.848,125.929 118.369,125.456 118.797 C 124.984 119.225,124.597 119.801,124.597 120.078 C 124.597 120.680,122.789 122.449,122.174 122.449 C 121.935 122.449,121.287 122.931,120.734 123.519 C 119.633 124.691,116.571 126.316,115.464 126.316 C 115.080 126.316,114.647 126.509,114.501 126.745 C 114.354 126.982,113.291 127.175,112.137 127.175 C 110.984 127.175,109.920 127.368,109.774 127.605 C 109.628 127.841,108.844 128.034,108.030 128.034 C 107.217 128.034,106.552 127.841,106.552 127.605 C 106.552 127.368,105.693 127.175,104.644 127.175 C 103.595 127.175,102.617 126.982,102.470 126.745 C 102.324 126.509,101.733 126.316,101.156 126.316 C 100.579 126.316,100.107 126.138,100.107 125.920 C 100.107 125.703,99.555 125.403,98.879 125.255 C 98.203 125.107,97.104 124.414,96.435 123.717 C 95.767 123.020,95.000 122.449,94.731 122.449 C 94.128 122.449,92.374 120.629,92.374 120.003 C 92.374 119.752,92.064 119.289,91.685 118.975 C 91.305 118.660,90.823 118.008,90.611 117.526 C 90.400 117.043,90.064 116.359,89.864 116.004 C 88.831 114.176,88.507 113.362,88.507 112.598 C 88.507 112.136,88.314 111.639,88.077 111.493 C 87.841 111.347,87.648 110.369,87.648 109.319 C 87.648 107.893,87.482 107.411,86.990 107.411 C 86.628 107.411,85.711 106.735,84.952 105.908 C 84.193 105.081,83.363 104.404,83.107 104.404 C 82.851 104.404,82.173 103.900,81.600 103.284 C 81.027 102.668,80.172 101.983,79.699 101.762 C 78.295 101.104,76.961 100.288,76.158 99.595 C 75.742 99.237,74.774 98.675,74.006 98.347 C 73.238 98.018,72.610 97.603,72.610 97.425 C 72.610 97.246,72.223 97.100,71.751 97.100 C 71.278 97.100,70.892 96.923,70.892 96.707 C 70.892 96.210,64.907 93.233,63.906 93.233 C 63.495 93.233,63.158 93.040,63.158 92.803 C 63.158 92.567,62.771 92.374,62.299 92.374 C 61.826 92.374,61.439 92.189,61.439 91.964 C 61.439 91.738,60.714 91.417,59.828 91.251 C 58.942 91.085,57.583 90.593,56.808 90.158 C 56.032 89.722,55.017 89.366,54.552 89.366 C 54.086 89.366,53.706 89.173,53.706 88.937 C 53.706 88.700,53.234 88.507,52.657 88.507 C 52.080 88.507,51.489 88.314,51.343 88.077 C 51.197 87.841,50.412 87.648,49.599 87.648 C 48.786 87.648,48.120 87.454,48.120 87.218 C 48.120 86.982,47.648 86.788,47.072 86.788 C 46.495 86.788,45.918 86.618,45.789 86.410 C 45.660 86.202,43.910 85.895,41.898 85.727 C 39.887 85.560,38.133 85.247,38.000 85.031 C 37.867 84.816,36.814 84.640,35.661 84.640 C 34.507 84.640,33.444 84.447,33.298 84.211 C 33.151 83.974,31.508 83.781,29.646 83.781 C 27.783 83.781,26.140 83.588,25.994 83.351 C 25.831 83.088,22.409 82.922,17.160 82.922 C 12.448 82.922,8.593 82.775,8.593 82.597 C 8.593 82.418,7.965 82.005,7.197 81.679 C 5.266 80.859,2.842 78.460,2.143 76.677 C 1.821 75.858,1.401 75.188,1.209 75.188 C 1.017 75.188,0.859 74.716,0.859 74.139 C 0.859 73.562,0.666 72.971,0.430 72.825 C 0.144 72.648,0.000 96.379,0.000 143.691 L 0.000 214.823 200.000 214.823 L 400.000 214.823 400.000 205.371 C 400.000 199.356,399.844 195.918,399.570 195.918 C 399.334 195.918,399.141 196.501,399.141 197.213 C 399.141 197.925,398.957 198.844,398.732 199.254 C 398.507 199.664,397.986 200.758,397.574 201.683 C 395.816 205.638,389.274 210.956,386.167 210.956 C 385.504 210.956,384.962 211.149,384.962 211.386 C 384.962 211.671,347.225 211.815,272.610 211.815 C 197.995 211.815,160.258 211.671,160.258 211.386 C 160.258 211.149,159.921 210.956,159.510 210.956 C 158.435 210.956,152.785 208.089,151.873 207.081 C 151.449 206.613,150.920 206.230,150.697 206.230 C 150.474 206.230,149.749 205.650,149.087 204.941 C 148.425 204.232,147.704 203.652,147.486 203.652 C 147.267 203.652,146.634 203.169,146.079 202.578 C 145.524 201.987,144.850 201.504,144.581 201.504 C 144.312 201.504,143.536 200.924,142.857 200.215 C 142.178 199.506,141.402 198.926,141.133 198.926 C 140.864 198.926,140.190 198.443,139.635 197.852 C 139.080 197.261,138.409 196.778,138.143 196.778 C 137.878 196.778,136.906 196.004,135.983 195.059 C 135.060 194.114,134.068 193.340,133.779 193.340 C 133.489 193.340,132.872 192.857,132.408 192.266 C 131.943 191.676,131.301 191.191,130.980 191.188 C 130.660 191.186,129.941 190.606,129.382 189.899 C 128.824 189.193,128.133 188.614,127.846 188.614 C 127.559 188.614,126.871 188.131,126.316 187.540 C 125.761 186.950,125.087 186.466,124.818 186.466 C 124.548 186.466,123.773 185.886,123.093 185.177 C 122.414 184.468,121.638 183.888,121.369 183.888 C 121.100 183.888,120.426 183.405,119.871 182.814 C 119.316 182.223,118.642 181.740,118.373 181.740 C 118.104 181.740,117.328 181.160,116.649 180.451 C 115.970 179.742,115.194 179.162,114.925 179.162 C 114.656 179.162,113.981 178.679,113.426 178.088 C 112.871 177.497,112.239 177.014,112.020 177.014 C 111.802 177.014,111.081 176.434,110.419 175.725 C 109.757 175.016,109.036 174.436,108.818 174.436 C 108.599 174.436,107.966 173.953,107.411 173.362 C 106.856 172.771,106.182 172.288,105.913 172.288 C 105.644 172.288,104.868 171.708,104.189 170.999 C 103.510 170.290,102.734 169.710,102.465 169.710 C 102.196 169.710,101.522 169.227,100.967 168.636 C 100.412 168.045,99.741 167.562,99.475 167.562 C 99.210 167.562,98.238 166.788,97.315 165.843 C 96.392 164.898,95.413 164.125,95.139 164.125 C 94.866 164.125,94.279 163.641,93.836 163.050 C 93.392 162.460,92.737 161.975,92.379 161.972 C 92.022 161.970,91.273 161.390,90.714 160.684 C 90.156 159.977,89.465 159.398,89.178 159.398 C 88.891 159.398,88.203 158.915,87.648 158.324 C 87.093 157.734,86.418 157.250,86.149 157.250 C 85.880 157.250,85.105 156.670,84.425 155.961 C 83.746 155.252,82.970 154.672,82.701 154.672 C 82.432 154.672,81.758 154.189,81.203 153.598 C 80.648 153.008,79.974 152.524,79.705 152.524 C 79.436 152.524,78.660 151.944,77.981 151.235 C 77.301 150.526,76.526 149.946,76.257 149.946 C 75.988 149.946,75.313 149.463,74.758 148.872 C 74.203 148.281,73.571 147.798,73.352 147.798 C 73.134 147.798,72.413 147.218,71.751 146.509 C 71.089 145.800,70.368 145.220,70.150 145.220 C 69.931 145.220,69.298 144.737,68.743 144.146 C 68.188 143.555,67.523 143.072,67.265 143.072 C 66.703 143.072,57.573 133.990,57.573 133.432 C 57.573 133.218,57.251 132.688,56.859 132.254 C 56.029 131.337,55.124 129.859,54.737 128.786 C 54.587 128.373,54.294 128.034,54.085 128.034 C 53.876 128.034,53.706 127.664,53.706 127.211 C 53.706 126.758,53.561 126.323,53.383 126.244 C 52.817 125.992,51.170 122.291,50.881 120.618 C 50.727 119.729,50.429 118.896,50.220 118.767 C 50.010 118.637,49.839 117.878,49.839 117.078 C 49.839 116.279,49.646 115.506,49.409 115.360 C 48.353 114.707,48.907 109.130,50.028 109.130 C 50.605 109.130,51.185 109.305,51.318 109.519 C 51.450 109.734,52.525 110.042,53.706 110.204 C 54.887 110.367,55.854 110.675,55.854 110.889 C 55.854 111.103,56.235 111.278,56.700 111.278 C 57.166 111.278,58.235 111.665,59.076 112.137 C 59.918 112.610,60.862 112.997,61.174 112.997 C 63.800 112.997,69.845 117.412,70.732 119.979 C 70.875 120.392,71.163 120.730,71.371 120.730 C 71.580 120.730,71.751 120.995,71.751 121.319 C 71.751 121.931,78.417 128.894,79.003 128.894 C 79.185 128.894,79.789 129.377,80.344 129.968 C 80.899 130.559,81.573 131.042,81.842 131.042 C 82.111 131.042,82.887 131.622,83.566 132.331 C 84.245 133.040,85.021 133.620,85.290 133.620 C 85.559 133.620,86.233 134.103,86.788 134.694 C 87.343 135.285,88.018 135.768,88.287 135.768 C 88.556 135.768,89.332 136.348,90.011 137.057 C 90.690 137.766,91.466 138.346,91.735 138.346 C 92.004 138.346,92.678 138.829,93.233 139.420 C 93.788 140.011,94.421 140.494,94.639 140.494 C 94.858 140.494,95.578 141.074,96.241 141.783 C 96.903 142.492,97.623 143.072,97.842 143.072 C 98.060 143.072,98.693 143.555,99.248 144.146 C 99.803 144.737,100.477 145.220,100.746 145.220 C 101.015 145.220,101.791 145.800,102.470 146.509 C 103.150 147.218,103.921 147.798,104.185 147.798 C 104.449 147.798,105.321 148.475,106.122 149.302 C 106.924 150.129,107.796 150.806,108.060 150.806 C 108.324 150.806,109.095 151.386,109.774 152.095 C 110.454 152.803,111.229 153.383,111.499 153.383 C 111.768 153.383,112.442 153.867,112.997 154.458 C 113.552 155.048,114.185 155.532,114.403 155.532 C 114.622 155.532,115.342 156.112,116.004 156.821 C 116.667 157.530,117.387 158.110,117.606 158.110 C 117.824 158.110,118.457 158.593,119.012 159.184 C 119.567 159.774,120.241 160.258,120.510 160.258 C 120.779 160.258,121.555 160.838,122.234 161.547 C 122.913 162.256,123.689 162.836,123.958 162.836 C 124.227 162.836,124.902 163.319,125.456 163.910 C 126.011 164.501,126.686 164.984,126.955 164.984 C 127.224 164.984,128.000 165.564,128.679 166.273 C 129.358 166.982,130.134 167.562,130.403 167.562 C 130.672 167.562,131.346 168.045,131.901 168.636 C 132.456 169.227,133.089 169.710,133.307 169.710 C 133.526 169.710,134.246 170.290,134.909 170.999 C 135.571 171.708,136.291 172.288,136.510 172.288 C 136.728 172.288,137.361 172.771,137.916 173.362 C 138.471 173.953,139.142 174.436,139.408 174.436 C 139.673 174.436,140.645 175.209,141.568 176.155 C 142.491 177.100,143.463 177.873,143.729 177.873 C 143.994 177.873,144.665 178.357,145.220 178.947 C 145.775 179.538,146.449 180.021,146.718 180.021 C 146.988 180.021,147.763 180.602,148.443 181.310 C 149.122 182.019,149.898 182.599,150.167 182.599 C 150.436 182.599,151.110 183.083,151.665 183.673 C 152.220 184.264,152.853 184.748,153.071 184.748 C 153.290 184.748,154.010 185.328,154.672 186.037 C 155.335 186.745,156.055 187.325,156.274 187.325 C 156.492 187.325,157.125 187.809,157.680 188.400 C 158.235 188.990,158.909 189.474,159.178 189.474 C 159.447 189.474,160.223 190.054,160.902 190.763 C 161.581 191.472,162.367 192.052,162.649 192.052 C 162.930 192.052,163.401 192.342,163.695 192.696 C 164.168 193.266,176.802 193.340,272.664 193.340 L 381.098 193.340 380.989 108.163 L 380.881 22.986 273.818 22.878 C 202.648 22.806,166.665 22.914,166.488 23.200 M298.717 55.102 C 302.125 57.007,304.720 64.131,302.504 65.501 C 302.285 65.635,301.983 66.310,301.831 67.000 C 301.680 67.690,301.269 68.493,300.918 68.784 C 300.567 69.075,299.912 70.120,299.463 71.106 C 299.014 72.092,298.347 73.148,297.980 73.452 C 297.614 73.756,297.315 74.187,297.315 74.410 C 297.315 74.633,296.831 75.449,296.241 76.224 C 295.650 76.998,295.166 77.832,295.166 78.076 C 295.166 78.320,294.867 78.769,294.501 79.072 C 294.135 79.376,293.446 80.415,292.970 81.381 C 291.780 83.795,291.117 84.933,290.384 85.819 C 290.040 86.234,289.477 87.154,289.133 87.863 C 288.473 89.221,288.443 89.267,286.891 91.300 C 286.350 92.009,285.631 93.169,285.292 93.878 C 284.954 94.586,284.396 95.506,284.052 95.921 C 283.370 96.746,282.746 97.801,281.579 100.107 C 281.160 100.934,280.469 101.924,280.043 102.306 C 279.618 102.688,279.270 103.317,279.270 103.702 C 279.270 104.088,279.099 104.404,278.890 104.404 C 278.681 104.404,278.388 104.742,278.239 105.156 C 277.877 106.156,276.979 107.660,276.189 108.590 C 275.836 109.005,275.228 110.043,274.838 110.897 C 274.449 111.750,273.836 112.692,273.477 112.990 C 273.118 113.288,272.825 113.804,272.825 114.137 C 272.825 114.470,272.535 114.854,272.180 114.990 C 271.826 115.126,271.536 115.603,271.536 116.050 C 271.536 116.498,271.343 116.864,271.106 116.864 C 270.870 116.864,270.677 117.230,270.677 117.677 C 270.677 118.124,270.396 118.598,270.053 118.730 C 269.709 118.861,269.021 119.800,268.522 120.816 C 267.298 123.310,266.637 124.448,265.894 125.346 C 265.550 125.761,264.987 126.681,264.643 127.390 C 264.299 128.099,263.776 128.934,263.480 129.247 C 263.185 129.559,262.943 129.957,262.943 130.132 C 262.943 130.307,262.605 130.825,262.191 131.283 C 261.778 131.741,261.158 132.696,260.813 133.405 C 260.469 134.114,259.906 135.034,259.563 135.449 C 258.880 136.273,258.256 137.328,257.089 139.635 C 256.670 140.462,256.018 141.429,255.639 141.783 C 255.261 142.137,254.608 143.104,254.189 143.931 C 253.001 146.279,252.393 147.301,251.699 148.117 C 251.346 148.533,250.721 149.549,250.309 150.376 C 249.124 152.759,248.525 153.750,247.760 154.596 C 247.367 155.030,247.046 155.611,247.046 155.888 C 247.046 156.165,246.853 156.391,246.617 156.391 C 246.380 156.391,246.187 156.641,246.187 156.946 C 246.187 157.643,242.684 161.117,241.982 161.117 C 241.695 161.117,241.461 161.310,241.461 161.547 C 241.461 161.783,241.074 161.976,240.602 161.976 C 240.129 161.976,239.742 162.170,239.742 162.406 C 239.742 162.642,239.066 162.836,238.238 162.836 C 237.411 162.836,236.735 162.642,236.735 162.406 C 236.735 162.170,236.345 161.976,235.870 161.976 C 229.931 161.976,227.587 153.208,232.103 147.885 C 232.445 147.483,233.055 146.429,233.460 145.542 C 233.866 144.656,234.381 143.931,234.607 143.931 C 234.832 143.931,235.016 143.545,235.016 143.072 C 235.016 142.599,235.209 142.213,235.446 142.213 C 235.682 142.213,235.875 141.986,235.875 141.709 C 235.875 141.433,236.197 140.851,236.589 140.418 C 237.389 139.534,237.997 138.517,239.264 135.946 C 239.740 134.980,240.429 133.941,240.795 133.637 C 241.161 133.334,241.461 132.819,241.461 132.493 C 241.461 132.168,241.633 131.901,241.843 131.901 C 242.053 131.901,242.627 131.046,243.118 130.002 C 243.609 128.957,244.206 127.982,244.443 127.835 C 244.681 127.688,245.203 126.851,245.603 125.975 C 246.003 125.099,246.620 124.043,246.973 123.628 C 247.667 122.811,248.275 121.789,249.463 119.441 C 249.882 118.614,250.525 117.645,250.891 117.287 C 251.725 116.473,252.379 115.424,253.482 113.130 C 253.958 112.140,254.537 111.214,254.767 111.071 C 254.998 110.929,255.523 110.095,255.934 109.219 C 256.344 108.343,256.930 107.371,257.234 107.058 C 257.538 106.746,257.787 106.216,257.787 105.881 C 257.787 105.545,258.174 105.029,258.647 104.734 C 259.119 104.439,259.506 103.857,259.506 103.441 C 259.506 103.025,259.699 102.685,259.936 102.685 C 260.172 102.685,260.365 102.459,260.365 102.182 C 260.365 101.905,260.686 101.324,261.079 100.890 C 261.878 100.007,262.487 98.989,263.754 96.418 C 264.230 95.453,264.919 94.414,265.285 94.110 C 265.651 93.806,265.951 93.291,265.951 92.966 C 265.951 92.640,266.121 92.374,266.330 92.374 C 266.539 92.374,266.832 92.035,266.981 91.622 C 267.334 90.648,268.226 89.141,269.015 88.188 C 269.358 87.773,269.913 86.853,270.247 86.144 C 270.581 85.435,271.136 84.515,271.479 84.100 C 272.268 83.147,273.160 81.640,273.513 80.666 C 273.662 80.252,273.955 79.914,274.164 79.914 C 274.373 79.914,274.544 79.598,274.544 79.213 C 274.544 78.827,274.892 78.198,275.317 77.816 C 275.743 77.434,276.434 76.445,276.852 75.618 C 278.041 73.270,278.649 72.248,279.343 71.432 C 279.696 71.016,280.313 70.000,280.713 69.173 C 281.683 67.172,282.357 66.098,283.139 65.312 C 283.495 64.954,284.067 64.082,284.410 63.373 C 284.752 62.664,285.314 61.744,285.658 61.329 C 286.351 60.492,287.185 59.105,287.799 57.770 C 288.238 56.816,289.154 55.961,290.594 55.161 C 291.839 54.469,297.511 54.428,298.717 55.102 M239.932 55.814 C 240.065 56.028,241.139 56.336,242.321 56.498 C 243.502 56.661,244.468 56.969,244.468 57.183 C 244.468 57.397,244.722 57.573,245.032 57.573 C 245.342 57.573,246.010 57.959,246.518 58.432 C 247.025 58.904,247.600 59.291,247.795 59.291 C 248.484 59.291,252.508 63.824,253.229 65.414 C 253.632 66.300,254.145 67.025,254.370 67.025 C 254.596 67.025,254.780 67.497,254.780 68.073 C 254.780 68.650,254.973 69.242,255.209 69.388 C 255.446 69.534,255.639 70.114,255.639 70.677 C 255.639 71.240,255.832 71.820,256.069 71.966 C 256.305 72.112,256.498 72.896,256.498 73.710 C 256.498 74.523,256.692 75.188,256.928 75.188 C 257.200 75.188,257.358 78.402,257.358 83.970 C 257.358 89.362,257.192 92.855,256.928 93.018 C 256.692 93.164,256.498 93.938,256.498 94.737 C 256.498 95.536,256.305 96.309,256.069 96.455 C 255.832 96.601,255.639 97.193,255.639 97.770 C 255.639 98.347,255.491 98.818,255.311 98.818 C 255.130 98.818,254.637 99.544,254.215 100.430 C 253.793 101.316,253.187 102.498,252.868 103.056 C 252.071 104.453,248.263 108.271,247.666 108.271 C 247.398 108.271,246.839 108.646,246.424 109.106 C 246.008 109.565,245.108 110.064,244.424 110.214 C 243.739 110.364,243.179 110.665,243.179 110.883 C 243.179 111.100,242.514 111.278,241.701 111.278 C 240.888 111.278,240.103 111.472,239.957 111.708 C 239.811 111.944,238.748 112.137,237.594 112.137 C 236.440 112.137,235.377 112.331,235.231 112.567 C 235.085 112.803,234.300 112.997,233.487 112.997 C 232.674 112.997,232.009 112.803,232.009 112.567 C 232.009 112.325,230.791 112.137,229.216 112.137 C 227.641 112.137,226.423 111.950,226.423 111.708 C 226.423 111.472,225.951 111.278,225.374 111.278 C 224.798 111.278,224.222 111.110,224.095 110.905 C 223.968 110.700,223.119 110.413,222.209 110.267 C 221.298 110.121,220.201 109.613,219.770 109.136 C 219.339 108.660,218.823 108.271,218.624 108.271 C 218.072 108.271,214.829 105.103,214.183 103.933 C 213.653 102.973,211.066 97.781,209.944 95.423 C 209.220 93.904,209.262 72.843,209.989 72.116 C 210.285 71.821,210.526 71.172,210.526 70.674 C 210.526 66.121,220.023 56.284,224.418 56.284 C 224.784 56.284,225.203 56.090,225.349 55.854 C 225.685 55.310,239.597 55.272,239.932 55.814 M231.257 71.764 C 230.642 72.011,230.290 72.517,230.290 73.155 C 230.290 73.706,230.048 74.399,229.753 74.694 C 228.744 75.703,229.076 92.666,230.140 94.522 C 231.584 97.040,235.875 96.839,235.875 94.255 C 235.875 93.693,236.069 93.233,236.305 93.233 C 236.541 93.233,236.735 92.374,236.735 91.325 C 236.735 90.276,236.928 89.297,237.164 89.151 C 237.412 88.999,237.594 86.721,237.594 83.781 C 237.594 80.841,237.412 78.563,237.164 78.410 C 236.928 78.264,236.735 77.093,236.735 75.807 C 236.735 74.521,236.541 73.469,236.305 73.469 C 236.069 73.469,235.875 73.175,235.875 72.814 C 235.875 71.613,233.166 70.997,231.257 71.764 M303.759 102.256 C 303.759 102.492,304.494 102.685,305.392 102.685 C 307.049 102.685,309.335 103.494,309.341 104.082 C 309.343 104.259,309.804 104.404,310.366 104.404 C 310.928 104.404,311.628 104.694,311.923 105.048 C 312.217 105.403,312.688 105.693,312.969 105.693 C 313.250 105.693,314.036 106.273,314.715 106.982 C 315.395 107.691,316.204 108.271,316.514 108.271 C 316.825 108.271,317.078 108.527,317.078 108.840 C 317.078 109.154,317.578 109.879,318.189 110.451 C 319.247 111.443,320.945 114.586,320.945 115.551 C 320.945 115.800,321.090 116.006,321.267 116.008 C 321.783 116.013,322.664 118.217,322.664 119.502 C 322.664 120.150,322.857 120.799,323.093 120.945 C 323.330 121.091,323.523 122.541,323.523 124.168 C 323.523 125.794,323.716 127.244,323.953 127.390 C 324.189 127.536,324.382 129.276,324.382 131.257 C 324.382 133.237,324.189 134.977,323.953 135.124 C 323.716 135.270,323.523 136.526,323.523 137.916 C 323.523 139.306,323.330 140.563,323.093 140.709 C 322.857 140.855,322.664 141.532,322.664 142.213 C 322.664 142.894,322.470 143.570,322.234 143.716 C 321.998 143.862,321.790 144.406,321.773 144.923 C 321.756 145.441,321.371 146.445,320.919 147.154 C 320.466 147.863,319.962 148.733,319.798 149.087 C 319.635 149.441,319.149 150.044,318.719 150.426 C 318.289 150.809,317.938 151.349,317.938 151.627 C 317.938 152.197,316.017 154.243,315.482 154.243 C 315.292 154.243,314.655 154.678,314.067 155.209 C 312.726 156.421,309.503 158.110,308.531 158.110 C 308.128 158.110,307.556 158.351,307.261 158.647 C 306.875 159.033,304.741 159.184,299.677 159.184 C 294.613 159.184,292.480 159.033,292.094 158.647 C 291.799 158.351,291.129 158.110,290.605 158.110 C 290.081 158.110,289.588 157.965,289.509 157.787 C 289.431 157.610,288.400 156.994,287.218 156.419 C 285.009 155.342,280.129 151.007,280.129 150.120 C 280.129 149.846,279.843 149.385,279.493 149.094 C 278.572 148.330,277.575 146.164,277.272 144.269 C 277.127 143.364,276.841 142.519,276.635 142.393 C 276.430 142.266,276.262 141.508,276.262 140.709 C 276.262 139.910,276.069 139.136,275.832 138.990 C 275.571 138.828,275.403 135.557,275.403 130.612 C 275.403 125.667,275.571 122.396,275.832 122.234 C 276.069 122.088,276.262 121.411,276.262 120.730 C 276.262 120.049,276.430 119.389,276.635 119.262 C 276.840 119.135,277.111 118.115,277.237 116.995 C 277.363 115.875,277.679 114.888,277.938 114.801 C 278.198 114.715,278.410 114.273,278.410 113.820 C 278.410 113.367,278.604 112.997,278.840 112.997 C 279.076 112.997,279.270 112.737,279.270 112.419 C 279.270 112.101,279.656 111.491,280.129 111.063 C 280.602 110.636,280.988 110.083,280.988 109.836 C 280.988 109.218,283.619 106.552,284.228 106.552 C 284.500 106.552,285.062 106.176,285.477 105.717 C 285.893 105.258,286.793 104.759,287.477 104.609 C 288.162 104.459,288.722 104.158,288.722 103.940 C 288.722 103.723,289.194 103.545,289.771 103.545 C 290.347 103.545,290.939 103.351,291.085 103.115 C 291.231 102.879,292.209 102.685,293.258 102.685 C 294.308 102.685,295.166 102.492,295.166 102.256 C 295.166 101.998,296.885 101.826,299.463 101.826 C 302.041 101.826,303.759 101.998,303.759 102.256 M296.930 119.808 C 296.299 120.695,296.026 121.730,296.026 123.242 C 296.026 124.432,295.832 125.525,295.596 125.671 C 295.354 125.821,295.166 127.887,295.166 130.397 C 295.166 132.908,295.354 134.974,295.596 135.124 C 295.832 135.270,296.040 136.489,296.057 137.834 C 296.138 144.143,302.728 145.158,302.869 138.883 C 302.886 138.115,303.093 137.487,303.330 137.487 C 303.598 137.487,303.759 134.989,303.759 130.852 C 303.759 126.893,303.586 124.111,303.330 123.953 C 303.093 123.807,302.900 123.022,302.900 122.209 C 302.900 121.396,302.753 120.730,302.572 120.730 C 302.392 120.730,302.054 120.295,301.820 119.764 C 301.108 118.140,298.099 118.167,296.930 119.808 " stroke="none" fill="#ffffff" fill-rule="evenodd"></path></g></svg>