<svg id="svg" version="1.1" width="953" height="500" xmlns="http://www.w3.org/2000/svg" xmlns:xlink="http://www.w3.org/1999/xlink" style="display: block;"><g id="svgg"><path id="path0" d="M160.156 2.050 C 160.030 2.254,159.096 2.546,158.081 2.698 C 157.066 2.850,155.901 3.344,155.492 3.796 C 155.084 4.248,154.524 4.617,154.250 4.617 C 153.975 4.617,153.408 4.995,152.991 5.456 C 152.573 5.918,152.006 6.296,151.731 6.296 C 151.457 6.296,150.890 6.674,150.472 7.135 C 150.054 7.597,149.491 7.975,149.221 7.975 C 148.951 7.975,148.286 8.447,147.744 9.024 C 147.202 9.601,146.537 10.073,146.267 10.073 C 145.997 10.073,145.434 10.451,145.016 10.913 C 144.598 11.375,144.044 11.752,143.784 11.752 C 143.525 11.752,143.040 12.130,142.707 12.592 C 142.374 13.054,141.841 13.431,141.521 13.431 C 141.201 13.431,140.568 13.903,140.114 14.481 C 139.660 15.058,139.048 15.530,138.754 15.530 C 138.461 15.530,137.878 15.908,137.461 16.369 C 137.043 16.831,136.476 17.209,136.201 17.209 C 135.927 17.209,135.360 17.587,134.942 18.048 C 134.524 18.510,133.961 18.888,133.691 18.888 C 133.421 18.888,132.742 19.380,132.182 19.982 C 131.623 20.583,130.787 21.252,130.325 21.469 C 128.639 22.258,127.519 23.003,126.393 24.081 C 125.760 24.688,125.046 25.184,124.806 25.184 C 124.566 25.184,124.027 25.561,123.610 26.023 C 123.192 26.485,122.596 26.863,122.285 26.863 C 121.975 26.863,121.720 27.004,121.720 27.177 C 121.719 27.350,120.874 28.059,119.840 28.751 C 118.807 29.444,117.958 30.152,117.953 30.325 C 117.947 30.498,117.686 30.640,117.371 30.640 C 117.056 30.640,116.293 31.146,115.674 31.765 C 114.573 32.866,113.540 33.567,111.857 34.355 C 111.396 34.571,110.560 35.241,110.000 35.842 C 109.441 36.444,108.762 36.936,108.491 36.936 C 108.221 36.936,107.658 37.314,107.240 37.775 C 106.822 38.237,106.259 38.615,105.989 38.615 C 105.719 38.615,105.054 39.087,104.512 39.664 C 103.970 40.241,103.293 40.714,103.007 40.714 C 102.722 40.714,102.011 41.280,101.429 41.973 C 100.846 42.665,100.115 43.232,99.805 43.232 C 99.495 43.232,98.969 43.610,98.636 44.071 C 98.303 44.533,97.835 44.911,97.595 44.911 C 97.355 44.911,96.649 45.383,96.027 45.960 C 95.404 46.537,94.733 47.009,94.535 47.009 C 94.338 47.009,93.633 47.576,92.970 48.269 C 92.306 48.961,91.551 49.528,91.291 49.528 C 91.031 49.528,90.275 50.094,89.612 50.787 C 88.948 51.480,88.190 52.046,87.927 52.046 C 87.665 52.046,87.006 52.518,86.464 53.095 C 85.922 53.673,85.263 54.145,85.000 54.145 C 84.737 54.145,83.979 54.711,83.316 55.404 C 82.652 56.097,81.894 56.663,81.632 56.663 C 81.369 56.663,80.710 57.135,80.168 57.712 C 79.626 58.290,78.967 58.762,78.704 58.762 C 78.441 58.762,77.683 59.328,77.020 60.021 C 76.356 60.714,75.645 61.280,75.439 61.280 C 75.234 61.280,74.339 62.036,73.452 62.959 C 71.870 64.606,70.058 65.178,69.465 64.218 C 69.322 63.987,68.845 63.799,68.404 63.799 C 67.962 63.799,66.929 63.421,66.107 62.959 C 65.285 62.497,64.252 62.120,63.811 62.120 C 63.369 62.120,62.892 61.931,62.749 61.700 C 62.607 61.469,62.029 61.280,61.465 61.280 C 60.902 61.280,60.441 61.091,60.441 60.860 C 60.441 60.630,59.980 60.441,59.416 60.441 C 58.853 60.441,58.275 60.252,58.132 60.021 C 57.990 59.790,57.234 59.601,56.453 59.601 C 55.673 59.601,54.926 59.427,54.795 59.214 C 54.663 59.002,53.327 58.696,51.826 58.535 C 50.325 58.375,48.993 58.076,48.868 57.873 C 48.742 57.669,48.000 57.503,47.219 57.503 C 46.439 57.503,45.683 57.314,45.540 57.083 C 45.398 56.852,44.359 56.663,43.232 56.663 C 42.105 56.663,41.066 56.474,40.923 56.243 C 40.781 56.013,39.553 55.824,38.195 55.824 C 36.837 55.824,35.610 55.635,35.467 55.404 C 35.324 55.173,33.530 54.984,31.480 54.984 C 29.429 54.984,27.635 54.795,27.492 54.565 C 27.336 54.312,24.480 54.145,20.332 54.145 C 16.011 54.145,13.431 54.302,13.431 54.565 C 13.431 54.795,12.694 54.984,11.792 54.984 C 8.741 54.984,2.518 59.380,2.518 61.535 C 2.518 62.060,2.329 62.607,2.099 62.749 C 1.868 62.892,1.679 63.459,1.679 64.008 C 1.679 64.558,1.490 65.125,1.259 65.268 C 1.028 65.410,0.839 66.177,0.839 66.971 C 0.839 67.766,1.028 68.416,1.259 68.416 C 1.490 68.416,1.679 69.065,1.679 69.860 C 1.679 70.654,1.853 71.412,2.066 71.544 C 2.279 71.675,2.571 72.315,2.714 72.965 C 3.039 74.446,6.536 77.919,8.084 78.298 C 8.721 78.454,9.346 78.750,9.473 78.955 C 9.599 79.160,13.459 79.328,18.048 79.328 C 23.159 79.328,26.494 79.491,26.653 79.748 C 26.795 79.979,28.401 80.168,30.220 80.168 C 32.040 80.168,33.645 80.357,33.788 80.588 C 33.931 80.818,35.075 81.007,36.331 81.007 C 37.587 81.007,38.615 81.196,38.615 81.427 C 38.615 81.658,39.454 81.847,40.479 81.847 C 41.504 81.847,42.460 82.036,42.602 82.267 C 42.745 82.497,43.595 82.686,44.491 82.686 C 45.387 82.686,46.232 82.866,46.368 83.087 C 46.504 83.307,47.747 83.615,49.130 83.771 C 50.513 83.928,51.747 84.220,51.870 84.420 C 51.994 84.621,52.557 84.785,53.120 84.785 C 53.684 84.785,54.145 84.974,54.145 85.205 C 54.145 85.435,54.517 85.624,54.971 85.624 C 55.426 85.624,56.471 86.002,57.293 86.464 C 58.115 86.925,59.046 87.303,59.362 87.303 C 59.677 87.303,61.013 87.870,62.329 88.562 C 63.646 89.255,64.913 89.822,65.145 89.822 C 65.784 89.822,70.866 92.311,71.144 92.760 C 71.277 92.976,72.607 93.735,74.098 94.446 C 75.590 95.158,76.810 95.920,76.810 96.139 C 76.810 96.358,77.146 96.537,77.557 96.537 C 77.968 96.537,78.576 96.915,78.909 97.377 C 79.241 97.838,79.720 98.216,79.972 98.216 C 80.224 98.216,80.973 98.783,81.637 99.475 C 82.300 100.168,83.056 100.735,83.316 100.735 C 83.576 100.735,84.343 101.320,85.021 102.036 C 85.699 102.752,86.679 103.503,87.198 103.704 C 87.957 103.999,88.143 104.399,88.143 105.736 C 88.143 106.652,88.314 107.506,88.523 107.636 C 88.732 107.765,89.031 108.800,89.187 109.935 C 89.354 111.147,89.804 112.301,90.276 112.728 C 90.719 113.129,91.081 113.681,91.081 113.956 C 91.081 114.231,91.459 114.797,91.920 115.215 C 92.382 115.633,92.760 116.143,92.760 116.349 C 92.760 116.827,94.705 118.783,95.180 118.783 C 95.379 118.783,96.075 119.340,96.728 120.022 C 97.380 120.703,98.452 121.379,99.110 121.523 C 99.767 121.667,100.413 121.960,100.545 122.173 C 100.676 122.386,101.234 122.560,101.784 122.560 C 102.334 122.560,102.900 122.749,103.043 122.980 C 103.186 123.211,104.036 123.400,104.932 123.400 C 105.828 123.400,106.678 123.589,106.821 123.820 C 106.963 124.050,107.730 124.239,108.524 124.239 C 109.319 124.239,109.969 124.050,109.969 123.820 C 109.969 123.589,110.996 123.400,112.252 123.400 C 113.508 123.400,114.653 123.211,114.795 122.980 C 114.938 122.749,115.505 122.560,116.055 122.560 C 116.604 122.560,117.162 122.386,117.294 122.173 C 117.425 121.960,118.086 121.664,118.763 121.515 C 119.439 121.367,120.428 120.693,120.961 120.018 C 121.494 119.343,122.175 118.789,122.474 118.787 C 123.089 118.782,125.079 116.920,125.079 116.349 C 125.079 116.143,125.456 115.633,125.918 115.215 C 126.380 114.797,126.758 114.249,126.759 113.996 C 126.760 113.743,127.233 112.607,127.809 111.471 C 128.385 110.336,128.856 109.072,128.856 108.663 C 128.856 108.254,129.045 107.803,129.276 107.660 C 129.514 107.513,129.696 105.417,129.696 102.808 C 129.696 100.027,129.530 98.216,129.276 98.216 C 129.045 98.216,128.856 97.755,128.856 97.192 C 128.856 96.628,128.667 96.050,128.437 95.908 C 128.206 95.765,128.003 95.234,127.986 94.729 C 127.969 94.223,127.594 93.242,127.153 92.550 C 126.711 91.857,126.176 90.913,125.964 90.451 C 125.534 89.518,122.313 86.464,121.758 86.464 C 121.563 86.464,121.161 86.171,120.864 85.813 C 120.567 85.456,119.458 84.788,118.399 84.330 C 117.341 83.871,116.146 83.314,115.745 83.091 C 115.345 82.869,114.259 82.686,113.332 82.686 C 112.406 82.686,111.647 82.497,111.647 82.267 C 111.647 81.717,106.321 81.717,105.981 82.267 C 105.838 82.497,104.988 82.686,104.092 82.686 C 103.196 82.686,102.343 82.880,102.197 83.117 C 102.043 83.365,101.430 83.011,100.745 82.277 C 100.092 81.579,99.301 81.007,98.987 81.007 C 98.673 81.007,98.045 80.515,97.593 79.912 C 97.141 79.310,96.388 78.641,95.919 78.425 C 94.648 77.840,93.357 77.060,92.550 76.390 C 92.154 76.062,91.426 75.593,90.931 75.347 C 89.895 74.832,89.442 73.033,90.349 73.033 C 90.671 73.033,91.378 72.560,91.920 71.983 C 92.462 71.406,93.121 70.934,93.384 70.934 C 93.647 70.934,94.405 70.367,95.068 69.675 C 95.732 68.982,96.487 68.416,96.747 68.416 C 97.007 68.416,97.763 67.849,98.426 67.156 C 99.090 66.464,99.847 65.897,100.110 65.897 C 100.373 65.897,101.032 65.425,101.574 64.848 C 102.116 64.271,102.768 63.799,103.024 63.799 C 103.279 63.799,103.760 63.421,104.092 62.959 C 104.425 62.497,104.986 62.118,105.339 62.116 C 105.692 62.114,106.427 61.547,106.973 60.857 C 107.518 60.166,108.194 59.601,108.474 59.601 C 108.754 59.601,109.426 59.129,109.969 58.552 C 110.511 57.975,111.175 57.503,111.446 57.503 C 111.716 57.503,112.279 57.125,112.697 56.663 C 113.115 56.201,113.675 55.824,113.942 55.824 C 114.210 55.824,114.971 55.257,115.635 54.565 C 116.298 53.872,117.056 53.305,117.319 53.305 C 117.582 53.305,118.241 52.833,118.783 52.256 C 119.325 51.679,119.990 51.207,120.260 51.207 C 120.530 51.207,121.093 50.829,121.511 50.367 C 121.929 49.906,122.432 49.528,122.629 49.528 C 122.826 49.528,123.581 48.961,124.305 48.269 C 125.030 47.576,125.858 47.009,126.145 47.009 C 126.433 47.009,126.777 46.726,126.909 46.380 C 127.042 46.034,127.412 45.750,127.732 45.750 C 128.051 45.750,128.905 45.184,129.630 44.491 C 130.354 43.799,131.109 43.232,131.306 43.232 C 131.503 43.232,132.006 42.854,132.424 42.392 C 132.842 41.931,133.405 41.553,133.675 41.553 C 133.945 41.553,134.610 41.081,135.152 40.504 C 135.694 39.927,136.359 39.454,136.629 39.454 C 136.900 39.454,137.463 39.077,137.880 38.615 C 138.298 38.153,138.865 37.775,139.140 37.775 C 139.414 37.775,139.981 37.398,140.399 36.936 C 140.817 36.474,141.380 36.097,141.650 36.097 C 141.920 36.097,142.585 35.624,143.127 35.047 C 143.669 34.470,144.321 33.998,144.577 33.998 C 144.832 33.998,145.313 33.620,145.645 33.158 C 145.978 32.697,146.511 32.319,146.829 32.319 C 147.147 32.319,147.914 31.800,148.533 31.165 C 149.730 29.937,150.779 29.192,152.168 28.584 C 152.640 28.378,153.277 27.906,153.584 27.536 C 153.891 27.166,154.368 26.863,154.642 26.863 C 154.917 26.863,155.685 26.296,156.348 25.603 C 157.012 24.911,157.780 24.344,158.054 24.344 C 158.329 24.344,158.806 24.041,159.113 23.671 C 159.420 23.301,160.057 22.826,160.528 22.615 C 161.000 22.405,161.952 21.872,162.644 21.431 C 163.337 20.989,164.412 20.614,165.033 20.597 C 165.654 20.580,166.279 20.378,166.422 20.147 C 166.594 19.869,202.733 19.727,273.477 19.727 L 380.273 19.727 380.273 104.512 L 380.273 189.297 272.375 189.297 L 164.477 189.297 162.931 188.147 C 162.081 187.515,161.080 186.665,160.706 186.259 C 160.333 185.852,159.849 185.519,159.631 185.519 C 159.412 185.519,158.691 184.953,158.027 184.260 C 157.364 183.568,156.606 183.001,156.343 183.001 C 156.080 183.001,155.422 182.529,154.879 181.952 C 154.337 181.375,153.678 180.902,153.416 180.902 C 153.153 180.902,152.395 180.336,151.731 179.643 C 151.068 178.951,150.312 178.384,150.052 178.384 C 149.793 178.384,149.037 177.817,148.374 177.125 C 147.710 176.432,146.952 175.866,146.689 175.866 C 146.426 175.866,145.768 175.393,145.226 174.816 C 144.683 174.239,144.078 173.767,143.879 173.767 C 143.681 173.767,142.902 173.153,142.148 172.403 C 141.394 171.653,140.080 170.567,139.227 169.990 C 138.374 169.412,137.675 168.799,137.673 168.625 C 137.672 168.452,137.369 168.311,136.999 168.311 C 136.630 168.311,135.799 167.744,135.152 167.051 C 134.505 166.359,133.801 165.792,133.588 165.792 C 133.374 165.792,132.756 165.320,132.214 164.743 C 131.672 164.166,131.013 163.694,130.750 163.694 C 130.488 163.694,129.730 163.127,129.066 162.434 C 128.403 161.742,127.647 161.175,127.387 161.175 C 127.127 161.175,126.372 160.609,125.708 159.916 C 125.045 159.224,124.287 158.657,124.024 158.657 C 123.761 158.657,123.103 158.185,122.560 157.608 C 122.018 157.030,121.359 156.558,121.097 156.558 C 120.834 156.558,120.076 155.992,119.412 155.299 C 118.749 154.607,118.042 154.040,117.842 154.040 C 117.642 154.040,116.874 153.474,116.137 152.783 C 115.399 152.091,114.662 151.525,114.500 151.523 C 114.337 151.522,113.732 151.049,113.155 150.472 C 112.578 149.895,111.889 149.423,111.625 149.423 C 111.361 149.423,110.615 148.856,109.969 148.164 C 109.322 147.471,108.622 146.905,108.413 146.905 C 108.205 146.905,107.394 146.243,106.611 145.435 C 105.828 144.627,104.976 143.966,104.718 143.966 C 104.460 143.966,103.707 143.400,103.043 142.707 C 102.380 142.015,101.624 141.448,101.364 141.448 C 101.104 141.448,100.349 140.881,99.685 140.189 C 99.022 139.496,98.264 138.930,98.001 138.930 C 97.738 138.930,97.079 138.458,96.537 137.880 C 95.995 137.303,95.336 136.831,95.074 136.831 C 94.811 136.831,94.053 136.264,93.389 135.572 C 92.726 134.879,92.007 134.313,91.792 134.313 C 91.429 134.313,90.019 133.212,87.191 130.719 C 86.552 130.156,85.832 129.696,85.590 129.696 C 85.348 129.696,84.674 129.129,84.091 128.437 C 83.508 127.744,82.798 127.177,82.512 127.177 C 82.227 127.177,81.550 126.705,81.007 126.128 C 80.465 125.551,79.814 125.079,79.561 125.079 C 78.814 125.079,72.384 118.285,71.616 116.684 C 70.194 113.722,69.210 112.487,68.271 112.487 C 67.927 112.487,67.583 112.345,67.506 112.172 C 67.296 111.699,62.103 109.131,61.326 109.116 C 60.955 109.108,60.284 108.825,59.836 108.486 C 59.388 108.147,58.596 107.870,58.077 107.870 C 57.557 107.870,57.016 107.681,56.873 107.450 C 56.730 107.219,56.164 107.030,55.614 107.030 C 55.064 107.030,54.497 106.842,54.355 106.611 C 54.212 106.380,53.645 106.191,53.095 106.191 C 52.546 106.191,51.979 106.002,51.836 105.771 C 50.728 103.978,49.528 105.397,49.528 108.499 C 49.528 110.318,49.705 111.647,49.948 111.647 C 50.178 111.647,50.367 112.297,50.367 113.092 C 50.367 113.886,50.556 114.653,50.787 114.795 C 51.018 114.938,51.207 115.505,51.207 116.055 C 51.207 116.604,51.396 117.171,51.626 117.314 C 51.857 117.456,52.046 117.990,52.046 118.499 C 52.046 119.009,52.421 120.084,52.878 120.888 C 53.336 121.692,54.082 123.122,54.536 124.066 C 54.991 125.009,55.655 126.024,56.013 126.321 C 56.371 126.618,56.663 127.091,56.663 127.374 C 56.663 127.656,57.041 128.229,57.503 128.646 C 57.964 129.064,58.342 129.616,58.342 129.873 C 58.342 130.468,67.229 139.349,67.825 139.349 C 68.069 139.349,68.713 139.822,69.255 140.399 C 69.797 140.976,70.456 141.448,70.719 141.448 C 70.982 141.448,71.739 142.015,72.403 142.707 C 73.066 143.400,73.824 143.966,74.087 143.966 C 74.350 143.966,75.009 144.439,75.551 145.016 C 76.093 145.593,76.766 146.065,77.046 146.065 C 77.326 146.065,78.001 146.630,78.547 147.320 C 79.092 148.011,79.793 148.578,80.104 148.580 C 80.416 148.582,81.200 149.150,81.847 149.843 C 82.494 150.535,83.198 151.102,83.411 151.102 C 83.624 151.102,84.243 151.574,84.785 152.151 C 85.327 152.728,85.986 153.200,86.249 153.200 C 86.511 153.200,87.269 153.767,87.933 154.460 C 88.596 155.152,89.352 155.719,89.612 155.719 C 89.872 155.719,90.627 156.285,91.291 156.978 C 91.954 157.671,92.712 158.237,92.975 158.237 C 93.238 158.237,93.896 158.709,94.439 159.286 C 94.981 159.864,95.638 160.336,95.898 160.336 C 96.159 160.336,97.023 161.015,97.819 161.845 C 98.615 162.676,99.643 163.534,100.105 163.752 C 102.004 164.651,102.956 165.343,104.281 166.789 C 105.047 167.626,105.935 168.311,106.253 168.311 C 106.571 168.311,107.186 168.783,107.619 169.360 C 108.053 169.937,108.636 170.409,108.916 170.409 C 109.195 170.409,110.017 170.976,110.742 171.668 C 111.467 172.361,112.215 172.928,112.405 172.928 C 112.594 172.928,113.292 173.494,113.956 174.187 C 114.619 174.879,115.377 175.446,115.640 175.446 C 115.903 175.446,116.562 175.918,117.104 176.495 C 117.646 177.072,118.305 177.545,118.568 177.545 C 118.830 177.545,119.588 178.111,120.252 178.804 C 120.915 179.496,121.671 180.063,121.931 180.063 C 122.191 180.063,122.946 180.630,123.610 181.322 C 124.273 182.015,125.031 182.581,125.294 182.581 C 125.557 182.581,126.215 183.054,126.758 183.631 C 127.300 184.208,127.918 184.680,128.131 184.680 C 128.345 184.680,129.049 185.247,129.696 185.939 C 130.343 186.632,131.047 187.198,131.260 187.198 C 131.473 187.198,132.092 187.671,132.634 188.248 C 133.176 188.825,133.835 189.297,134.097 189.297 C 134.360 189.297,135.118 189.864,135.782 190.556 C 136.445 191.249,137.198 191.815,137.454 191.815 C 137.710 191.815,138.658 192.571,139.559 193.494 C 140.461 194.418,141.411 195.173,141.670 195.173 C 141.929 195.173,142.585 195.645,143.127 196.222 C 143.669 196.800,144.328 197.272,144.591 197.272 C 144.853 197.272,145.611 197.838,146.275 198.531 C 146.938 199.224,147.696 199.790,147.959 199.790 C 148.222 199.790,148.881 200.262,149.423 200.839 C 149.965 201.417,150.638 201.889,150.918 201.889 C 151.198 201.889,151.873 202.454,152.419 203.144 C 152.964 203.835,153.725 204.401,154.110 204.403 C 154.495 204.405,154.872 204.549,154.949 204.722 C 155.026 204.895,156.020 205.509,157.159 206.086 L 159.228 207.135 272.613 207.135 L 385.998 207.135 388.067 206.114 C 392.623 203.864,398.321 196.773,398.321 193.354 C 398.321 192.766,398.510 192.168,398.741 192.025 C 399.278 191.693,399.326 16.941,398.789 16.609 C 398.585 16.483,398.291 15.536,398.137 14.504 C 397.792 12.203,396.997 10.553,395.604 9.244 C 395.021 8.696,394.544 8.079,394.544 7.872 C 394.544 7.384,393.455 6.296,392.968 6.296 C 392.761 6.296,392.133 5.807,391.574 5.211 C 390.299 3.851,387.430 2.518,385.777 2.518 C 385.085 2.518,384.403 2.329,384.260 2.099 C 383.928 1.562,160.488 1.513,160.156 2.050 M290.181 51.789 C 288.775 52.571,287.880 53.406,287.451 54.337 C 286.851 55.642,286.036 56.996,285.359 57.815 C 285.023 58.220,284.474 59.119,284.137 59.811 C 283.801 60.504,283.195 61.436,282.791 61.884 C 282.387 62.331,282.057 62.935,282.057 63.224 C 282.057 63.514,281.692 64.006,281.247 64.318 C 280.801 64.630,280.312 65.382,280.160 65.990 C 280.007 66.598,279.522 67.421,279.081 67.820 C 278.640 68.219,278.279 68.777,278.279 69.059 C 278.279 69.341,277.986 69.815,277.629 70.112 C 277.271 70.409,276.619 71.440,276.180 72.403 C 275.742 73.366,275.102 74.387,274.759 74.672 C 274.416 74.956,274.019 75.723,273.875 76.376 C 273.732 77.028,273.247 77.895,272.799 78.301 C 272.350 78.707,271.983 79.251,271.983 79.511 C 271.983 79.770,271.605 80.255,271.144 80.588 C 270.682 80.920,270.304 81.529,270.304 81.939 C 270.304 82.350,270.115 82.686,269.885 82.686 C 269.654 82.686,269.465 82.907,269.465 83.178 C 269.465 83.448,269.151 84.016,268.768 84.440 C 267.982 85.308,267.389 86.302,266.135 88.852 C 265.659 89.819,265.085 90.724,264.860 90.863 C 264.635 91.003,264.127 91.817,263.732 92.673 C 263.336 93.528,262.573 94.795,262.035 95.488 C 261.498 96.180,260.913 96.936,260.735 97.167 C 260.558 97.398,260.084 98.287,259.681 99.143 C 259.279 99.999,258.770 100.809,258.552 100.944 C 258.333 101.079,257.835 101.890,257.443 102.746 C 257.052 103.602,256.450 104.634,256.105 105.040 C 255.427 105.837,254.833 106.836,253.672 109.129 C 253.263 109.937,252.588 110.904,252.172 111.277 C 251.757 111.650,251.417 112.222,251.417 112.548 C 251.417 112.874,251.046 113.408,250.593 113.735 C 250.139 114.062,249.655 114.846,249.516 115.477 C 249.378 116.109,248.983 116.859,248.641 117.144 C 248.298 117.428,247.658 118.449,247.219 119.412 C 246.780 120.376,246.129 121.407,245.771 121.704 C 245.413 122.001,245.121 122.474,245.121 122.757 C 245.121 123.039,244.754 123.602,244.305 124.008 C 243.856 124.414,243.377 125.256,243.240 125.880 C 243.103 126.504,242.620 127.282,242.167 127.608 C 241.714 127.935,241.343 128.469,241.343 128.795 C 241.343 129.121,241.011 129.693,240.606 130.066 C 240.200 130.440,239.594 131.312,239.260 132.004 C 238.925 132.697,238.376 133.595,238.041 134.001 C 237.319 134.872,236.673 135.984,235.495 138.380 C 235.019 139.347,234.440 140.255,234.208 140.399 C 233.976 140.542,233.409 141.487,232.949 142.497 C 232.488 143.508,231.921 144.453,231.687 144.597 C 229.912 145.695,228.992 151.452,230.204 153.881 C 233.568 160.623,243.160 159.702,246.515 152.314 C 246.894 151.480,247.491 150.560,247.841 150.269 C 248.192 149.978,248.478 149.509,248.478 149.227 C 248.478 148.944,248.846 148.381,249.294 147.975 C 249.743 147.569,250.232 146.681,250.381 146.002 C 250.530 145.322,251.013 144.541,251.454 144.265 C 251.895 143.990,252.256 143.502,252.256 143.180 C 252.256 142.859,252.587 142.290,252.992 141.917 C 253.730 141.236,254.844 139.363,256.411 136.165 C 256.873 135.222,257.544 134.207,257.902 133.910 C 258.259 133.613,258.552 133.133,258.552 132.844 C 258.552 132.554,258.845 132.074,259.202 131.777 C 259.560 131.480,260.224 130.465,260.679 129.522 C 261.779 127.238,262.392 126.277,263.274 125.455 C 263.678 125.079,264.008 124.462,264.008 124.085 C 264.008 123.708,264.197 123.400,264.428 123.400 C 264.659 123.400,264.848 123.140,264.848 122.822 C 264.848 122.504,265.141 122.001,265.498 121.704 C 265.856 121.407,266.529 120.392,266.994 119.449 C 268.156 117.090,268.804 115.978,269.520 115.113 C 269.856 114.707,270.405 113.809,270.739 113.116 C 271.074 112.424,271.680 111.552,272.085 111.178 C 272.491 110.805,272.823 110.315,272.823 110.089 C 272.823 109.864,273.190 109.347,273.638 108.941 C 274.087 108.535,274.570 107.675,274.711 107.030 C 274.853 106.386,275.336 105.526,275.785 105.120 C 276.233 104.714,276.600 104.151,276.600 103.869 C 276.600 103.587,276.893 103.113,277.251 102.816 C 277.608 102.519,278.260 101.488,278.699 100.525 C 279.138 99.561,279.777 98.540,280.120 98.256 C 280.463 97.971,280.867 97.176,281.018 96.488 C 281.169 95.801,281.653 95.013,282.094 94.737 C 282.535 94.462,282.896 93.974,282.896 93.652 C 282.896 93.331,283.228 92.763,283.634 92.389 C 284.039 92.016,284.645 91.144,284.980 90.451 C 285.314 89.759,285.863 88.860,286.199 88.455 C 286.915 87.589,287.563 86.477,288.725 84.119 C 289.190 83.176,289.863 82.161,290.221 81.864 C 290.578 81.567,290.871 81.151,290.871 80.938 C 290.871 80.726,291.256 80.139,291.727 79.634 C 292.197 79.129,292.700 78.240,292.843 77.658 C 292.986 77.076,293.451 76.295,293.876 75.921 C 294.301 75.548,294.648 74.934,294.648 74.557 C 294.648 74.180,294.837 73.872,295.068 73.872 C 295.299 73.872,295.488 73.618,295.488 73.307 C 295.488 72.997,295.866 72.401,296.327 71.983 C 296.789 71.565,297.167 70.999,297.167 70.724 C 297.167 70.449,297.528 69.898,297.969 69.499 C 298.409 69.100,298.896 68.268,299.049 67.650 C 299.202 67.032,299.665 66.149,300.076 65.687 C 300.488 65.226,301.087 64.234,301.407 63.484 C 301.727 62.733,302.132 62.120,302.306 62.120 C 302.481 62.120,302.623 60.703,302.623 58.972 C 302.623 57.153,302.446 55.824,302.204 55.824 C 301.973 55.824,301.784 55.577,301.784 55.276 C 301.784 54.674,299.594 52.557,298.117 51.731 C 296.939 51.073,291.398 51.113,290.181 51.789 M224.974 52.302 C 220.677 53.866,212.807 59.799,212.800 61.480 C 212.799 61.716,212.327 62.839,211.751 63.975 C 211.174 65.110,210.703 66.574,210.703 67.227 C 210.703 67.881,210.514 68.416,210.283 68.416 C 210.052 68.416,209.864 69.065,209.864 69.860 C 209.864 70.654,209.675 71.421,209.444 71.563 C 209.187 71.722,209.024 75.057,209.024 80.168 C 209.024 85.278,209.187 88.613,209.444 88.772 C 209.675 88.915,209.864 89.670,209.864 90.451 C 209.864 91.232,210.052 91.987,210.283 92.130 C 210.514 92.273,210.703 92.851,210.703 93.414 C 210.703 93.978,210.847 94.439,211.024 94.439 C 211.343 94.439,212.802 97.486,212.802 98.154 C 212.802 98.347,213.179 98.848,213.641 99.265 C 214.103 99.683,214.481 100.240,214.481 100.502 C 214.481 101.107,217.925 104.512,218.537 104.512 C 218.789 104.512,219.233 104.799,219.524 105.149 C 219.815 105.500,220.735 106.082,221.569 106.444 C 222.403 106.805,223.413 107.274,223.814 107.485 C 224.215 107.697,224.885 107.870,225.304 107.870 C 225.723 107.870,226.275 108.080,226.532 108.337 C 226.831 108.636,229.140 108.804,232.949 108.804 C 236.758 108.804,239.066 108.636,239.365 108.337 C 239.622 108.080,240.343 107.870,240.968 107.870 C 242.251 107.870,245.405 106.355,246.429 105.247 C 246.802 104.843,247.295 104.512,247.523 104.512 C 248.065 104.512,252.256 100.321,252.256 99.779 C 252.256 99.551,252.587 99.058,252.991 98.685 C 254.263 97.509,255.606 94.441,255.884 92.076 C 256.031 90.823,256.314 89.698,256.512 89.575 C 256.984 89.284,256.984 71.891,256.512 71.600 C 256.314 71.477,256.031 70.352,255.884 69.099 C 255.638 67.002,254.153 63.359,253.410 63.029 C 253.237 62.952,253.095 62.569,253.095 62.177 C 253.095 61.786,252.718 61.193,252.256 60.860 C 251.794 60.528,251.417 60.068,251.417 59.839 C 251.417 59.273,247.996 55.824,247.434 55.824 C 247.187 55.824,246.713 55.446,246.380 54.984 C 246.047 54.523,245.439 54.145,245.028 54.145 C 244.617 54.145,244.281 53.956,244.281 53.725 C 244.281 53.494,243.847 53.305,243.316 53.305 C 242.785 53.305,242.115 53.069,241.826 52.781 C 241.288 52.241,226.309 51.816,224.974 52.302 M234.208 67.996 C 234.208 68.227,234.497 68.416,234.851 68.416 C 235.204 68.416,235.615 68.746,235.764 69.150 C 235.913 69.554,236.238 70.019,236.486 70.184 C 237.170 70.639,237.100 88.775,236.411 89.465 C 236.123 89.753,235.887 90.343,235.887 90.775 C 235.887 92.125,234.790 92.820,232.881 92.679 C 230.607 92.512,229.665 91.057,229.621 87.643 C 229.605 86.329,229.402 85.137,229.171 84.995 C 228.933 84.848,228.751 82.760,228.751 80.168 C 228.751 77.576,228.933 75.488,229.171 75.341 C 229.402 75.198,229.591 74.160,229.591 73.033 C 229.591 71.906,229.780 70.867,230.010 70.724 C 230.241 70.581,230.430 70.048,230.430 69.540 C 230.430 68.999,230.822 68.420,231.375 68.147 C 232.594 67.543,234.208 67.457,234.208 67.996 M294.858 98.636 C 294.716 98.867,293.771 99.056,292.760 99.056 C 291.748 99.056,290.804 99.244,290.661 99.475 C 290.518 99.706,289.941 99.895,289.377 99.895 C 288.814 99.895,288.353 100.039,288.353 100.216 C 288.353 100.392,287.644 100.876,286.779 101.290 C 282.255 103.456,280.973 104.738,278.831 109.234 C 278.418 110.100,277.937 110.808,277.760 110.808 C 277.584 110.808,277.440 111.186,277.440 111.647 C 277.440 112.109,277.251 112.487,277.020 112.487 C 276.789 112.487,276.600 113.137,276.600 113.931 C 276.600 114.726,276.411 115.492,276.180 115.635 C 275.950 115.778,275.761 116.533,275.761 117.314 C 275.761 118.094,275.572 118.850,275.341 118.993 C 275.086 119.150,274.921 122.277,274.921 126.967 C 274.921 131.658,275.086 134.785,275.341 134.942 C 275.572 135.085,275.761 135.840,275.761 136.621 C 275.761 137.402,275.950 138.157,276.180 138.300 C 276.411 138.443,276.600 139.009,276.600 139.559 C 276.600 140.109,276.789 140.676,277.020 140.818 C 277.251 140.961,277.440 141.539,277.440 142.102 C 277.440 142.666,277.629 143.127,277.859 143.127 C 278.090 143.127,278.279 143.381,278.279 143.692 C 278.279 144.002,278.657 144.598,279.119 145.016 C 279.580 145.434,279.958 145.988,279.958 146.247 C 279.958 147.068,285.154 151.876,286.359 152.170 C 286.994 152.325,287.513 152.620,287.513 152.826 C 287.513 153.032,287.891 153.200,288.353 153.200 C 288.814 153.200,289.192 153.389,289.192 153.620 C 289.192 153.851,289.653 154.040,290.217 154.040 C 290.780 154.040,291.358 154.229,291.501 154.460 C 291.643 154.690,292.399 154.879,293.179 154.879 C 293.960 154.879,294.716 155.068,294.858 155.299 C 295.004 155.535,297.023 155.719,299.475 155.719 C 301.928 155.719,303.946 155.535,304.092 155.299 C 304.235 155.068,304.991 154.879,305.771 154.879 C 306.552 154.879,307.307 154.690,307.450 154.460 C 307.593 154.229,308.171 154.040,308.734 154.040 C 309.298 154.040,309.759 153.886,309.759 153.698 C 309.759 153.511,310.420 153.098,311.228 152.780 C 312.037 152.463,313.108 151.767,313.610 151.233 C 314.112 150.699,314.739 150.262,315.005 150.262 C 315.876 150.262,317.788 147.902,318.931 145.418 C 319.148 144.947,319.628 144.310,319.998 144.003 C 320.369 143.695,320.672 142.995,320.672 142.446 C 320.672 141.897,320.813 141.447,320.986 141.445 C 321.490 141.440,322.350 139.287,322.350 138.031 C 322.350 137.398,322.539 136.764,322.770 136.621 C 323.001 136.479,323.190 135.251,323.190 133.893 C 323.190 132.535,323.379 131.307,323.610 131.165 C 323.841 131.022,324.029 129.322,324.029 127.387 C 324.029 125.452,323.841 123.752,323.610 123.610 C 323.379 123.467,323.190 122.050,323.190 120.462 C 323.190 118.873,323.001 117.456,322.770 117.314 C 322.539 117.171,322.350 116.537,322.350 115.904 C 322.350 114.648,321.490 112.495,320.986 112.490 C 320.813 112.488,320.672 112.109,320.672 111.647 C 320.672 111.186,320.529 110.808,320.354 110.808 C 320.180 110.808,319.776 110.194,319.456 109.444 C 319.137 108.694,318.457 107.608,317.946 107.030 C 317.435 106.453,316.901 105.651,316.759 105.247 C 316.617 104.843,316.247 104.512,315.936 104.512 C 315.626 104.512,314.829 103.945,314.166 103.253 C 313.502 102.560,312.735 101.994,312.460 101.994 C 312.185 101.994,311.725 101.710,311.438 101.364 C 311.150 101.018,310.466 100.735,309.917 100.735 C 309.368 100.735,308.918 100.593,308.916 100.420 C 308.910 99.849,306.681 99.056,305.083 99.056 C 304.219 99.056,303.396 98.867,303.253 98.636 C 303.110 98.404,301.228 98.216,299.056 98.216 C 296.883 98.216,295.001 98.404,294.858 98.636 M301.652 115.918 C 302.334 116.559,302.623 117.302,302.623 118.411 C 302.623 119.281,302.812 120.109,303.043 120.252 C 303.293 120.407,303.463 123.116,303.463 126.967 C 303.463 130.819,303.293 133.528,303.043 133.683 C 302.812 133.826,302.623 134.654,302.623 135.523 C 302.623 138.650,297.723 140.465,296.543 137.775 C 296.315 137.256,295.984 136.831,295.808 136.831 C 295.632 136.831,295.488 135.803,295.488 134.547 C 295.488 133.291,295.299 132.147,295.068 132.004 C 294.828 131.856,294.648 129.700,294.648 126.967 C 294.648 124.235,294.828 122.079,295.068 121.931 C 295.299 121.788,295.488 120.644,295.488 119.388 C 295.488 118.132,295.677 117.104,295.908 117.104 C 296.139 117.104,296.327 116.858,296.327 116.558 C 296.327 114.819,300.011 114.376,301.652 115.918 " stroke="none" fill="#000000" fill-rule="evenodd"></path><path id="path1" d="M0.000 104.932 L 0.000 209.864 200.000 209.864 L 400.000 209.864 400.000 104.932 L 400.000 0.000 200.000 0.000 L 0.000 0.000 0.000 104.932 M384.260 2.099 C 384.403 2.329,385.085 2.518,385.777 2.518 C 387.430 2.518,390.299 3.851,391.574 5.211 C 392.133 5.807,392.761 6.296,392.968 6.296 C 393.455 6.296,394.544 7.384,394.544 7.872 C 394.544 8.079,395.021 8.696,395.604 9.244 C 396.997 10.553,397.792 12.203,398.137 14.504 C 398.291 15.536,398.585 16.483,398.789 16.609 C 399.326 16.941,399.278 191.693,398.741 192.025 C 398.510 192.168,398.321 192.766,398.321 193.354 C 398.321 196.773,392.623 203.864,388.067 206.114 L 385.998 207.135 272.613 207.135 L 159.228 207.135 157.159 206.086 C 156.020 205.509,155.026 204.895,154.949 204.722 C 154.872 204.549,154.495 204.405,154.110 204.403 C 153.725 204.401,152.964 203.835,152.419 203.144 C 151.873 202.454,151.198 201.889,150.918 201.889 C 150.638 201.889,149.965 201.417,149.423 200.839 C 148.881 200.262,148.222 199.790,147.959 199.790 C 147.696 199.790,146.938 199.224,146.275 198.531 C 145.611 197.838,144.853 197.272,144.591 197.272 C 144.328 197.272,143.669 196.800,143.127 196.222 C 142.585 195.645,141.929 195.173,141.670 195.173 C 141.411 195.173,140.461 194.418,139.559 193.494 C 138.658 192.571,137.710 191.815,137.454 191.815 C 137.198 191.815,136.445 191.249,135.782 190.556 C 135.118 189.864,134.360 189.297,134.097 189.297 C 133.835 189.297,133.176 188.825,132.634 188.248 C 132.092 187.671,131.473 187.198,131.260 187.198 C 131.047 187.198,130.343 186.632,129.696 185.939 C 129.049 185.247,128.345 184.680,128.131 184.680 C 127.918 184.680,127.300 184.208,126.758 183.631 C 126.215 183.054,125.557 182.581,125.294 182.581 C 125.031 182.581,124.273 182.015,123.610 181.322 C 122.946 180.630,122.191 180.063,121.931 180.063 C 121.671 180.063,120.915 179.496,120.252 178.804 C 119.588 178.111,118.830 177.545,118.568 177.545 C 118.305 177.545,117.646 177.072,117.104 176.495 C 116.562 175.918,115.903 175.446,115.640 175.446 C 115.377 175.446,114.619 174.879,113.956 174.187 C 113.292 173.494,112.594 172.928,112.405 172.928 C 112.215 172.928,111.467 172.361,110.742 171.668 C 110.017 170.976,109.195 170.409,108.916 170.409 C 108.636 170.409,108.053 169.937,107.619 169.360 C 107.186 168.783,106.571 168.311,106.253 168.311 C 105.935 168.311,105.047 167.626,104.281 166.789 C 102.956 165.343,102.004 164.651,100.105 163.752 C 99.643 163.534,98.615 162.676,97.819 161.845 C 97.023 161.015,96.159 160.336,95.898 160.336 C 95.638 160.336,94.981 159.864,94.439 159.286 C 93.896 158.709,93.238 158.237,92.975 158.237 C 92.712 158.237,91.954 157.671,91.291 156.978 C 90.627 156.285,89.872 155.719,89.612 155.719 C 89.352 155.719,88.596 155.152,87.933 154.460 C 87.269 153.767,86.511 153.200,86.249 153.200 C 85.986 153.200,85.327 152.728,84.785 152.151 C 84.243 151.574,83.624 151.102,83.411 151.102 C 83.198 151.102,82.494 150.535,81.847 149.843 C 81.200 149.150,80.416 148.582,80.104 148.580 C 79.793 148.578,79.092 148.011,78.547 147.320 C 78.001 146.630,77.326 146.065,77.046 146.065 C 76.766 146.065,76.093 145.593,75.551 145.016 C 75.009 144.439,74.350 143.966,74.087 143.966 C 73.824 143.966,73.066 143.400,72.403 142.707 C 71.739 142.015,70.982 141.448,70.719 141.448 C 70.456 141.448,69.797 140.976,69.255 140.399 C 68.713 139.822,68.069 139.349,67.825 139.349 C 67.229 139.349,58.342 130.468,58.342 129.873 C 58.342 129.616,57.964 129.064,57.503 128.646 C 57.041 128.229,56.663 127.656,56.663 127.374 C 56.663 127.091,56.371 126.618,56.013 126.321 C 55.655 126.024,54.991 125.009,54.536 124.066 C 54.082 123.122,53.336 121.692,52.878 120.888 C 52.421 120.084,52.046 119.009,52.046 118.499 C 52.046 117.990,51.857 117.456,51.626 117.314 C 51.396 117.171,51.207 116.604,51.207 116.055 C 51.207 115.505,51.018 114.938,50.787 114.795 C 50.556 114.653,50.367 113.886,50.367 113.092 C 50.367 112.297,50.178 111.647,49.948 111.647 C 49.705 111.647,49.528 110.318,49.528 108.499 C 49.528 105.397,50.728 103.978,51.836 105.771 C 51.979 106.002,52.546 106.191,53.095 106.191 C 53.645 106.191,54.212 106.380,54.355 106.611 C 54.497 106.842,55.064 107.030,55.614 107.030 C 56.164 107.030,56.730 107.219,56.873 107.450 C 57.016 107.681,57.557 107.870,58.077 107.870 C 58.596 107.870,59.388 108.147,59.836 108.486 C 60.284 108.825,60.955 109.108,61.326 109.116 C 62.103 109.131,67.296 111.699,67.506 112.172 C 67.583 112.345,67.927 112.487,68.271 112.487 C 69.210 112.487,70.194 113.722,71.616 116.684 C 72.384 118.285,78.814 125.079,79.561 125.079 C 79.814 125.079,80.465 125.551,81.007 126.128 C 81.550 126.705,82.227 127.177,82.512 127.177 C 82.798 127.177,83.508 127.744,84.091 128.437 C 84.674 129.129,85.348 129.696,85.590 129.696 C 85.832 129.696,86.552 130.156,87.191 130.719 C 90.019 133.212,91.429 134.313,91.792 134.313 C 92.007 134.313,92.726 134.879,93.389 135.572 C 94.053 136.264,94.811 136.831,95.074 136.831 C 95.336 136.831,95.995 137.303,96.537 137.880 C 97.079 138.458,97.738 138.930,98.001 138.930 C 98.264 138.930,99.022 139.496,99.685 140.189 C 100.349 140.881,101.104 141.448,101.364 141.448 C 101.624 141.448,102.380 142.015,103.043 142.707 C 103.707 143.400,104.460 143.966,104.718 143.966 C 104.976 143.966,105.828 144.627,106.611 145.435 C 107.394 146.243,108.205 146.905,108.413 146.905 C 108.622 146.905,109.322 147.471,109.969 148.164 C 110.615 148.856,111.361 149.423,111.625 149.423 C 111.889 149.423,112.578 149.895,113.155 150.472 C 113.732 151.049,114.337 151.522,114.500 151.523 C 114.662 151.525,115.399 152.091,116.137 152.783 C 116.874 153.474,117.642 154.040,117.842 154.040 C 118.042 154.040,118.749 154.607,119.412 155.299 C 120.076 155.992,120.834 156.558,121.097 156.558 C 121.359 156.558,122.018 157.030,122.560 157.608 C 123.103 158.185,123.761 158.657,124.024 158.657 C 124.287 158.657,125.045 159.224,125.708 159.916 C 126.372 160.609,127.127 161.175,127.387 161.175 C 127.647 161.175,128.403 161.742,129.066 162.434 C 129.730 163.127,130.488 163.694,130.750 163.694 C 131.013 163.694,131.672 164.166,132.214 164.743 C 132.756 165.320,133.374 165.792,133.588 165.792 C 133.801 165.792,134.505 166.359,135.152 167.051 C 135.799 167.744,136.630 168.311,136.999 168.311 C 137.369 168.311,137.672 168.452,137.673 168.625 C 137.675 168.799,138.374 169.412,139.227 169.990 C 140.080 170.567,141.394 171.653,142.148 172.403 C 142.902 173.153,143.681 173.767,143.879 173.767 C 144.078 173.767,144.683 174.239,145.226 174.816 C 145.768 175.393,146.426 175.866,146.689 175.866 C 146.952 175.866,147.710 176.432,148.374 177.125 C 149.037 177.817,149.793 178.384,150.052 178.384 C 150.312 178.384,151.068 178.951,151.731 179.643 C 152.395 180.336,153.153 180.902,153.416 180.902 C 153.678 180.902,154.337 181.375,154.879 181.952 C 155.422 182.529,156.080 183.001,156.343 183.001 C 156.606 183.001,157.364 183.568,158.027 184.260 C 158.691 184.953,159.412 185.519,159.631 185.519 C 159.849 185.519,160.333 185.852,160.706 186.259 C 161.080 186.665,162.081 187.515,162.931 188.147 L 164.477 189.297 272.375 189.297 L 380.273 189.297 380.273 104.512 L 380.273 19.727 273.477 19.727 C 202.733 19.727,166.594 19.869,166.422 20.147 C 166.279 20.378,165.654 20.580,165.033 20.597 C 164.412 20.614,163.337 20.989,162.644 21.431 C 161.952 21.872,161.000 22.405,160.528 22.615 C 160.057 22.826,159.420 23.301,159.113 23.671 C 158.806 24.041,158.329 24.344,158.054 24.344 C 157.780 24.344,157.012 24.911,156.348 25.603 C 155.685 26.296,154.917 26.863,154.642 26.863 C 154.368 26.863,153.891 27.166,153.584 27.536 C 153.277 27.906,152.640 28.378,152.168 28.584 C 150.779 29.192,149.730 29.937,148.533 31.165 C 147.914 31.800,147.147 32.319,146.829 32.319 C 146.511 32.319,145.978 32.697,145.645 33.158 C 145.313 33.620,144.832 33.998,144.577 33.998 C 144.321 33.998,143.669 34.470,143.127 35.047 C 142.585 35.624,141.920 36.097,141.650 36.097 C 141.380 36.097,140.817 36.474,140.399 36.936 C 139.981 37.398,139.414 37.775,139.140 37.775 C 138.865 37.775,138.298 38.153,137.880 38.615 C 137.463 39.077,136.900 39.454,136.629 39.454 C 136.359 39.454,135.694 39.927,135.152 40.504 C 134.610 41.081,133.945 41.553,133.675 41.553 C 133.405 41.553,132.842 41.931,132.424 42.392 C 132.006 42.854,131.503 43.232,131.306 43.232 C 131.109 43.232,130.354 43.799,129.630 44.491 C 128.905 45.184,128.051 45.750,127.732 45.750 C 127.412 45.750,127.042 46.034,126.909 46.380 C 126.777 46.726,126.433 47.009,126.145 47.009 C 125.858 47.009,125.030 47.576,124.305 48.269 C 123.581 48.961,122.826 49.528,122.629 49.528 C 122.432 49.528,121.929 49.906,121.511 50.367 C 121.093 50.829,120.530 51.207,120.260 51.207 C 119.990 51.207,119.325 51.679,118.783 52.256 C 118.241 52.833,117.582 53.305,117.319 53.305 C 117.056 53.305,116.298 53.872,115.635 54.565 C 114.971 55.257,114.210 55.824,113.942 55.824 C 113.675 55.824,113.115 56.201,112.697 56.663 C 112.279 57.125,111.716 57.503,111.446 57.503 C 111.175 57.503,110.511 57.975,109.969 58.552 C 109.426 59.129,108.754 59.601,108.474 59.601 C 108.194 59.601,107.518 60.166,106.973 60.857 C 106.427 61.547,105.692 62.114,105.339 62.116 C 104.986 62.118,104.425 62.497,104.092 62.959 C 103.760 63.421,103.279 63.799,103.024 63.799 C 102.768 63.799,102.116 64.271,101.574 64.848 C 101.032 65.425,100.373 65.897,100.110 65.897 C 99.847 65.897,99.090 66.464,98.426 67.156 C 97.763 67.849,97.007 68.416,96.747 68.416 C 96.487 68.416,95.732 68.982,95.068 69.675 C 94.405 70.367,93.647 70.934,93.384 70.934 C 93.121 70.934,92.462 71.406,91.920 71.983 C 91.378 72.560,90.671 73.033,90.349 73.033 C 89.442 73.033,89.895 74.832,90.931 75.347 C 91.426 75.593,92.154 76.062,92.550 76.390 C 93.357 77.060,94.648 77.840,95.919 78.425 C 96.388 78.641,97.141 79.310,97.593 79.912 C 98.045 80.515,98.673 81.007,98.987 81.007 C 99.301 81.007,100.092 81.579,100.745 82.277 C 101.430 83.011,102.043 83.365,102.197 83.117 C 102.343 82.880,103.196 82.686,104.092 82.686 C 104.988 82.686,105.838 82.497,105.981 82.267 C 106.321 81.717,111.647 81.717,111.647 82.267 C 111.647 82.497,112.406 82.686,113.332 82.686 C 114.259 82.686,115.345 82.869,115.745 83.091 C 116.146 83.314,117.341 83.871,118.399 84.330 C 119.458 84.788,120.567 85.456,120.864 85.813 C 121.161 86.171,121.563 86.464,121.758 86.464 C 122.313 86.464,125.534 89.518,125.964 90.451 C 126.176 90.913,126.711 91.857,127.153 92.550 C 127.594 93.242,127.969 94.223,127.986 94.729 C 128.003 95.234,128.206 95.765,128.437 95.908 C 128.667 96.050,128.856 96.628,128.856 97.192 C 128.856 97.755,129.045 98.216,129.276 98.216 C 129.530 98.216,129.696 100.027,129.696 102.808 C 129.696 105.417,129.514 107.513,129.276 107.660 C 129.045 107.803,128.856 108.254,128.856 108.663 C 128.856 109.072,128.385 110.336,127.809 111.471 C 127.233 112.607,126.760 113.743,126.759 113.996 C 126.758 114.249,126.380 114.797,125.918 115.215 C 125.456 115.633,125.079 116.143,125.079 116.349 C 125.079 116.920,123.089 118.782,122.474 118.787 C 122.175 118.789,121.494 119.343,120.961 120.018 C 120.428 120.693,119.439 121.367,118.763 121.515 C 118.086 121.664,117.425 121.960,117.294 122.173 C 117.162 122.386,116.604 122.560,116.055 122.560 C 115.505 122.560,114.938 122.749,114.795 122.980 C 114.653 123.211,113.508 123.400,112.252 123.400 C 110.996 123.400,109.969 123.589,109.969 123.820 C 109.969 124.050,109.319 124.239,108.524 124.239 C 107.730 124.239,106.963 124.050,106.821 123.820 C 106.678 123.589,105.828 123.400,104.932 123.400 C 104.036 123.400,103.186 123.211,103.043 122.980 C 102.900 122.749,102.334 122.560,101.784 122.560 C 101.234 122.560,100.676 122.386,100.545 122.173 C 100.413 121.960,99.767 121.667,99.110 121.523 C 98.452 121.379,97.380 120.703,96.728 120.022 C 96.075 119.340,95.379 118.783,95.180 118.783 C 94.705 118.783,92.760 116.827,92.760 116.349 C 92.760 116.143,92.382 115.633,91.920 115.215 C 91.459 114.797,91.081 114.231,91.081 113.956 C 91.081 113.681,90.719 113.129,90.276 112.728 C 89.804 112.301,89.354 111.147,89.187 109.935 C 89.031 108.800,88.732 107.765,88.523 107.636 C 88.314 107.506,88.143 106.652,88.143 105.736 C 88.143 104.399,87.957 103.999,87.198 103.704 C 86.679 103.503,85.699 102.752,85.021 102.036 C 84.343 101.320,83.576 100.735,83.316 100.735 C 83.056 100.735,82.300 100.168,81.637 99.475 C 80.973 98.783,80.224 98.216,79.972 98.216 C 79.720 98.216,79.241 97.838,78.909 97.377 C 78.576 96.915,77.968 96.537,77.557 96.537 C 77.146 96.537,76.810 96.358,76.810 96.139 C 76.810 95.920,75.590 95.158,74.098 94.446 C 72.607 93.735,71.277 92.976,71.144 92.760 C 70.866 92.311,65.784 89.822,65.145 89.822 C 64.913 89.822,63.646 89.255,62.329 88.562 C 61.013 87.870,59.677 87.303,59.362 87.303 C 59.046 87.303,58.115 86.925,57.293 86.464 C 56.471 86.002,55.426 85.624,54.971 85.624 C 54.517 85.624,54.145 85.435,54.145 85.205 C 54.145 84.974,53.684 84.785,53.120 84.785 C 52.557 84.785,51.994 84.621,51.870 84.420 C 51.747 84.220,50.513 83.928,49.130 83.771 C 47.747 83.615,46.504 83.307,46.368 83.087 C 46.232 82.866,45.387 82.686,44.491 82.686 C 43.595 82.686,42.745 82.497,42.602 82.267 C 42.460 82.036,41.504 81.847,40.479 81.847 C 39.454 81.847,38.615 81.658,38.615 81.427 C 38.615 81.196,37.587 81.007,36.331 81.007 C 35.075 81.007,33.931 80.818,33.788 80.588 C 33.645 80.357,32.040 80.168,30.220 80.168 C 28.401 80.168,26.795 79.979,26.653 79.748 C 26.494 79.491,23.159 79.328,18.048 79.328 C 13.459 79.328,9.599 79.160,9.473 78.955 C 9.346 78.750,8.721 78.454,8.084 78.298 C 6.536 77.919,3.039 74.446,2.714 72.965 C 2.571 72.315,2.279 71.675,2.066 71.544 C 1.853 71.412,1.679 70.654,1.679 69.860 C 1.679 69.065,1.490 68.416,1.259 68.416 C 1.028 68.416,0.839 67.766,0.839 66.971 C 0.839 66.177,1.028 65.410,1.259 65.268 C 1.490 65.125,1.679 64.558,1.679 64.008 C 1.679 63.459,1.868 62.892,2.099 62.749 C 2.329 62.607,2.518 62.060,2.518 61.535 C 2.518 59.380,8.741 54.984,11.792 54.984 C 12.694 54.984,13.431 54.795,13.431 54.565 C 13.431 54.302,16.011 54.145,20.332 54.145 C 24.480 54.145,27.336 54.312,27.492 54.565 C 27.635 54.795,29.429 54.984,31.480 54.984 C 33.530 54.984,35.324 55.173,35.467 55.404 C 35.610 55.635,36.837 55.824,38.195 55.824 C 39.553 55.824,40.781 56.013,40.923 56.243 C 41.066 56.474,42.105 56.663,43.232 56.663 C 44.359 56.663,45.398 56.852,45.540 57.083 C 45.683 57.314,46.439 57.503,47.219 57.503 C 48.000 57.503,48.742 57.669,48.868 57.873 C 48.993 58.076,50.325 58.375,51.826 58.535 C 53.327 58.696,54.663 59.002,54.795 59.214 C 54.926 59.427,55.673 59.601,56.453 59.601 C 57.234 59.601,57.990 59.790,58.132 60.021 C 58.275 60.252,58.853 60.441,59.416 60.441 C 59.980 60.441,60.441 60.630,60.441 60.860 C 60.441 61.091,60.902 61.280,61.465 61.280 C 62.029 61.280,62.607 61.469,62.749 61.700 C 62.892 61.931,63.369 62.120,63.811 62.120 C 64.252 62.120,65.285 62.497,66.107 62.959 C 66.929 63.421,67.962 63.799,68.404 63.799 C 68.845 63.799,69.322 63.987,69.465 64.218 C 70.058 65.178,71.870 64.606,73.452 62.959 C 74.339 62.036,75.234 61.280,75.439 61.280 C 75.645 61.280,76.356 60.714,77.020 60.021 C 77.683 59.328,78.441 58.762,78.704 58.762 C 78.967 58.762,79.626 58.290,80.168 57.712 C 80.710 57.135,81.369 56.663,81.632 56.663 C 81.894 56.663,82.652 56.097,83.316 55.404 C 83.979 54.711,84.737 54.145,85.000 54.145 C 85.263 54.145,85.922 53.673,86.464 53.095 C 87.006 52.518,87.665 52.046,87.927 52.046 C 88.190 52.046,88.948 51.480,89.612 50.787 C 90.275 50.094,91.031 49.528,91.291 49.528 C 91.551 49.528,92.306 48.961,92.970 48.269 C 93.633 47.576,94.338 47.009,94.535 47.009 C 94.733 47.009,95.404 46.537,96.027 45.960 C 96.649 45.383,97.355 44.911,97.595 44.911 C 97.835 44.911,98.303 44.533,98.636 44.071 C 98.969 43.610,99.495 43.232,99.805 43.232 C 100.115 43.232,100.846 42.665,101.429 41.973 C 102.011 41.280,102.722 40.714,103.007 40.714 C 103.293 40.714,103.970 40.241,104.512 39.664 C 105.054 39.087,105.719 38.615,105.989 38.615 C 106.259 38.615,106.822 38.237,107.240 37.775 C 107.658 37.314,108.221 36.936,108.491 36.936 C 108.762 36.936,109.441 36.444,110.000 35.842 C 110.560 35.241,111.396 34.571,111.857 34.355 C 113.540 33.567,114.573 32.866,115.674 31.765 C 116.293 31.146,117.056 30.640,117.371 30.640 C 117.686 30.640,117.947 30.498,117.953 30.325 C 117.958 30.152,118.807 29.444,119.840 28.751 C 120.874 28.059,121.719 27.350,121.720 27.177 C 121.720 27.004,121.975 26.863,122.285 26.863 C 122.596 26.863,123.192 26.485,123.610 26.023 C 124.027 25.561,124.566 25.184,124.806 25.184 C 125.046 25.184,125.760 24.688,126.393 24.081 C 127.519 23.003,128.639 22.258,130.325 21.469 C 130.787 21.252,131.623 20.583,132.182 19.982 C 132.742 19.380,133.421 18.888,133.691 18.888 C 133.961 18.888,134.524 18.510,134.942 18.048 C 135.360 17.587,135.927 17.209,136.201 17.209 C 136.476 17.209,137.043 16.831,137.461 16.369 C 137.878 15.908,138.461 15.530,138.754 15.530 C 139.048 15.530,139.660 15.058,140.114 14.481 C 140.568 13.903,141.201 13.431,141.521 13.431 C 141.841 13.431,142.374 13.054,142.707 12.592 C 143.040 12.130,143.525 11.752,143.784 11.752 C 144.044 11.752,144.598 11.375,145.016 10.913 C 145.434 10.451,145.997 10.073,146.267 10.073 C 146.537 10.073,147.202 9.601,147.744 9.024 C 148.286 8.447,148.951 7.975,149.221 7.975 C 149.491 7.975,150.054 7.597,150.472 7.135 C 150.890 6.674,151.457 6.296,151.731 6.296 C 152.006 6.296,152.573 5.918,152.991 5.456 C 153.408 4.995,153.975 4.617,154.250 4.617 C 154.524 4.617,155.084 4.248,155.492 3.796 C 155.901 3.344,157.066 2.850,158.081 2.698 C 159.096 2.546,160.030 2.254,160.156 2.050 C 160.488 1.513,383.928 1.562,384.260 2.099 M298.117 51.731 C 299.594 52.557,301.784 54.674,301.784 55.276 C 301.784 55.577,301.973 55.824,302.204 55.824 C 302.446 55.824,302.623 57.153,302.623 58.972 C 302.623 60.703,302.481 62.120,302.306 62.120 C 302.132 62.120,301.727 62.733,301.407 63.484 C 301.087 64.234,300.488 65.226,300.076 65.687 C 299.665 66.149,299.202 67.032,299.049 67.650 C 298.896 68.268,298.409 69.100,297.969 69.499 C 297.528 69.898,297.167 70.449,297.167 70.724 C 297.167 70.999,296.789 71.565,296.327 71.983 C 295.866 72.401,295.488 72.997,295.488 73.307 C 295.488 73.618,295.299 73.872,295.068 73.872 C 294.837 73.872,294.648 74.180,294.648 74.557 C 294.648 74.934,294.301 75.548,293.876 75.921 C 293.451 76.295,292.986 77.076,292.843 77.658 C 292.700 78.240,292.197 79.129,291.727 79.634 C 291.256 80.139,290.871 80.726,290.871 80.938 C 290.871 81.151,290.578 81.567,290.221 81.864 C 289.863 82.161,289.190 83.176,288.725 84.119 C 287.563 86.477,286.915 87.589,286.199 88.455 C 285.863 88.860,285.314 89.759,284.980 90.451 C 284.645 91.144,284.039 92.016,283.634 92.389 C 283.228 92.763,282.896 93.331,282.896 93.652 C 282.896 93.974,282.535 94.462,282.094 94.737 C 281.653 95.013,281.169 95.801,281.018 96.488 C 280.867 97.176,280.463 97.971,280.120 98.256 C 279.777 98.540,279.138 99.561,278.699 100.525 C 278.260 101.488,277.608 102.519,277.251 102.816 C 276.893 103.113,276.600 103.587,276.600 103.869 C 276.600 104.151,276.233 104.714,275.785 105.120 C 275.336 105.526,274.853 106.386,274.711 107.030 C 274.570 107.675,274.087 108.535,273.638 108.941 C 273.190 109.347,272.823 109.864,272.823 110.089 C 272.823 110.315,272.491 110.805,272.085 111.178 C 271.680 111.552,271.074 112.424,270.739 113.116 C 270.405 113.809,269.856 114.707,269.520 115.113 C 268.804 115.978,268.156 117.090,266.994 119.449 C 266.529 120.392,265.856 121.407,265.498 121.704 C 265.141 122.001,264.848 122.504,264.848 122.822 C 264.848 123.140,264.659 123.400,264.428 123.400 C 264.197 123.400,264.008 123.708,264.008 124.085 C 264.008 124.462,263.678 125.079,263.274 125.455 C 262.392 126.277,261.779 127.238,260.679 129.522 C 260.224 130.465,259.560 131.480,259.202 131.777 C 258.845 132.074,258.552 132.554,258.552 132.844 C 258.552 133.133,258.259 133.613,257.902 133.910 C 257.544 134.207,256.873 135.222,256.411 136.165 C 254.844 139.363,253.730 141.236,252.992 141.917 C 252.587 142.290,252.256 142.859,252.256 143.180 C 252.256 143.502,251.895 143.990,251.454 144.265 C 251.013 144.541,250.530 145.322,250.381 146.002 C 250.232 146.681,249.743 147.569,249.294 147.975 C 248.846 148.381,248.478 148.944,248.478 149.227 C 248.478 149.509,248.192 149.978,247.841 150.269 C 247.491 150.560,246.894 151.480,246.515 152.314 C 243.160 159.702,233.568 160.623,230.204 153.881 C 228.992 151.452,229.912 145.695,231.687 144.597 C 231.921 144.453,232.488 143.508,232.949 142.497 C 233.409 141.487,233.976 140.542,234.208 140.399 C 234.440 140.255,235.019 139.347,235.495 138.380 C 236.673 135.984,237.319 134.872,238.041 134.001 C 238.376 133.595,238.925 132.697,239.260 132.004 C 239.594 131.312,240.200 130.440,240.606 130.066 C 241.011 129.693,241.343 129.121,241.343 128.795 C 241.343 128.469,241.714 127.935,242.167 127.608 C 242.620 127.282,243.103 126.504,243.240 125.880 C 243.377 125.256,243.856 124.414,244.305 124.008 C 244.754 123.602,245.121 123.039,245.121 122.757 C 245.121 122.474,245.413 122.001,245.771 121.704 C 246.129 121.407,246.780 120.376,247.219 119.412 C 247.658 118.449,248.298 117.428,248.641 117.144 C 248.983 116.859,249.378 116.109,249.516 115.477 C 249.655 114.846,250.139 114.062,250.593 113.735 C 251.046 113.408,251.417 112.874,251.417 112.548 C 251.417 112.222,251.757 111.650,252.172 111.277 C 252.588 110.904,253.263 109.937,253.672 109.129 C 254.833 106.836,255.427 105.837,256.105 105.040 C 256.450 104.634,257.052 103.602,257.443 102.746 C 257.835 101.890,258.333 101.079,258.552 100.944 C 258.770 100.809,259.279 99.999,259.681 99.143 C 260.084 98.287,260.558 97.398,260.735 97.167 C 260.913 96.936,261.498 96.180,262.035 95.488 C 262.573 94.795,263.336 93.528,263.732 92.673 C 264.127 91.817,264.635 91.003,264.860 90.863 C 265.085 90.724,265.659 89.819,266.135 88.852 C 267.389 86.302,267.982 85.308,268.768 84.440 C 269.151 84.016,269.465 83.448,269.465 83.178 C 269.465 82.907,269.654 82.686,269.885 82.686 C 270.115 82.686,270.304 82.350,270.304 81.939 C 270.304 81.529,270.682 80.920,271.144 80.588 C 271.605 80.255,271.983 79.770,271.983 79.511 C 271.983 79.251,272.350 78.707,272.799 78.301 C 273.247 77.895,273.732 77.028,273.875 76.376 C 274.019 75.723,274.416 74.956,274.759 74.672 C 275.102 74.387,275.742 73.366,276.180 72.403 C 276.619 71.440,277.271 70.409,277.629 70.112 C 277.986 69.815,278.279 69.341,278.279 69.059 C 278.279 68.777,278.640 68.219,279.081 67.820 C 279.522 67.421,280.007 66.598,280.160 65.990 C 280.312 65.382,280.801 64.630,281.247 64.318 C 281.692 64.006,282.057 63.514,282.057 63.224 C 282.057 62.935,282.387 62.331,282.791 61.884 C 283.195 61.436,283.801 60.504,284.137 59.811 C 284.474 59.119,285.023 58.220,285.359 57.815 C 286.036 56.996,286.851 55.642,287.451 54.337 C 287.880 53.406,288.775 52.571,290.181 51.789 C 291.398 51.113,296.939 51.073,298.117 51.731 M241.826 52.781 C 242.115 53.069,242.785 53.305,243.316 53.305 C 243.847 53.305,244.281 53.494,244.281 53.725 C 244.281 53.956,244.617 54.145,245.028 54.145 C 245.439 54.145,246.047 54.523,246.380 54.984 C 246.713 55.446,247.187 55.824,247.434 55.824 C 247.996 55.824,251.417 59.273,251.417 59.839 C 251.417 60.068,251.794 60.528,252.256 60.860 C 252.718 61.193,253.095 61.786,253.095 62.177 C 253.095 62.569,253.237 62.952,253.410 63.029 C 254.153 63.359,255.638 67.002,255.884 69.099 C 256.031 70.352,256.314 71.477,256.512 71.600 C 256.984 71.891,256.984 89.284,256.512 89.575 C 256.314 89.698,256.031 90.823,255.884 92.076 C 255.606 94.441,254.263 97.509,252.991 98.685 C 252.587 99.058,252.256 99.551,252.256 99.779 C 252.256 100.321,248.065 104.512,247.523 104.512 C 247.295 104.512,246.802 104.843,246.429 105.247 C 245.405 106.355,242.251 107.870,240.968 107.870 C 240.343 107.870,239.622 108.080,239.365 108.337 C 239.066 108.636,236.758 108.804,232.949 108.804 C 229.140 108.804,226.831 108.636,226.532 108.337 C 226.275 108.080,225.723 107.870,225.304 107.870 C 224.885 107.870,224.215 107.697,223.814 107.485 C 223.413 107.274,222.403 106.805,221.569 106.444 C 220.735 106.082,219.815 105.500,219.524 105.149 C 219.233 104.799,218.789 104.512,218.537 104.512 C 217.925 104.512,214.481 101.107,214.481 100.502 C 214.481 100.240,214.103 99.683,213.641 99.265 C 213.179 98.848,212.802 98.347,212.802 98.154 C 212.802 97.486,211.343 94.439,211.024 94.439 C 210.847 94.439,210.703 93.978,210.703 93.414 C 210.703 92.851,210.514 92.273,210.283 92.130 C 210.052 91.987,209.864 91.232,209.864 90.451 C 209.864 89.670,209.675 88.915,209.444 88.772 C 209.187 88.613,209.024 85.278,209.024 80.168 C 209.024 75.057,209.187 71.722,209.444 71.563 C 209.675 71.421,209.864 70.654,209.864 69.860 C 209.864 69.065,210.052 68.416,210.283 68.416 C 210.514 68.416,210.703 67.881,210.703 67.227 C 210.703 66.574,211.174 65.110,211.751 63.975 C 212.327 62.839,212.799 61.716,212.800 61.480 C 212.807 59.799,220.677 53.866,224.974 52.302 C 226.309 51.816,241.288 52.241,241.826 52.781 M231.375 68.147 C 230.822 68.420,230.430 68.999,230.430 69.540 C 230.430 70.048,230.241 70.581,230.010 70.724 C 229.780 70.867,229.591 71.906,229.591 73.033 C 229.591 74.160,229.402 75.198,229.171 75.341 C 228.933 75.488,228.751 77.576,228.751 80.168 C 228.751 82.760,228.933 84.848,229.171 84.995 C 229.402 85.137,229.605 86.329,229.621 87.643 C 229.665 91.057,230.607 92.512,232.881 92.679 C 234.790 92.820,235.887 92.125,235.887 90.775 C 235.887 90.343,236.123 89.753,236.411 89.465 C 237.100 88.775,237.170 70.639,236.486 70.184 C 236.238 70.019,235.913 69.554,235.764 69.150 C 235.615 68.746,235.204 68.416,234.851 68.416 C 234.497 68.416,234.208 68.227,234.208 67.996 C 234.208 67.457,232.594 67.543,231.375 68.147 M303.253 98.636 C 303.396 98.867,304.219 99.056,305.083 99.056 C 306.681 99.056,308.910 99.849,308.916 100.420 C 308.918 100.593,309.368 100.735,309.917 100.735 C 310.466 100.735,311.150 101.018,311.438 101.364 C 311.725 101.710,312.185 101.994,312.460 101.994 C 312.735 101.994,313.502 102.560,314.166 103.253 C 314.829 103.945,315.626 104.512,315.936 104.512 C 316.247 104.512,316.617 104.843,316.759 105.247 C 316.901 105.651,317.435 106.453,317.946 107.030 C 318.457 107.608,319.137 108.694,319.456 109.444 C 319.776 110.194,320.180 110.808,320.354 110.808 C 320.529 110.808,320.672 111.186,320.672 111.647 C 320.672 112.109,320.813 112.488,320.986 112.490 C 321.490 112.495,322.350 114.648,322.350 115.904 C 322.350 116.537,322.539 117.171,322.770 117.314 C 323.001 117.456,323.190 118.873,323.190 120.462 C 323.190 122.050,323.379 123.467,323.610 123.610 C 323.841 123.752,324.029 125.452,324.029 127.387 C 324.029 129.322,323.841 131.022,323.610 131.165 C 323.379 131.307,323.190 132.535,323.190 133.893 C 323.190 135.251,323.001 136.479,322.770 136.621 C 322.539 136.764,322.350 137.398,322.350 138.031 C 322.350 139.287,321.490 141.440,320.986 141.445 C 320.813 141.447,320.672 141.897,320.672 142.446 C 320.672 142.995,320.369 143.695,319.998 144.003 C 319.628 144.310,319.148 144.947,318.931 145.418 C 317.788 147.902,315.876 150.262,315.005 150.262 C 314.739 150.262,314.112 150.699,313.610 151.233 C 313.108 151.767,312.037 152.463,311.228 152.780 C 310.420 153.098,309.759 153.511,309.759 153.698 C 309.759 153.886,309.298 154.040,308.734 154.040 C 308.171 154.040,307.593 154.229,307.450 154.460 C 307.307 154.690,306.552 154.879,305.771 154.879 C 304.991 154.879,304.235 155.068,304.092 155.299 C 303.946 155.535,301.928 155.719,299.475 155.719 C 297.023 155.719,295.004 155.535,294.858 155.299 C 294.716 155.068,293.960 154.879,293.179 154.879 C 292.399 154.879,291.643 154.690,291.501 154.460 C 291.358 154.229,290.780 154.040,290.217 154.040 C 289.653 154.040,289.192 153.851,289.192 153.620 C 289.192 153.389,288.814 153.200,288.353 153.200 C 287.891 153.200,287.513 153.032,287.513 152.826 C 287.513 152.620,286.994 152.325,286.359 152.170 C 285.154 151.876,279.958 147.068,279.958 146.247 C 279.958 145.988,279.580 145.434,279.119 145.016 C 278.657 144.598,278.279 144.002,278.279 143.692 C 278.279 143.381,278.090 143.127,277.859 143.127 C 277.629 143.127,277.440 142.666,277.440 142.102 C 277.440 141.539,277.251 140.961,277.020 140.818 C 276.789 140.676,276.600 140.109,276.600 139.559 C 276.600 139.009,276.411 138.443,276.180 138.300 C 275.950 138.157,275.761 137.402,275.761 136.621 C 275.761 135.840,275.572 135.085,275.341 134.942 C 275.086 134.785,274.921 131.658,274.921 126.967 C 274.921 122.277,275.086 119.150,275.341 118.993 C 275.572 118.850,275.761 118.094,275.761 117.314 C 275.761 116.533,275.950 115.778,276.180 115.635 C 276.411 115.492,276.600 114.726,276.600 113.931 C 276.600 113.137,276.789 112.487,277.020 112.487 C 277.251 112.487,277.440 112.109,277.440 111.647 C 277.440 111.186,277.584 110.808,277.760 110.808 C 277.937 110.808,278.418 110.100,278.831 109.234 C 280.973 104.738,282.255 103.456,286.779 101.290 C 287.644 100.876,288.353 100.392,288.353 100.216 C 288.353 100.039,288.814 99.895,289.377 99.895 C 289.941 99.895,290.518 99.706,290.661 99.475 C 290.804 99.244,291.748 99.056,292.760 99.056 C 293.771 99.056,294.716 98.867,294.858 98.636 C 295.001 98.404,296.883 98.216,299.056 98.216 C 301.228 98.216,303.110 98.404,303.253 98.636 M296.831 115.509 C 296.554 115.786,296.327 116.258,296.327 116.558 C 296.327 116.858,296.139 117.104,295.908 117.104 C 295.677 117.104,295.488 118.132,295.488 119.388 C 295.488 120.644,295.299 121.788,295.068 121.931 C 294.828 122.079,294.648 124.235,294.648 126.967 C 294.648 129.700,294.828 131.856,295.068 132.004 C 295.299 132.147,295.488 133.291,295.488 134.547 C 295.488 135.803,295.632 136.831,295.808 136.831 C 295.984 136.831,296.315 137.256,296.543 137.775 C 297.723 140.465,302.623 138.650,302.623 135.523 C 302.623 134.654,302.812 133.826,303.043 133.683 C 303.293 133.528,303.463 130.819,303.463 126.967 C 303.463 123.116,303.293 120.407,303.043 120.252 C 302.812 120.109,302.623 119.281,302.623 118.411 C 302.623 115.675,298.654 113.686,296.831 115.509 " stroke="none" fill="#ffffff" fill-rule="evenodd"></path></g></svg>