<?xml version="1.0" standalone="no"?>
<!DOCTYPE svg PUBLIC "-//W3C//DTD SVG 20010904//EN"
 "http://www.w3.org/TR/2001/REC-SVG-20010904/DTD/svg10.dtd">
<svg version="1.0" xmlns="http://www.w3.org/2000/svg"
 width="128.000000pt" height="128.000000pt" viewBox="0 0 128.000000 128.000000"
 preserveAspectRatio="xMidYMid meet">
<metadata>
Created by potrace 1.10, written by Peter Selinger 2001-2011
</metadata>
<g transform="translate(0.000000,128.000000) scale(0.100000,-0.100000)"
fill="#000000" stroke="none">
<path d="M525 1188 c-90 -17 -210 -83 -281 -155 -217 -219 -216 -568 1 -785
220 -220 564 -223 783 -6 95 93 172 236 172 318 0 40 -39 80 -77 80 -45 0 -70
-25 -88 -88 -73 -252 -333 -380 -560 -273 -90 41 -148 99 -193 189 -35 72 -37
81 -37 171 0 87 3 102 32 163 44 93 100 151 191 196 72 35 81 37 171 37 89 0
101 -2 166 -34 l70 -35 -59 -6 c-45 -4 -62 -11 -77 -29 -27 -32 -24 -77 6
-106 23 -24 28 -25 175 -25 147 0 152 1 175 25 24 23 25 28 25 175 0 147 -1
152 -25 175 -15 16 -36 25 -55 25 -37 0 -80 -39 -80 -73 0 -23 0 -23 -76 14
-113 55 -233 71 -359 47z"/>
</g>
</svg>
