<?xml version="1.0" standalone="no"?>
<!DOCTYPE svg PUBLIC "-//W3C//DTD SVG 20010904//EN"
 "http://www.w3.org/TR/2001/REC-SVG-20010904/DTD/svg10.dtd">
<svg version="1.0" xmlns="http://www.w3.org/2000/svg"
 width="900.000000pt" height="462.000000pt" viewBox="0 0 900.000000 462.000000"
 preserveAspectRatio="xMidYMid meet">
<metadata>
Created by potrace 1.10, written by Peter Selinger 2001-2011
</metadata>
<g transform="translate(0.000000,462.000000) scale(0.100000,-0.100000)"
fill="#000000" stroke="none">
<path d="M6 4589 c-3 -17 -6 -1057 -6 -2310 l0 -2279 4485 0 4485 0 0 2310 0
2310 -4479 0 -4478 0 -7 -31z m4322 -438 c4 -75 -1 -81 -76 -81 -29 0 -60 -4
-70 -10 -9 -5 -43 -12 -74 -15 -31 -4 -62 -13 -69 -21 -6 -8 -23 -14 -38 -14
-54 0 -193 -66 -318 -152 -63 -43 -115 -94 -185 -181 -39 -48 -128 -230 -128
-260 0 -14 -4 -28 -9 -31 -15 -10 -22 -82 -29 -280 -5 -133 -4 -194 4 -205 6
-9 14 -32 17 -51 14 -90 57 -192 122 -289 60 -89 258 -261 300 -261 9 0 18 -7
21 -15 4 -8 12 -15 20 -15 7 0 30 -9 51 -20 65 -33 186 -82 235 -94 26 -6 53
-17 60 -24 6 -6 19 -12 27 -12 8 0 43 -10 78 -21 l63 -22 0 -544 c0 -493 -2
-544 -16 -550 -33 -12 -92 18 -227 115 -65 47 -167 196 -167 244 0 8 -7 23
-15 34 -8 10 -15 27 -15 37 0 9 -9 34 -20 54 -11 21 -20 45 -20 55 0 9 -4 20
-10 23 -5 3 -10 14 -10 23 0 29 -53 122 -86 152 -42 37 -124 60 -213 60 -86 0
-143 -27 -212 -100 -73 -76 -89 -116 -89 -216 0 -47 5 -95 12 -107 6 -12 15
-46 19 -74 7 -54 107 -271 135 -294 8 -6 14 -17 14 -23 1 -12 219 -228 268
-263 16 -13 37 -23 45 -23 9 0 19 -4 22 -10 9 -14 124 -80 141 -80 8 0 31 -9
51 -20 21 -11 50 -20 65 -20 15 0 30 -4 33 -10 3 -5 16 -10 29 -10 12 0 26 -4
32 -9 9 -9 57 -18 154 -27 30 -3 61 -11 68 -16 6 -6 12 -32 12 -59 0 -38 -4
-51 -19 -59 -13 -7 -505 -10 -1521 -10 -1420 0 -1501 1 -1506 18 -3 9 -12 29
-20 44 -8 14 -14 32 -14 39 0 12 -53 132 -70 159 -6 8 -15 26 -21 40 -6 14
-21 39 -35 57 -13 17 -24 34 -24 37 0 25 -278 326 -301 326 -4 0 -38 20 -75
45 -36 25 -73 45 -80 45 -7 0 -17 6 -21 14 -9 15 -66 46 -85 46 -7 0 -33 10
-58 22 -57 27 -80 36 -105 40 -20 3 -20 12 -23 941 -2 819 0 941 13 967 8 16
15 42 15 58 0 24 6 32 33 42 108 40 220 97 316 160 29 19 62 40 72 46 36 21
269 261 269 278 0 9 5 16 10 16 6 0 14 8 17 18 4 9 19 35 35 56 15 21 28 44
28 49 0 6 7 18 15 27 9 10 17 26 19 36 2 11 15 40 29 66 14 27 28 61 32 78 4
16 11 32 16 35 5 4 9 16 9 29 0 12 3 26 7 29 3 4 689 6 1522 5 l1516 -3 3 -64z
m3357 22 c48 -132 83 -212 107 -247 16 -21 28 -45 28 -53 0 -7 7 -16 15 -19 8
-4 15 -12 15 -19 0 -8 6 -20 13 -27 6 -7 24 -31 39 -53 15 -22 55 -67 89 -100
34 -33 76 -75 93 -93 28 -30 197 -152 211 -152 3 0 24 -13 47 -30 22 -16 50
-30 61 -30 11 0 28 -6 36 -13 9 -8 44 -24 78 -36 34 -13 64 -30 67 -38 3 -8 6
-455 6 -994 l0 -979 -44 -20 c-25 -11 -51 -20 -59 -20 -8 0 -20 -7 -27 -15 -7
-8 -23 -15 -36 -15 -26 0 -74 -26 -149 -80 -27 -20 -57 -40 -65 -44 -56 -27
-131 -93 -256 -227 -39 -42 -134 -173 -134 -185 0 -3 -12 -21 -26 -39 -14 -19
-36 -64 -49 -101 -13 -36 -28 -71 -34 -77 -6 -6 -11 -18 -11 -26 0 -33 -25
-82 -45 -87 -11 -2 -693 -3 -1515 -2 l-1495 3 -3 66 -3 66 58 7 c32 3 81 11
108 16 28 5 66 12 85 15 19 4 44 10 55 15 11 5 38 14 60 20 41 12 213 95 229
111 6 5 17 9 26 9 9 0 29 14 45 30 16 17 34 30 40 30 18 0 158 151 195 210 19
30 40 59 47 63 7 4 13 13 13 18 0 6 14 37 30 71 17 33 30 68 30 78 0 10 7 23
15 30 9 7 15 29 15 51 0 21 4 40 9 43 29 18 30 440 2 511 -5 11 -16 45 -26 75
-10 30 -31 79 -47 109 -15 30 -28 60 -28 67 0 7 -6 17 -13 21 -7 4 -23 24 -35
43 -51 84 -290 283 -364 305 -39 11 -132 49 -145 58 -7 5 -27 13 -45 17 -117
29 -164 43 -173 51 -5 5 -19 9 -31 9 -13 0 -26 5 -29 10 -3 6 -16 10 -28 10
-12 0 -39 5 -60 11 l-37 10 2 492 c3 486 3 492 23 489 81 -11 194 -92 264
-187 41 -56 78 -140 100 -230 13 -50 37 -88 88 -136 102 -97 243 -106 380 -24
18 11 33 23 33 27 0 5 17 27 38 49 l37 42 -1 136 0 136 -47 89 c-26 50 -54 97
-62 106 -8 9 -15 20 -15 24 0 27 -180 221 -245 264 -74 48 -228 122 -255 122
-15 0 -33 6 -39 14 -6 7 -39 16 -73 20 -34 3 -67 11 -72 16 -6 6 -43 10 -83
10 l-73 0 0 75 0 75 1514 0 1514 0 17 -47z m-3366 -577 c8 -9 10 -134 9 -442
l-3 -429 -28 -3 c-16 -2 -36 3 -45 10 -10 8 -37 23 -62 33 -92 40 -200 130
-229 191 -7 16 -18 38 -24 49 -10 17 -28 121 -26 150 4 90 13 153 24 165 7 8
16 26 20 39 21 68 228 231 293 231 12 0 24 5 27 10 9 14 31 12 44 -4z m356
-1616 c3 -5 13 -10 22 -10 9 0 45 -13 80 -30 34 -16 70 -30 78 -30 7 0 18 -6
22 -13 4 -7 25 -21 46 -32 60 -32 135 -111 173 -185 l36 -68 -3 -155 c-3 -130
-7 -158 -21 -174 -10 -11 -18 -22 -18 -26 0 -16 -64 -98 -117 -148 -55 -53
-226 -149 -240 -135 -3 3 -19 -2 -35 -10 -60 -31 -58 -53 -58 511 0 442 2 515
14 515 8 0 18 -4 21 -10z"/>
</g>
</svg>
