<?xml version="1.0" standalone="no"?>
<!DOCTYPE svg PUBLIC "-//W3C//DTD SVG 20010904//EN"
 "http://www.w3.org/TR/2001/REC-SVG-20010904/DTD/svg10.dtd">
<svg version="1.0" xmlns="http://www.w3.org/2000/svg"
 width="900.000000pt" height="471.000000pt" viewBox="0 0 900.000000 471.000000"
 preserveAspectRatio="xMidYMid meet">
<metadata>
Created by potrace 1.10, written by Peter Selinger 2001-2011
</metadata>
<g transform="translate(0.000000,471.000000) scale(0.100000,-0.100000)"
fill="#000000" stroke="none">
<path d="M3594 4655 c-10 -8 -31 -15 -45 -15 -14 0 -63 -26 -113 -60 -49 -33
-90 -60 -91 -60 -2 0 -40 -27 -83 -60 -44 -33 -83 -60 -86 -60 -3 0 -32 -20
-65 -45 -32 -25 -62 -45 -65 -45 -8 0 -80 -50 -86 -60 -7 -12 -79 -60 -89 -60
-5 0 -14 -7 -21 -15 -16 -19 -98 -75 -110 -75 -5 0 -13 -6 -17 -14 -4 -7 -39
-35 -78 -61 -38 -26 -86 -61 -106 -76 -20 -16 -39 -29 -42 -29 -3 0 -21 -13
-39 -30 -18 -16 -36 -30 -41 -30 -5 0 -34 -20 -65 -43 -31 -24 -88 -66 -127
-92 -38 -27 -74 -54 -78 -62 -4 -7 -14 -13 -20 -13 -7 0 -27 -13 -45 -30 -18
-16 -36 -30 -39 -30 -3 0 -19 -12 -37 -26 -17 -14 -71 -55 -121 -92 -49 -37
-94 -72 -98 -79 -4 -7 -13 -13 -18 -13 -11 0 -77 -49 -126 -94 -29 -26 -37
-28 -80 -23 -27 3 -66 14 -88 25 -44 22 -201 72 -226 72 -9 0 -19 3 -23 8 -7
7 -93 27 -166 39 -19 3 -39 9 -45 13 -12 9 -139 24 -172 21 -12 -1 -36 5 -55
15 -28 15 -69 17 -299 18 -233 1 -269 -1 -285 -15 -11 -9 -28 -19 -40 -23 -29
-9 -114 -92 -114 -113 0 -9 -8 -25 -17 -36 -13 -14 -17 -35 -17 -90 2 -113 58
-203 159 -256 36 -19 56 -21 220 -21 100 0 185 -4 191 -9 5 -5 45 -12 89 -15
116 -7 260 -29 276 -42 8 -7 34 -14 59 -17 46 -5 118 -23 155 -38 11 -4 36
-12 55 -17 43 -12 182 -71 195 -83 5 -5 17 -9 27 -9 21 0 91 -35 135 -67 17
-12 38 -23 47 -23 8 0 17 -4 20 -9 3 -5 24 -19 47 -30 44 -23 137 -89 225
-160 43 -35 54 -49 54 -73 0 -16 7 -45 15 -65 8 -19 15 -42 15 -49 0 -20 95
-154 122 -172 13 -8 34 -25 48 -38 29 -26 148 -74 185 -74 14 0 34 -5 44 -12
15 -9 28 -9 59 0 22 7 51 12 66 12 72 0 237 96 283 164 15 23 43 72 61 110 32
67 33 74 33 188 0 92 -3 125 -15 143 -9 14 -16 32 -16 41 0 28 -58 111 -110
157 -61 54 -161 107 -202 107 -18 0 -42 7 -52 15 -25 19 -98 19 -134 2 -49
-24 -89 -20 -140 15 -26 18 -50 37 -53 41 -4 5 -16 14 -27 20 -55 31 -141 93
-142 103 0 11 73 74 87 74 5 0 15 8 24 18 14 16 68 57 259 193 47 34 90 66 95
73 12 13 42 33 70 45 11 5 31 21 44 35 14 14 29 26 34 26 8 0 57 38 98 75 9 8
23 15 32 15 9 0 20 6 24 13 9 15 88 77 97 77 4 0 32 20 64 45 31 25 63 45 70
45 6 0 12 4 12 9 0 8 130 101 155 110 6 2 21 14 35 26 40 36 256 185 269 185
4 0 16 10 27 21 29 32 128 96 171 109 21 7 48 16 61 21 34 13 4789 12 4797 -1
10 -17 6 -3793 -4 -3799 -5 -3 -1096 -4 -2425 -1 l-2415 5 -57 40 c-31 22 -62
45 -68 52 -7 6 -31 24 -53 40 -22 15 -95 70 -162 120 -67 51 -126 93 -131 93
-4 0 -19 12 -32 28 -13 15 -49 44 -79 65 -31 20 -66 48 -79 62 -13 14 -27 25
-31 25 -11 0 -241 173 -258 194 -7 9 -19 16 -25 16 -7 0 -25 13 -41 30 -16 16
-32 30 -37 30 -10 0 -102 70 -106 81 -2 5 -9 9 -16 9 -6 0 -26 14 -44 30 -18
17 -36 30 -39 30 -3 0 -25 18 -50 40 -25 22 -69 55 -97 74 -29 19 -58 42 -65
50 -8 9 -17 16 -22 16 -4 0 -23 14 -41 30 -18 17 -38 30 -45 30 -6 0 -16 6
-20 13 -11 16 -90 77 -101 77 -4 0 -21 14 -37 30 -16 17 -33 30 -38 30 -5 0
-24 12 -42 27 -18 16 -47 39 -65 53 -85 64 -200 177 -200 196 0 6 -15 32 -34
58 -26 37 -50 55 -112 86 -43 22 -86 40 -94 40 -9 0 -20 4 -25 9 -17 16 -196
72 -219 69 -17 -2 -22 -11 -24 -48 -3 -42 2 -65 50 -213 46 -145 118 -256 253
-391 53 -53 99 -96 102 -96 3 0 19 -12 37 -26 17 -14 72 -55 121 -92 50 -37
94 -72 98 -79 4 -7 13 -13 20 -13 7 0 44 -26 84 -58 40 -31 109 -84 155 -117
45 -33 89 -68 97 -77 9 -10 21 -18 27 -18 6 0 27 -15 46 -32 19 -18 62 -52 94
-75 53 -38 143 -106 199 -148 11 -8 40 -31 65 -50 25 -19 59 -45 76 -59 18
-15 37 -26 42 -26 6 0 15 -6 19 -13 4 -7 37 -34 73 -59 36 -26 72 -54 81 -63
9 -8 20 -15 25 -15 6 0 23 -13 39 -30 16 -16 34 -30 40 -30 6 0 24 -13 40 -30
16 -16 34 -30 41 -30 7 0 17 -6 21 -13 4 -7 19 -20 33 -29 14 -8 39 -28 57
-44 17 -16 66 -54 109 -84 42 -30 87 -65 99 -78 12 -12 27 -22 32 -22 5 0 23
-12 39 -26 16 -14 62 -41 102 -60 l73 -34 2521 0 c2885 0 2592 -11 2707 96 50
46 78 83 107 140 l39 77 0 1986 0 1986 -24 62 c-13 35 -34 73 -46 85 -12 13
-25 33 -29 46 -4 12 -13 22 -19 22 -7 0 -26 12 -43 28 -34 31 -77 52 -150 76
-47 15 -268 16 -2546 16 -2178 0 -2497 -2 -2514 -15z"/>
<path d="M6503 3522 c-35 -32 -123 -150 -123 -166 0 -3 -20 -35 -45 -72 -25
-36 -45 -68 -45 -72 0 -4 -16 -30 -36 -57 -20 -28 -43 -63 -50 -80 -8 -16 -37
-64 -64 -105 -27 -41 -62 -97 -77 -124 -35 -61 -39 -67 -91 -144 -23 -35 -42
-67 -42 -71 0 -4 -13 -27 -30 -49 -16 -23 -30 -44 -30 -46 0 -2 -20 -35 -45
-73 -25 -37 -45 -71 -45 -76 0 -4 -20 -36 -45 -71 -25 -36 -45 -69 -45 -75 0
-5 -6 -16 -13 -23 -16 -17 -77 -113 -77 -121 0 -4 -13 -26 -30 -49 -16 -22
-30 -47 -30 -55 0 -7 -7 -16 -15 -19 -8 -4 -15 -10 -15 -15 0 -4 -13 -28 -30
-52 -16 -25 -30 -48 -30 -52 0 -4 -13 -24 -30 -45 -16 -21 -30 -41 -30 -45 0
-4 -13 -27 -30 -52 -16 -24 -30 -46 -30 -48 0 -3 -20 -34 -45 -71 -25 -36 -45
-69 -45 -73 0 -4 -12 -26 -28 -47 -71 -101 -81 -175 -32 -242 32 -45 51 -58
124 -84 46 -16 51 -17 85 -1 60 28 101 64 142 126 21 32 39 60 39 63 0 2 14
23 30 46 17 22 30 45 30 50 0 4 20 37 45 72 25 36 45 69 45 75 0 5 6 16 13 23
7 7 24 32 38 56 45 79 133 217 146 230 7 7 13 19 13 25 0 7 14 30 30 51 17 22
30 44 30 49 0 5 20 38 45 74 25 35 45 66 45 70 0 3 21 38 48 78 90 139 127
199 135 222 5 13 12 23 16 23 3 0 15 17 26 38 11 20 35 59 54 86 18 27 40 64
47 83 8 18 19 33 24 33 6 0 10 4 10 9 0 6 14 30 30 54 17 25 30 48 30 52 0 4
14 24 30 45 17 21 30 41 30 44 0 4 12 25 27 49 15 23 34 54 43 69 8 15 30 48
48 73 17 25 32 50 32 54 0 4 12 26 28 47 70 100 82 189 34 259 -40 57 -93 85
-167 85 -55 0 -63 -3 -102 -38z"/>
<path d="M5020 3513 c-19 -8 -42 -19 -50 -24 -8 -5 -24 -13 -35 -18 -71 -31
-205 -211 -205 -274 0 -13 -6 -29 -12 -35 -10 -10 -13 -76 -13 -262 0 -186 3
-252 13 -261 6 -7 12 -20 12 -30 0 -20 41 -98 87 -164 40 -57 154 -145 188
-145 11 0 26 -5 32 -11 6 -6 45 -14 85 -17 40 -2 80 -11 88 -18 13 -11 20 -11
41 0 14 7 59 15 100 19 76 6 175 44 192 73 4 8 13 14 20 14 15 0 97 81 97 97
0 6 6 16 14 20 21 11 76 136 76 170 0 16 5 34 10 39 14 14 16 379 2 419 -6 17
-18 55 -28 85 -37 116 -91 193 -189 268 -21 17 -72 40 -120 56 -69 22 -354 22
-405 -1z m269 -358 c8 -8 16 -39 19 -70 2 -30 8 -58 13 -61 13 -7 11 -241 -1
-249 -5 -3 -10 -21 -10 -38 0 -43 -17 -99 -32 -109 -16 -10 -69 -10 -84 0 -28
19 -44 60 -45 112 0 30 -4 63 -7 73 -10 24 5 254 20 300 6 21 21 45 32 53 24
17 73 12 95 -11z"/>
<path d="M6630 2490 c-8 -5 -31 -10 -50 -10 -19 0 -44 -7 -54 -15 -11 -8 -28
-15 -39 -15 -10 0 -38 -13 -61 -28 -22 -15 -48 -31 -57 -34 -24 -9 -100 -113
-131 -179 -15 -30 -30 -80 -34 -110 -4 -30 -11 -59 -16 -66 -13 -16 -12 -353
1 -366 6 -6 11 -25 11 -42 0 -16 7 -43 15 -59 8 -15 15 -36 15 -46 0 -50 167
-240 210 -240 10 0 21 -4 24 -9 3 -4 34 -19 68 -32 55 -21 80 -24 198 -24 111
0 144 3 180 19 87 37 129 57 132 64 2 4 19 19 38 33 37 28 120 140 120 162 0
7 4 17 9 22 18 20 43 111 42 159 0 27 7 62 15 77 18 37 18 146 -1 182 -8 16
-14 53 -14 85 1 84 -50 212 -119 299 -36 44 -138 118 -193 138 -90 34 -279 56
-309 35z m147 -392 c16 -15 23 -33 23 -59 0 -21 4 -40 9 -43 9 -6 6 -256 -4
-326 -9 -60 -38 -90 -85 -90 -24 0 -43 7 -54 19 -49 54 -54 412 -7 500 16 30
86 29 118 -1z"/>
</g>
</svg>
