<?xml version="1.0" standalone="no"?>
<!DOCTYPE svg PUBLIC "-//W3C//DTD SVG 20010904//EN"
 "http://www.w3.org/TR/2001/REC-SVG-20010904/DTD/svg10.dtd">
<svg version="1.0" xmlns="http://www.w3.org/2000/svg"
 width="300.000000pt" height="180.000000pt" viewBox="0 0 300.000000 180.000000"
 preserveAspectRatio="xMidYMid meet">
<metadata>
Created by potrace 1.10, written by Peter Selinger 2001-2011
</metadata>
<g transform="translate(0.000000,180.000000) scale(0.100000,-0.100000)"
fill="#000000" stroke="none">
<path d="M792 1789 c-337 -41 -633 -281 -743 -602 -82 -238 -63 -462 57 -698
156 -305 495 -498 838 -476 323 21 610 212 751 502 67 138 80 202 80 392 0
155 -1 162 -23 186 -28 30 -65 38 -104 25 -45 -16 -52 -40 -53 -198 -1 -129
-4 -154 -28 -225 -38 -115 -91 -199 -182 -290 -428 -429 -1160 -146 -1192 461
-24 437 345 783 781 734 47 -6 116 -22 153 -36 142 -53 166 -52 203 8 49 80
-23 144 -214 193 -110 28 -225 37 -324 24z"/>
<path d="M2020 1790 c-265 -35 -503 -180 -646 -395 -104 -156 -144 -294 -144
-499 0 -139 11 -181 52 -202 38 -19 88 -12 114 17 17 19 19 38 19 168 1 112 5
160 19 205 62 201 191 358 367 447 133 67 317 90 464 60 87 -18 230 -89 303
-150 156 -130 252 -335 252 -538 0 -116 -23 -205 -81 -320 -44 -89 -62 -113
-138 -185 -136 -130 -260 -183 -452 -195 -107 -6 -211 11 -311 53 -74 31 -109
31 -141 -1 -76 -77 -29 -143 143 -199 113 -38 201 -50 320 -43 375 20 685 262
811 632 22 64 24 86 24 260 0 187 -1 191 -31 277 -63 176 -185 340 -330 444
-173 124 -419 189 -614 164z"/>
</g>
</svg>
