<svg id="svg" version="1.1" width="500" height="515" xmlns="http://www.w3.org/2000/svg" xmlns:xlink="http://www.w3.org/1999/xlink" style="display: block;"><g id="svgg"><path id="path0" d="M95.600 1.719 C 93.400 2.127,90.520 2.957,89.200 3.565 C 87.880 4.172,84.998 5.351,82.796 6.184 C 67.642 11.913,52.263 31.013,49.953 46.970 C 49.648 49.076,49.082 51.199,48.695 51.687 C 48.299 52.187,48.081 85.701,48.196 128.487 L 48.400 204.400 63.000 204.618 L 77.600 204.836 77.600 129.763 C 77.600 46.445,77.381 50.049,82.907 42.357 C 86.404 37.490,91.901 33.488,97.492 31.741 C 101.655 30.440,288.800 29.523,288.800 30.804 C 288.800 31.026,287.865 33.096,286.722 35.404 C 281.817 45.306,282.085 40.372,281.804 126.200 L 281.548 204.800 295.974 204.800 L 310.400 204.800 310.400 129.647 C 310.400 87.984,310.710 54.303,311.095 54.065 C 311.477 53.829,312.009 52.277,312.278 50.618 C 312.546 48.958,313.673 46.269,314.783 44.642 C 315.892 43.016,316.809 41.396,316.820 41.042 C 316.869 39.472,327.522 32.482,331.402 31.476 C 363.306 23.200,383.169 63.443,356.752 82.836 C 351.389 86.772,346.295 87.979,335.000 87.991 L 325.600 88.000 325.600 102.896 L 325.600 117.791 338.200 117.452 C 345.130 117.266,351.520 116.729,352.400 116.260 C 353.280 115.790,356.684 114.550,359.964 113.503 C 374.020 109.019,388.928 94.708,393.761 81.059 C 394.669 78.497,395.704 76.028,396.060 75.573 C 398.907 71.944,398.884 46.306,396.031 42.827 C 395.658 42.372,394.728 40.082,393.964 37.739 C 393.201 35.395,391.006 31.137,389.088 28.276 C 387.170 25.415,385.600 22.970,385.600 22.843 C 385.600 20.221,367.907 7.336,361.392 5.213 C 359.086 4.462,356.828 3.542,356.373 3.169 C 353.764 1.030,341.095 0.815,222.400 0.896 C 150.918 0.944,97.928 1.288,95.600 1.719 M106.400 73.600 L 106.400 88.000 179.600 88.000 L 252.800 88.000 252.800 73.600 L 252.800 59.200 179.600 59.200 L 106.400 59.200 106.400 73.600 M106.400 132.000 L 106.400 146.400 150.400 146.400 L 194.400 146.400 194.400 132.000 L 194.400 117.600 150.400 117.600 L 106.400 117.600 106.400 132.000 M223.200 132.000 L 223.200 146.400 238.000 146.400 L 252.800 146.400 252.800 132.000 L 252.800 117.600 238.000 117.600 L 223.200 117.600 223.200 132.000 M106.933 175.733 C 106.640 176.027,106.400 182.687,106.400 190.533 L 106.400 204.800 142.800 204.800 L 179.200 204.800 179.200 190.000 L 179.200 175.200 143.333 175.200 C 123.607 175.200,107.227 175.440,106.933 175.733 M208.800 190.000 L 208.800 204.826 230.600 204.613 L 252.400 204.400 252.400 190.000 L 252.400 175.600 230.600 175.387 L 208.800 175.174 208.800 190.000 M27.200 219.929 C 23.132 220.739,12.793 227.114,11.949 229.333 C 11.559 230.360,10.866 231.200,10.410 231.200 C 9.953 231.200,8.594 233.270,7.390 235.800 L 5.200 240.400 5.200 299.200 L 5.200 358.000 7.271 362.408 C 11.260 370.898,19.087 376.808,28.781 378.650 L 33.565 379.559 33.783 393.980 L 34.000 408.400 179.600 408.400 L 325.200 408.400 325.418 393.938 L 325.635 379.476 330.486 378.574 C 333.154 378.078,336.966 376.665,338.958 375.436 C 340.949 374.206,343.397 372.750,344.397 372.200 C 346.863 370.846,352.875 360.716,353.679 356.563 C 354.524 352.198,354.531 246.236,353.687 241.878 C 353.333 240.051,351.999 236.859,350.722 234.785 C 349.445 232.711,347.968 230.246,347.439 229.307 C 346.461 227.569,346.099 227.307,337.886 222.400 L 333.200 219.600 181.600 219.486 C 98.220 219.423,28.740 219.623,27.200 219.929 M97.838 264.281 C 108.994 268.942,108.994 286.258,97.838 290.919 C 94.598 292.273,61.334 292.464,57.852 291.149 C 51.606 288.789,44.985 276.358,48.738 274.038 C 49.145 273.787,49.702 272.556,49.977 271.303 C 50.574 268.585,53.875 265.322,57.200 264.163 C 60.963 262.851,94.650 262.949,97.838 264.281 " stroke="none" fill="#000000" fill-rule="evenodd"></path><path id="path1" d="M0.000 206.000 L 0.000 412.000 200.000 412.000 L 400.000 412.000 400.000 206.000 L 400.000 0.000 200.000 0.000 L 0.000 0.000 0.000 206.000 M350.373 1.651 C 353.217 2.113,355.917 2.796,356.373 3.169 C 356.828 3.542,359.086 4.462,361.392 5.213 C 367.907 7.336,385.600 20.221,385.600 22.843 C 385.600 22.970,387.170 25.415,389.088 28.276 C 391.006 31.137,393.201 35.395,393.964 37.739 C 394.728 40.082,395.658 42.372,396.031 42.827 C 398.884 46.306,398.907 71.944,396.060 75.573 C 395.704 76.028,394.669 78.497,393.761 81.059 C 388.928 94.708,374.020 109.019,359.964 113.503 C 356.684 114.550,353.280 115.790,352.400 116.260 C 351.520 116.729,345.130 117.266,338.200 117.452 L 325.600 117.791 325.600 102.896 L 325.600 88.000 335.000 87.991 C 346.295 87.979,351.389 86.772,356.752 82.836 C 383.169 63.443,363.306 23.200,331.402 31.476 C 327.522 32.482,316.869 39.472,316.820 41.042 C 316.809 41.396,315.892 43.016,314.783 44.642 C 313.673 46.269,312.546 48.958,312.278 50.618 C 312.009 52.277,311.477 53.829,311.095 54.065 C 310.710 54.303,310.400 87.984,310.400 129.647 L 310.400 204.800 295.974 204.800 L 281.548 204.800 281.804 126.200 C 282.085 40.372,281.817 45.306,286.722 35.404 C 287.865 33.096,288.800 31.026,288.800 30.804 C 288.800 29.523,101.655 30.440,97.492 31.741 C 91.901 33.488,86.404 37.490,82.907 42.357 C 77.381 50.049,77.600 46.445,77.600 129.763 L 77.600 204.836 63.000 204.618 L 48.400 204.400 48.196 128.487 C 48.081 85.701,48.299 52.187,48.695 51.687 C 49.082 51.199,49.648 49.076,49.953 46.970 C 52.263 31.013,67.642 11.913,82.796 6.184 C 84.998 5.351,87.880 4.172,89.200 3.565 C 90.520 2.957,93.400 2.127,95.600 1.719 C 101.414 0.643,343.758 0.578,350.373 1.651 M252.800 73.600 L 252.800 88.000 179.600 88.000 L 106.400 88.000 106.400 73.600 L 106.400 59.200 179.600 59.200 L 252.800 59.200 252.800 73.600 M194.400 132.000 L 194.400 146.400 150.400 146.400 L 106.400 146.400 106.400 132.000 L 106.400 117.600 150.400 117.600 L 194.400 117.600 194.400 132.000 M252.800 132.000 L 252.800 146.400 238.000 146.400 L 223.200 146.400 223.200 132.000 L 223.200 117.600 238.000 117.600 L 252.800 117.600 252.800 132.000 M179.200 190.000 L 179.200 204.800 142.800 204.800 L 106.400 204.800 106.400 190.533 C 106.400 182.687,106.640 176.027,106.933 175.733 C 107.227 175.440,123.607 175.200,143.333 175.200 L 179.200 175.200 179.200 190.000 M252.400 190.000 L 252.400 204.400 230.600 204.613 L 208.800 204.826 208.800 190.000 L 208.800 175.174 230.600 175.387 L 252.400 175.600 252.400 190.000 M337.886 222.400 C 346.099 227.307,346.461 227.569,347.439 229.307 C 347.968 230.246,349.445 232.711,350.722 234.785 C 351.999 236.859,353.333 240.051,353.687 241.878 C 354.531 246.236,354.524 352.198,353.679 356.563 C 352.875 360.716,346.863 370.846,344.397 372.200 C 343.397 372.750,340.949 374.206,338.958 375.436 C 336.966 376.665,333.154 378.078,330.486 378.574 L 325.635 379.476 325.418 393.938 L 325.200 408.400 179.600 408.400 L 34.000 408.400 33.783 393.980 L 33.565 379.559 28.781 378.650 C 19.087 376.808,11.260 370.898,7.271 362.408 L 5.200 358.000 5.200 299.200 L 5.200 240.400 7.390 235.800 C 8.594 233.270,9.953 231.200,10.410 231.200 C 10.866 231.200,11.559 230.360,11.949 229.333 C 12.793 227.114,23.132 220.739,27.200 219.929 C 28.740 219.623,98.220 219.423,181.600 219.486 L 333.200 219.600 337.886 222.400 M57.200 264.163 C 53.875 265.322,50.574 268.585,49.977 271.303 C 49.702 272.556,49.145 273.787,48.738 274.038 C 44.985 276.358,51.606 288.789,57.852 291.149 C 61.334 292.464,94.598 292.273,97.838 290.919 C 108.994 286.258,108.994 268.942,97.838 264.281 C 94.650 262.949,60.963 262.851,57.200 264.163 " stroke="none" fill="#ffffff" fill-rule="evenodd"></path></g></svg>